SplineFontDB: 3.2
FontName: Estedad-Black
FullName: Estedad Black
FamilyName: Estedad Black
Weight: Black
Copyright: Copyright 2022 The Estedad Project Authors (https://github.com/aminabedi68/Estedad)
Version: 7.0
ItalicAngle: 0
UnderlinePosition: -750
UnderlineWidth: 150
Ascent: 1638
Descent: 410
InvalidEm: 0
sfntRevision: 0x00070000
LayerCount: 2
Layer: 0 0 "Back" 1
Layer: 1 0 "Fore" 0
StyleMap: 0x0040
FSType: 0
OS2Version: 4
OS2_WeightWidthSlopeOnly: 0
OS2_UseTypoMetrics: 1
CreationTime: 1595075592
ModificationTime: 1653683939
PfmFamily: 17
TTFWeight: 900
TTFWidth: 5
LineGap: 0
VLineGap: 0
Panose: 2 0 10 3 0 0 0 0 0 0
OS2TypoAscent: 2400
OS2TypoAOffset: 0
OS2TypoDescent: -1200
OS2TypoDOffset: 0
OS2TypoLinegap: 0
OS2WinAscent: 2421
OS2WinAOffset: 0
OS2WinDescent: 1217
OS2WinDOffset: 0
HheadAscent: 2400
HheadAOffset: 0
HheadDescent: -1200
HheadDOffset: 0
OS2SubXSize: 1331
OS2SubYSize: 1433
OS2SubXOff: 0
OS2SubYOff: 286
OS2SupXSize: 1331
OS2SupYSize: 1433
OS2SupXOff: 0
OS2SupYOff: 983
OS2StrikeYSize: 102
OS2StrikeYPos: 530
OS2CapHeight: 1500
OS2XHeight: 1090
OS2Vendor: 'amin'
OS2CodePages: 000000d3.00000000
OS2UnicodeRanges: a000207f.9000207b.00000008.00000000
Lookup: 1 1 0 "Single Substitution lookup 179" { "SingleSubstitutionlookup179 subtable"  } []
Lookup: 1 9 0 "Single Substitution lookup 178" { "Single Substitution lookup 178 subtable"  } []
Lookup: 6 9 0 "'ccmp' Glyph Composition/Decomposition in Arabic lookup 73" { "'ccmp' Glyph Composition/Decomposition in Arabic lookup 73 contextual 0"  "'ccmp' Glyph Composition/Decomposition in Arabic lookup 73 contextual 1"  "'ccmp' Glyph Composition/Decomposition in Arabic lookup 73 contextual 2"  } ['ccmp' ('arab' <'FAR ' 'KUR ' 'URD ' 'dflt' > ) ]

StartChar: exclam
Encoding: 33 33 1
Width: 654
GlyphClass: 2
Flags: HMW
LayerCount: 2
Fore
SplineSet
485 517 m 1
 171 517 l 1
 130 1507 l 1
 524 1507 l 1
 485 517 l 1
EndSplineSet
Refer: 14 46 N 1 0 0 1 17 0 2
EndChar

StartChar: numbersign
Encoding: 35 35 3
Width: 1742
GlyphClass: 2
Flags: HMW
LayerCount: 2
Fore
SplineSet
1035 884 m 1
 778 884 l 1
 706 622 l 1
 965 622 l 1
 1035 884 l 1
532 0 m 1
 295 0 l 1
 395 360 l 1
 161 360 l 1
 161 622 l 1
 468 622 l 1
 540 884 l 1
 253 884 l 1
 253 1147 l 1
 612 1147 l 1
 706 1484 l 1
 943 1484 l 1
 849 1147 l 1
 1110 1147 l 1
 1204 1484 l 1
 1440 1484 l 1
 1346 1147 l 1
 1584 1147 l 1
 1584 884 l 1
 1273 884 l 1
 1203 622 l 1
 1494 622 l 1
 1494 360 l 1
 1130 360 l 1
 1031 0 l 1
 793 0 l 1
 891 360 l 1
 632 360 l 1
 532 0 l 1
EndSplineSet
EndChar

StartChar: ampersand
Encoding: 38 38 6
Width: 1535
GlyphClass: 2
Flags: HMW
LayerCount: 2
Fore
SplineSet
180 1112 m 0
 180 1346 356 1508 610 1508 c 0
 868 1508 1044 1340 1044 1092 c 0
 1044 947 985 836 849 735 c 1
 1007 599 l 1
 1035 662 1055 725 1064 783 c 1
 1391 783 l 1
 1368 632 1316 505 1246 394 c 1
 1438 240 l 1
 1213 -11 l 1
 1047 145 l 1
 933 43 789 -11 624 -11 c 0
 303 -11 100 155 100 410 c 0
 100 557 165 669 330 783 c 1
 327 786 l 2
 229 882 180 995 180 1112 c 0
603 950 m 1
 679 1012 706 1057 706 1110 c 0
 706 1163 668 1198 612 1198 c 0
 557 1198 519 1166 519 1112 c 0
 519 1063 545 1011 600 953 c 2
 603 950 l 1
812 351 m 1
 569 565 l 1
 493 509 459 454 459 401 c 0
 459 347 524 309 617 309 c 0
 685 309 749 324 812 351 c 1
EndSplineSet
EndChar

StartChar: quotesingle
Encoding: 39 39 7
Width: 398
GlyphClass: 2
Flags: HMW
LayerCount: 2
Fore
SplineSet
99 1507 m 1
 301 1507 l 1
 301 1248 l 1
 281 989 l 1
 119 989 l 1
 99 1248 l 1
 99 1507 l 1
EndSplineSet
EndChar

StartChar: parenleft
Encoding: 40 40 8
Width: 694
GlyphClass: 2
Flags: HMW
LayerCount: 2
Fore
SplineSet
408 1634 m 1
 659 1496 l 1
 520 1250 440 905 440 526 c 0
 440 148 520 -198 659 -444 c 1
 408 -583 l 1
 192 -211 79 125 79 526 c 0
 79 925 192 1263 408 1634 c 1
EndSplineSet
Position2: "SinglePositioning1 subtable" dx=0 dy=0 dh=200 dv=0
EndChar

StartChar: parenright
Encoding: 41 41 9
Width: 694
GlyphClass: 2
Flags: HMW
LayerCount: 2
Fore
SplineSet
288 -583 m 1
 38 -445 l 1
 177 -199 257 146 257 525 c 0
 257 903 177 1249 38 1495 c 1
 288 1634 l 1
 504 1262 619 926 619 525 c 0
 619 126 504 -212 288 -583 c 1
EndSplineSet
Position2: "SinglePositioning1 subtable" dx=0 dy=0 dh=200 dv=0
EndChar

StartChar: asterisk
Encoding: 42 42 10
Width: 1207
GlyphClass: 2
Flags: HMW
LayerCount: 2
Fore
SplineSet
467 1528 m 1
 742 1528 l 1
 728 1240 l 1
 735 1233 l 1
 1005 1336 l 1
 1090 1075 l 1
 812 1000 l 1
 810 990 l 1
 990 766 l 1
 767 604 l 1
 609 844 l 1
 599 844 l 1
 443 604 l 1
 220 766 l 1
 400 990 l 1
 397 999 l 1
 119 1075 l 1
 203 1336 l 1
 473 1234 l 1
 481 1239 l 1
 467 1528 l 1
EndSplineSet
EndChar

StartChar: plus
Encoding: 43 43 11
Width: 1135
GlyphClass: 2
Flags: HMW
LayerCount: 2
Fore
SplineSet
1037 810 m 1
 1037 530 l 1
 708 530 l 1
 708 202 l 1
 428 202 l 1
 428 530 l 1
 99 530 l 1
 99 810 l 1
 428 810 l 1
 428 1141 l 1
 708 1141 l 1
 708 810 l 1
 1037 810 l 1
EndSplineSet
Substitution2: "'tnum' Tabular Numbers lookup 22 subtable" plus.tnum
EndChar

StartChar: comma
Encoding: 44 44 12
Width: 695
GlyphClass: 2
Flags: HMW
LayerCount: 2
Fore
SplineSet
182 419 m 1
 531 419 l 1
 333 -188 l 1
 85 -64 l 1
 182 419 l 1
EndSplineSet
EndChar

StartChar: hyphen
Encoding: 45 45 13
Width: 1135
GlyphClass: 2
Flags: HMW
LayerCount: 2
Fore
SplineSet
1037 810 m 1
 1037 530 l 1
 99 530 l 1
 99 810 l 1
 1037 810 l 1
EndSplineSet
Substitution2: "'tnum' Tabular Numbers lookup 22 subtable" hyphen.tnum
EndChar

StartChar: period
Encoding: 46 46 14
Width: 625
GlyphClass: 2
Flags: HMW
LayerCount: 2
Fore
SplineSet
120 178 m 0
 120 282 207 362 312 362 c 0
 415 362 505 282 505 178 c 0
 505 74 415 -11 312 -11 c 0
 207 -11 120 74 120 178 c 0
EndSplineSet
EndChar

StartChar: slash
Encoding: 47 47 15
Width: 1104
GlyphClass: 2
Flags: HMW
LayerCount: 2
Fore
SplineSet
789 1507 m 1
 1068 1507 l 1
 314 0 l 1
 37 0 l 1
 789 1507 l 1
EndSplineSet
Substitution2: "'tnum' Tabular Numbers lookup 22 subtable" slash.tnum
Substitution2: "'smcp' Lowercase to Small Capitals in Latin lookup 0 subtable" slash.sc
EndChar

StartChar: less
Encoding: 60 60 28
Width: 782
GlyphClass: 2
Flags: HMW
LayerCount: 2
Fore
SplineSet
592 1276 m 1
 745 1119 l 1
 344 756 l 1
 745 392 l 1
 592 235 l 1
 40 756 l 1
 592 1276 l 1
EndSplineSet
Position2: "SinglePositioning1 subtable" dx=0 dy=0 dh=200 dv=0
EndChar

StartChar: greater
Encoding: 62 62 30
Width: 782
GlyphClass: 2
Flags: HMW
LayerCount: 2
Fore
SplineSet
192 236 m 1
 40 392 l 1
 439 756 l 1
 40 1119 l 1
 192 1276 l 1
 745 756 l 1
 192 236 l 1
EndSplineSet
EndChar

StartChar: question
Encoding: 63 63 31
Width: 1168
GlyphClass: 2
Flags: HMW
LayerCount: 2
Fore
SplineSet
393 507 m 1
 393 692 497 801 585 892 c 0
 648.411994613 957.573767157 702 1015 702 1084 c 0
 702 1156 661 1218 567 1218 c 0
 490 1218 444 1165 444 1082 c 0
 444 1068 446 1054 449 1040 c 1
 115 1040 l 1
 110 1064 109 1087 109 1110 c 0
 109 1360 324 1529 585 1529 c 0
 890 1529 1062 1310 1062 1112 c 0
 1062 945 980 867 901 792 c 0
 824 721 752 650 752 507 c 1
 393 507 l 1
375 178 m 0
 375 282 465 362 568 362 c 0
 671 362 760 282 760 178 c 0
 760 74 671 -11 568 -11 c 0
 465 -11 375 74 375 178 c 0
EndSplineSet
EndChar

StartChar: at
Encoding: 64 64 32
Width: 1995
GlyphClass: 2
Flags: HMW
LayerCount: 2
Fore
SplineSet
1023 721 m 0
 873 721 788 633 788 446 c 0
 788 294 851 231 961 231 c 0
 1062 231 1131 311 1145 472 c 2
 1165 695 l 1
 1131 713 1095 721 1023 721 c 0
1023 948 m 0
 1166 948 1282 899 1425 790 c 1
 1385 377 l 2
 1381 340 1380 303 1380 296 c 0
 1380 255 1399 239 1447 239 c 0
 1570 239 1639 375 1639 602 c 0
 1639 936 1407 1157 1038 1157 c 0
 639 1157 373 875 373 431 c 0
 373 15 568 -184 971 -184 c 0
 1047 -184 1121 -170 1197 -144 c 1
 1282 -360 l 1
 1181 -398 1077 -417 971 -417 c 0
 432 -417 120 -105 120 428 c 0
 120 1006 491 1385 1047 1385 c 0
 1555 1385 1878 1067 1878 589 c 0
 1878 226 1715 -12 1446 -12 c 0
 1359 -12 1280 28 1233 102 c 1
 1174 29 1072 -12 961 -12 c 0
 721 -12 549 170 549 446 c 0
 549 765 728 948 1023 948 c 0
EndSplineSet
EndChar

StartChar: A
Encoding: 65 65 33
Width: 1483
GlyphClass: 2
Flags: HMW
AnchorPoint: "down_II" 1385 0 basechar 0
AnchorPoint: "down_I" 742 0 basechar 0
AnchorPoint: "up_I" 742 1505 basechar 0
LayerCount: 2
Fore
SplineSet
513 318 m 1
 412 0 l 1
 -10 0 l 1
 531 1507 l 1
 955 1507 l 1
 1494 0 l 1
 1072 0 l 1
 975 318 l 1
 513 318 l 1
740 1051 m 1
 607 613 l 1
 880 613 l 1
 750 1051 l 1
 740 1051 l 1
EndSplineSet
Substitution2: "'c2sc' Capitals to Small Capitals in Latin lookup 0 subtable" uni1D00
EndChar

StartChar: B
Encoding: 66 66 34
Width: 1440
GlyphClass: 2
Flags: HMW
AnchorPoint: "down_I" 690 0 basechar 0
AnchorPoint: "up_I" 690 1505 basechar 0
LayerCount: 2
Fore
SplineSet
1073 749 m 1
 1240 715 1334 563 1334 400 c 0
 1334 102 1162 0 836 0 c 2
 133 0 l 1
 133 1507 l 1
 806 1507 l 2
 1107 1507 1292 1355 1292 1063 c 0
 1292 927 1227 800 1073 759 c 1
 1073 749 l 1
528 1180 m 1
 528 894 l 1
 754 894 l 2
 838 894 892 943 892 1038 c 0
 892 1132 839 1180 754 1180 c 2
 528 1180 l 1
528 611 m 1
 528 326 l 1
 803 326 l 2
 887 326 942 373 942 468 c 0
 942 562 888 611 803 611 c 2
 528 611 l 1
EndSplineSet
Substitution2: "'c2sc' Capitals to Small Capitals in Latin lookup 0 subtable" uni0299
EndChar

StartChar: C
Encoding: 67 67 35
Width: 1518
GlyphClass: 2
Flags: HMW
AnchorPoint: "down_I" 752 -11 basechar 0
AnchorPoint: "up_I" 752 1515 basechar 0
LayerCount: 2
Fore
SplineSet
475 754 m 0
 475 476 572 316 751 316 c 0
 894 316 989 417 1003 568 c 1
 1421 567 l 1
 1421 248 1140 -11 753 -11 c 0
 334 -11 80 301 80 754 c 0
 80 1207 334 1517 753 1517 c 0
 1140 1517 1421 1258 1421 939 c 1
 1003 939 l 1
 989 1090 894 1191 751 1191 c 0
 572 1191 475 1032 475 754 c 0
EndSplineSet
Substitution2: "'c2sc' Capitals to Small Capitals in Latin lookup 0 subtable" uni1D04
EndChar

StartChar: D
Encoding: 68 68 36
Width: 1431
GlyphClass: 2
Flags: HMW
AnchorPoint: "down_I" 651 0 basechar 0
AnchorPoint: "up_I" 651 1505 basechar 0
LayerCount: 2
Fore
SplineSet
1360 754 m 0
 1360 372 1171 0 651 0 c 2
 116 0 l 1
 116 1507 l 1
 651 1507 l 2
 1171 1507 1360 1136 1360 754 c 0
964 754 m 0
 964 1069 885 1180 651 1180 c 2
 510 1180 l 1
 510 326 l 1
 651 326 l 2
 885 326 964 437 964 754 c 0
EndSplineSet
Substitution2: "'c2sc' Capitals to Small Capitals in Latin lookup 0 subtable" uni1D05
EndChar

StartChar: E
Encoding: 69 69 37
Width: 1137
GlyphClass: 2
Flags: HMW
AnchorPoint: "down_II" 813 0 basechar 0
AnchorPoint: "down_I" 650 0 basechar 0
AnchorPoint: "up_I" 650 1505 basechar 0
LayerCount: 2
Fore
SplineSet
1111 326 m 1
 1111 0 l 1
 116 0 l 1
 116 1507 l 1
 1111 1507 l 1
 1111 1180 l 1
 510 1180 l 1
 510 903 l 1
 1055 903 l 1
 1055 604 l 1
 510 604 l 1
 510 326 l 1
 1111 326 l 1
EndSplineSet
Substitution2: "'c2sc' Capitals to Small Capitals in Latin lookup 0 subtable" uni1D07
EndChar

StartChar: F
Encoding: 70 70 38
Width: 1138
GlyphClass: 2
Flags: HMW
AnchorPoint: "down_I" 650 0 basechar 0
AnchorPoint: "up_I" 650 1505 basechar 0
LayerCount: 2
Fore
SplineSet
510 0 m 1
 116 0 l 1
 116 1507 l 1
 1111 1507 l 1
 1111 1180 l 1
 510 1180 l 1
 510 861 l 1
 963 861 l 1
 963 562 l 1
 510 562 l 1
 510 0 l 1
EndSplineSet
Substitution2: "'c2sc' Capitals to Small Capitals in Latin lookup 0 subtable" uniA730
EndChar

StartChar: G
Encoding: 71 71 39
Width: 1609
GlyphClass: 2
Flags: HMW
AnchorPoint: "down_I" 849 -12 basechar 0
AnchorPoint: "up_I" 818 1515 basechar 0
LayerCount: 2
Fore
SplineSet
743 861 m 1
 1495 861 l 1
 1495 280 l 1
 1341 98 1156 -12 851 -12 c 0
 404 -12 105 306 105 754 c 0
 105 1195 398 1517 821 1517 c 0
 1119 1517 1310 1358 1419 1094 c 1
 1114 974 l 1
 1053 1104 968 1191 822 1191 c 0
 624 1191 502 1028 502 754 c 0
 502 461 621 316 856 316 c 0
 945 316 1036 340 1099 363 c 1
 1099 562 l 1
 743 562 l 1
 743 861 l 1
EndSplineSet
Substitution2: "'c2sc' Capitals to Small Capitals in Latin lookup 0 subtable" uni0262
EndChar

StartChar: H
Encoding: 72 72 40
Width: 1494
GlyphClass: 2
Flags: HMW
AnchorPoint: "down_I" 747 0 basechar 0
AnchorPoint: "up_I" 747 1505 basechar 0
LayerCount: 2
Fore
SplineSet
986 1507 m 1
 1380 1507 l 1
 1380 0 l 1
 986 0 l 1
 986 604 l 1
 511 604 l 1
 511 0 l 1
 116 0 l 1
 116 1507 l 1
 511 1507 l 1
 511 904 l 1
 986 904 l 1
 986 1507 l 1
EndSplineSet
Substitution2: "'c2sc' Capitals to Small Capitals in Latin lookup 0 subtable" uni029C
EndChar

StartChar: I
Encoding: 73 73 41
Width: 682
GlyphClass: 2
Flags: HMW
AnchorPoint: "down_II" 341 0 basechar 0
AnchorPoint: "down_I" 341 0 basechar 0
AnchorPoint: "up_I" 341 1505 basechar 0
LayerCount: 2
Fore
SplineSet
540 0 m 1
 143 0 l 1
 143 1507 l 1
 540 1507 l 1
 540 0 l 1
EndSplineSet
Substitution2: "'c2sc' Capitals to Small Capitals in Latin lookup 0 subtable" uni026A
EndChar

StartChar: J
Encoding: 74 74 42
Width: 827
GlyphClass: 2
Flags: HMW
AnchorPoint: "down_I" 337 -11 basechar 0
AnchorPoint: "up_I" 517 1505 basechar 0
LayerCount: 2
Fore
SplineSet
51 42 m 1
 102 288 l 1
 136 282 184 274 217 274 c 0
 278 274 321 300 321 359 c 2
 321 1507 l 1
 717 1507 l 1
 717 313 l 2
 717 79 542 -11 339 -11 c 0
 240 -11 138 13 51 42 c 1
EndSplineSet
Substitution2: "'c2sc' Capitals to Small Capitals in Latin lookup 0 subtable" uni1D0A
EndChar

StartChar: K
Encoding: 75 75 43
Width: 1477
GlyphClass: 2
Flags: HMW
AnchorPoint: "down_I" 740 0 basechar 0
AnchorPoint: "up_I" 740 1505 basechar 0
LayerCount: 2
Fore
SplineSet
1007 1507 m 1
 1464 1507 l 1
 849 751 l 1
 1464 0 l 1
 1007 0 l 1
 538 639 l 1
 510 639 l 1
 510 0 l 1
 116 0 l 1
 116 1507 l 1
 510 1507 l 1
 510 908 l 1
 539 908 l 1
 1007 1507 l 1
EndSplineSet
Substitution2: "'c2sc' Capitals to Small Capitals in Latin lookup 0 subtable" uni1D0B
EndChar

StartChar: L
Encoding: 76 76 44
Width: 1162
GlyphClass: 2
Flags: HMW
AnchorPoint: "down_II" 1029 0 basechar 0
AnchorPoint: "middle_dot_I" 750 896 basechar 0
AnchorPoint: "down_I" 619 0 basechar 0
AnchorPoint: "up_II" 571 1505 basechar 0
AnchorPoint: "up_I" 750 1505 basechar 0
LayerCount: 2
Fore
SplineSet
1124 326 m 1
 1124 0 l 1
 116 0 l 1
 116 1507 l 1
 510 1507 l 1
 510 326 l 1
 1124 326 l 1
EndSplineSet
Substitution2: "'c2sc' Capitals to Small Capitals in Latin lookup 0 subtable" uni029F
EndChar

StartChar: M
Encoding: 77 77 45
Width: 1947
GlyphClass: 2
Flags: HMW
AnchorPoint: "down_I" 982 0 basechar 0
AnchorPoint: "up_I" 982 1505 basechar 0
LayerCount: 2
Fore
SplineSet
510 0 m 1
 116 0 l 1
 116 1507 l 1
 604 1507 l 1
 984 366 l 1
 1345 1507 l 1
 1836 1507 l 1
 1836 0 l 1
 1440 0 l 1
 1440 870 l 1
 1430 870 l 1
 1164 0 l 1
 803 0 l 1
 520 872 l 1
 510 872 l 1
 510 0 l 1
EndSplineSet
Substitution2: "'c2sc' Capitals to Small Capitals in Latin lookup 0 subtable" uni1D0D
EndChar

StartChar: N
Encoding: 78 78 46
Width: 1499
GlyphClass: 2
Flags: HMW
AnchorPoint: "down_I" 740 0 basechar 0
AnchorPoint: "up_I" 774 1505 basechar 0
LayerCount: 2
Fore
SplineSet
993 1507 m 1
 1389 1507 l 1
 1389 0 l 1
 1023 0 l 1
 520 832 l 1
 510 832 l 1
 510 0 l 1
 116 0 l 1
 116 1507 l 1
 480 1507 l 1
 983 673 l 1
 993 673 l 1
 993 1507 l 1
EndSplineSet
Substitution2: "'c2sc' Capitals to Small Capitals in Latin lookup 0 subtable" uni0274
EndChar

StartChar: O
Encoding: 79 79 47
Width: 1512
GlyphClass: 2
Flags: HMW
AnchorPoint: "down_II" 758 -11 basechar 0
AnchorPoint: "down_I" 758 -11 basechar 0
AnchorPoint: "up_II" 1002 1285 basechar 0
AnchorPoint: "up_I" 758 1515 basechar 0
LayerCount: 2
Fore
SplineSet
757 1517 m 0
 1252 1517 1450 1155 1450 754 c 0
 1450 353 1250 -11 757 -11 c 0
 264 -11 63 353 63 754 c 0
 63 1155 262 1517 757 1517 c 0
757 1188 m 0
 598 1188 463 1065 463 754 c 0
 463 442 595 319 757 319 c 0
 919 319 1053 443 1053 754 c 0
 1053 1066 916 1188 757 1188 c 0
EndSplineSet
Substitution2: "'c2sc' Capitals to Small Capitals in Latin lookup 0 subtable" uni1D0F
EndChar

StartChar: P
Encoding: 80 80 48
Width: 1421
GlyphClass: 2
Flags: HMW
AnchorPoint: "down_I" 740 0 basechar 0
AnchorPoint: "up_I" 740 1505 basechar 0
LayerCount: 2
Fore
SplineSet
528 0 m 1
 133 0 l 1
 133 1507 l 1
 785 1507 l 2
 1150 1507 1338 1338 1338 1011 c 0
 1338 684 1150 518 785 518 c 2
 528 518 l 1
 528 0 l 1
528 1180 m 1
 528 846 l 1
 774 846 l 2
 887 846 944 905 944 1013 c 0
 944 1119 888 1180 774 1180 c 2
 528 1180 l 1
EndSplineSet
Substitution2: "'c2sc' Capitals to Small Capitals in Latin lookup 0 subtable" uni1D18
EndChar

StartChar: R
Encoding: 82 82 50
Width: 1418
GlyphClass: 2
Flags: HMW
AnchorPoint: "down_I" 740 0 basechar 0
AnchorPoint: "up_I" 740 1505 basechar 0
LayerCount: 2
Fore
SplineSet
1040 720 m 1
 1422 0 l 1
 1045 0 l 1
 707 720 l 1
 1040 720 l 1
EndSplineSet
Refer: 48 80 N 1 0 0 1 0 0 2
Substitution2: "'c2sc' Capitals to Small Capitals in Latin lookup 0 subtable" uni0280
EndChar

StartChar: S
Encoding: 83 83 51
Width: 1320
GlyphClass: 2
Flags: HMW
AnchorPoint: "down_I" 651 -11 basechar 0
AnchorPoint: "up_I" 668 1515 basechar 0
LayerCount: 2
Fore
SplineSet
80 506 m 1
 467 506 l 1
 467 370 535.201970443 318 680 318 c 0
 784.012269939 318 853 357 853 429 c 0
 853 491 791.079207921 525 641 576 c 0
 280.112840467 703 117 843 117 1070 c 0
 117 1339 338.003690037 1517 669 1517 c 0
 1012.14963504 1517 1227 1335 1227 1033 c 1
 841 1033 l 1
 841 1141 779.666666667 1188 657 1188 c 0
 563.829787234 1188 506 1148 506 1078 c 0
 506 1007 577.008849558 965 742 910 c 0
 1088.95296524 791 1241 663 1241 445 c 0
 1241 168 1002.96551724 -11 651 -11 c 0
 286.618538324 -11 80 169 80 506 c 1
EndSplineSet
Substitution2: "'c2sc' Capitals to Small Capitals in Latin lookup 0 subtable" uniA731
EndChar

StartChar: T
Encoding: 84 84 52
Width: 1330
GlyphClass: 2
Flags: HMW
AnchorPoint: "down_I" 666 0 basechar 0
AnchorPoint: "up_I" 666 1505 basechar 0
LayerCount: 2
Fore
SplineSet
864 0 m 1
 468 0 l 1
 468 1180 l 1
 19 1180 l 1
 19 1507 l 1
 1313 1507 l 1
 1313 1180 l 1
 864 1180 l 1
 864 0 l 1
EndSplineSet
Substitution2: "'c2sc' Capitals to Small Capitals in Latin lookup 0 subtable" uni1D1B
EndChar

StartChar: U
Encoding: 85 85 53
Width: 1525
GlyphClass: 2
Flags: HMW
AnchorPoint: "down_II" 762 -11 basechar 0
AnchorPoint: "down_I" 762 -11 basechar 0
AnchorPoint: "up_II" 1277 1285 basechar 0
AnchorPoint: "up_I" 762 1505 basechar 0
LayerCount: 2
Fore
SplineSet
1013 1507 m 1
 1408 1507 l 1
 1408 558 l 2
 1408 198 1192 -11 764 -11 c 0
 336 -11 119 198 119 558 c 2
 119 1507 l 1
 513 1507 l 1
 513 550 l 2
 513 426 563 338 764 338 c 0
 965 338 1013 426 1013 550 c 2
 1013 1507 l 1
EndSplineSet
Substitution2: "'c2sc' Capitals to Small Capitals in Latin lookup 0 subtable" uni1D1C
EndChar

StartChar: V
Encoding: 86 86 54
Width: 1483
GlyphClass: 2
Flags: HMW
AnchorPoint: "down_I" 740 0 basechar 0
AnchorPoint: "up_I" 740 1505 basechar 0
LayerCount: 2
Fore
SplineSet
748 452 m 1
 1073 1507 l 1
 1497 1507 l 1
 953 0 l 1
 532 0 l 1
 -11 1507 l 1
 411 1507 l 1
 738 452 l 1
 748 452 l 1
EndSplineSet
Substitution2: "'c2sc' Capitals to Small Capitals in Latin lookup 0 subtable" uni1D20
EndChar

StartChar: W
Encoding: 87 87 55
Width: 2008
GlyphClass: 2
Flags: HMW
AnchorPoint: "down_I" 1005 0 basechar 0
AnchorPoint: "up_I" 1005 1505 basechar 0
LayerCount: 2
Fore
SplineSet
1387 588 m 1
 1582 1507 l 1
 1991 1507 l 1
 1588 0 l 1
 1220 0 l 1
 1011 906 l 1
 1001 906 l 1
 789 0 l 1
 422 0 l 1
 20 1507 l 1
 429 1507 l 1
 623 588 l 1
 633 588 l 1
 838 1507 l 1
 1173 1507 l 1
 1377 588 l 1
 1387 588 l 1
EndSplineSet
Substitution2: "'c2sc' Capitals to Small Capitals in Latin lookup 0 subtable" uni1D21
EndChar

StartChar: X
Encoding: 88 88 56
Width: 1461
GlyphClass: 2
Flags: HMW
AnchorPoint: "down_I" 730 0 basechar 0
AnchorPoint: "up_I" 730 1505 basechar 0
LayerCount: 2
Fore
SplineSet
1463 0 m 1
 1002 0 l 1
 732 453 l 1
 461 0 l 1
 -1 0 l 1
 519 751 l 1
 -1 1507 l 1
 461 1507 l 1
 732 1051 l 1
 1002 1507 l 1
 1463 1507 l 1
 944 751 l 1
 1463 0 l 1
EndSplineSet
Substitution2: "'c2sc' Capitals to Small Capitals in Latin lookup 0 subtable" uniA7EF
EndChar

StartChar: Y
Encoding: 89 89 57
Width: 1493
GlyphClass: 2
Flags: HMW
AnchorPoint: "down_I" 747 0 basechar 0
AnchorPoint: "up_I" 747 1505 basechar 0
LayerCount: 2
Fore
SplineSet
1050 1507 m 1
 1507 1507 l 1
 949 655 l 1
 949 0 l 1
 551 0 l 1
 551 655 l 1
 -11 1507 l 1
 448 1507 l 1
 751 966 l 1
 1050 1507 l 1
EndSplineSet
Substitution2: "'c2sc' Capitals to Small Capitals in Latin lookup 0 subtable" uni028F
EndChar

StartChar: Z
Encoding: 90 90 58
Width: 1228
GlyphClass: 2
Flags: HMW
AnchorPoint: "down_I" 615 0 basechar 0
AnchorPoint: "up_I" 615 1505 basechar 0
LayerCount: 2
Fore
SplineSet
49 1179 m 1
 49 1507 l 1
 1181 1507 l 1
 1181 1249 l 1
 500 326 l 1
 1181 326 l 1
 1181 0 l 1
 49 0 l 1
 49 255 l 1
 733 1179 l 1
 49 1179 l 1
EndSplineSet
Substitution2: "'c2sc' Capitals to Small Capitals in Latin lookup 0 subtable" uni1D22
EndChar

StartChar: bracketleft
Encoding: 91 91 59
Width: 714
GlyphClass: 2
Flags: HMW
LayerCount: 2
Fore
SplineSet
657 161 m 1
 657 -138 l 1
 78 -138 l 1
 78 1617 l 1
 657 1617 l 1
 657 1318 l 1
 392 1318 l 1
 392 161 l 1
 657 161 l 1
EndSplineSet
Position2: "SinglePositioning1 subtable" dx=0 dy=0 dh=200 dv=0
EndChar

StartChar: backslash
Encoding: 92 92 60
Width: 1155
GlyphClass: 2
Flags: HMW
LayerCount: 2
Fore
SplineSet
1128 0 m 1
 705 0 l 1
 27 1507 l 1
 452 1507 l 1
 1128 0 l 1
EndSplineSet
EndChar

StartChar: bracketright
Encoding: 93 93 61
Width: 715
GlyphClass: 2
Flags: HMW
LayerCount: 2
Fore
SplineSet
58 1319 m 1
 58 1617 l 1
 637 1617 l 1
 637 -138 l 1
 58 -138 l 1
 58 161 l 1
 323 161 l 1
 323 1319 l 1
 58 1319 l 1
EndSplineSet
Position2: "SinglePositioning1 subtable" dx=0 dy=0 dh=200 dv=0
EndChar

StartChar: asciicircum
Encoding: 94 94 62
Width: 733
GlyphClass: 2
Flags: HMW
LayerCount: 2
Fore
SplineSet
709 1137 m 1
 446 1137 l 1
 368 1348 l 1
 291 1137 l 1
 27 1137 l 1
 134 1494 l 1
 601 1494 l 1
 709 1137 l 1
EndSplineSet
EndChar

StartChar: underscore
Encoding: 95 95 63
Width: 1203
GlyphClass: 2
Flags: HMW
LayerCount: 2
Fore
SplineSet
1106 0 m 1
 1106 -374 l 1
 100 -374 l 1
 100 0 l 1
 1106 0 l 1
EndSplineSet
Position2: "SinglePositioning1 subtable" dx=0 dy=0 dh=200 dv=0
EndChar

StartChar: grave
Encoding: 96 96 64
Width: 469
GlyphClass: 2
Flags: HMW
LayerCount: 2
Fore
SplineSet
419 1137 m 1
 206 1137 l 1
 52 1494 l 1
 310 1494 l 1
 419 1137 l 1
EndSplineSet
EndChar

StartChar: a
Encoding: 97 97 65
Width: 1193
GlyphClass: 2
Flags: HMW
AnchorPoint: "down_II" 985 3 basechar 0
AnchorPoint: "down_I" 388 -11 basechar 0
AnchorPoint: "up_I" 572 1146 basechar 0
LayerCount: 2
Back
SplineSet
740 0 m 1
 704 75 686 158 686 266 c 2
 686 743 l 2
 686 818 644 852 553 852 c 0
 461 852 418 818 418 743 c 1
 86 743 l 1
 66 1001 243 1148 573 1148 c 0
 894 1148 1082 999 1082 743 c 2
 1082 274 l 2
 1082 174 1098 95 1137 19 c 1
 1124 0 l 1
 740 0 l 1
EndSplineSet
Fore
SplineSet
573 1149 m 0
 895 1149 1082 999 1082 743 c 2
 1082 311 l 2
 1082 248 1104 221 1138 221 c 1
 1138 0 l 1
 859 -63 686 65 686 315 c 2
 686 743 l 2
 686 818 644 853 552 853 c 0
 459 853 419 818 419 743 c 1
 85 743 l 1
 65 1001 242 1149 573 1149 c 0
EndSplineSet
Refer: 1197 57355 N 1 0 0 1 -14 0 2
Substitution2: "'smcp' Lowercase to Small Capitals in Latin lookup 0 subtable" uni1D00
EndChar

StartChar: b
Encoding: 98 98 66
Width: 1214
GlyphClass: 2
Flags: HMW
AnchorPoint: "down_I" 764 -9 basechar 0
AnchorPoint: "up_I" 764 1511 basechar 0
LayerCount: 2
Fore
SplineSet
511 0 m 1
 117 0 l 1
 117 1563 l 1
 511 1563 l 1
 511 0 l 1
EndSplineSet
Refer: 1201 57359 N 1 0 0 1 81 0 2
Substitution2: "'smcp' Lowercase to Small Capitals in Latin lookup 0 subtable" uni0299
EndChar

StartChar: c
Encoding: 99 99 67
Width: 1211
GlyphClass: 2
Flags: HMW
AnchorPoint: "down_I" 607 -9 basechar 0
AnchorPoint: "up_I" 607 1145 basechar 0
LayerCount: 2
Fore
SplineSet
608 1147 m 0
 947 1147 1126 945 1126 675 c 1
 744 676 l 1
 744 771 703 845 607 845 c 0
 488 845 456 714 456 572 c 0
 456 427 485 294 607 294 c 0
 703 294 744 370 744 463 c 1
 1126 463 l 1
 1126 196 948 -9 608 -9 c 0
 245 -9 59 214 59 569 c 0
 59 924 245 1147 608 1147 c 0
EndSplineSet
Substitution2: "'smcp' Lowercase to Small Capitals in Latin lookup 0 subtable" uni1D04
EndChar

StartChar: d
Encoding: 100 100 68
Width: 1200
GlyphClass: 2
Flags: HMW
AnchorPoint: "down_I" 441 -10 basechar 0
AnchorPoint: "up_II" 1086 1561 basechar 0
AnchorPoint: "up_I" 441 1511 basechar 0
LayerCount: 2
Fore
SplineSet
1089 1565 m 25
 1089 311 l 2
 1089 248 1111 221 1145 221 c 1
 1145 0 l 1
 866 -63 693 65 693 315 c 2
 693 1565 l 1
 1089 1565 l 25
EndSplineSet
Refer: 1213 57372 N 1 0 0 1 -264 0 2
Substitution2: "'smcp' Lowercase to Small Capitals in Latin lookup 0 subtable" uni1D05
EndChar

StartChar: e
Encoding: 101 101 69
Width: 1204
GlyphClass: 2
Flags: HMW
AnchorPoint: "down_II" 600 -11 basechar 0
AnchorPoint: "down_I" 600 -11 basechar 0
AnchorPoint: "up_I" 597 1145 basechar 0
LayerCount: 2
Fore
SplineSet
462 458 m 1
 473 351 523 294 616 294 c 0
 666 294 707 315 728 364 c 1
 1134 364 l 1
 1081 150 893 -11 601 -11 c 0
 255 -11 60 209 60 568 c 0
 60 924 256 1147 598 1147 c 0
 1004 1147 1177 892 1150 458 c 1
 462 458 l 1
464 672 m 1
 749 672 l 1
 749 781 694 845 603 845 c 0
 521 845 464 776 464 672 c 1
EndSplineSet
Substitution2: "'smcp' Lowercase to Small Capitals in Latin lookup 0 subtable" uni1D07
EndChar

StartChar: f
Encoding: 102 102 70
Width: 781
GlyphClass: 2
Flags: HMW
AnchorPoint: "down_I" 352 0 basechar 0
AnchorPoint: "up_I" 533 1560 basechar 0
LayerCount: 2
Fore
SplineSet
819 1509 m 1
 769 1264 l 1
 736 1270 686 1278 654 1278 c 0
 593 1278 552 1251 552 1192 c 2
 552 0 l 1
 155 0 l 1
 155 1239 l 2
 155 1473 329 1562 532 1562 c 0
 631 1562 732 1538 819 1509 c 1
EndSplineSet
Refer: 1196 57354 N 1 0 0 1 -59 309 2
Substitution2: "'smcp' Lowercase to Small Capitals in Latin lookup 0 subtable" uniA730
EndChar

StartChar: g
Encoding: 103 103 71
Width: 1213
GlyphClass: 2
Flags: HMW
AnchorPoint: "down_I" 590 -471 basechar 0
AnchorPoint: "up_I" 441 1144 basechar 0
LayerCount: 2
Fore
SplineSet
591 -471 m 0
 266 -471 101 -339 101 -85 c 1
 435 -85 l 1
 435 -150 472 -175 570 -175 c 0
 666 -175 703 -145 703 -70 c 2
 703 1137 l 1
 1099 1137 l 1
 1099 -70 l 2
 1099 -321 910 -471 591 -471 c 0
EndSplineSet
Refer: 1213 57372 N 1 0 0 1 -264 0 2
Substitution2: "'ss01' Style Set 1 in Latin lookup 24 subtable" g.alt
Substitution2: "'smcp' Lowercase to Small Capitals in Latin lookup 0 subtable" uni0262
Position2: "SinglePositioning1 subtable" dx=0 dy=0 dh=200 dv=0
EndChar

StartChar: h
Encoding: 104 104 72
Width: 1274
GlyphClass: 2
Flags: HMW
AnchorPoint: "down_I" 637 0 basechar 0
AnchorPoint: "up_I" 811 1511 basechar 0
LayerCount: 2
Fore
SplineSet
495 0 m 1
 100 0 l 1
 100 1564 l 1
 495 1564 l 1
 495 0 l 1
EndSplineSet
Refer: 1199 57357 N 1 0 0 1 81 0 2
Substitution2: "'smcp' Lowercase to Small Capitals in Latin lookup 0 subtable" uni029C
EndChar

StartChar: k
Encoding: 107 107 75
Width: 1328
GlyphClass: 2
Flags: HMW
AnchorPoint: "down_I" 657 0 basechar 0
AnchorPoint: "up_I" 875 1561 basechar 0
LayerCount: 2
Fore
SplineSet
791 1137 m 1
 1281 1137 l 1
 877 621 l 1
 1321 0 l 1
 830 0 l 1
 533 493 l 1
 509 493 l 1
 509 0 l 1
 117 0 l 1
 117 1564 l 1
 509 1564 l 1
 509 706 l 1
 534 706 l 1
 791 1137 l 1
EndSplineSet
Substitution2: "'smcp' Lowercase to Small Capitals in Latin lookup 0 subtable" uni1D0B
EndChar

StartChar: l
Encoding: 108 108 76
Width: 653
GlyphClass: 2
Flags: HMW
AnchorPoint: "middle_dot_I" 652 896 basechar 0
AnchorPoint: "down_I" 326 0 basechar 0
AnchorPoint: "up_II" 521 1561 basechar 0
AnchorPoint: "up_I" 326 1561 basechar 0
LayerCount: 2
Fore
SplineSet
525 0 m 1
 130 0 l 1
 130 1564 l 1
 525 1564 l 1
 525 0 l 1
EndSplineSet
Substitution2: "'smcp' Lowercase to Small Capitals in Latin lookup 0 subtable" uni029F
EndChar

StartChar: m
Encoding: 109 109 77
Width: 1979
GlyphClass: 2
Flags: HMW
AnchorPoint: "down_I" 989 0 basechar 0
AnchorPoint: "up_I" 1179 1146 basechar 0
LayerCount: 2
Fore
SplineSet
121 1137 m 1
 496 1137 l 1
 517 889 l 1
 517 0 l 1
 121 0 l 1
 121 1137 l 1
EndSplineSet
Refer: 1198 57356 N 1 0 0 1 -490 0 2
Refer: 1198 57356 N 1 0 0 1 185 0 2
Substitution2: "'smcp' Lowercase to Small Capitals in Latin lookup 0 subtable" uni1D0D
EndChar

StartChar: n
Encoding: 110 110 78
Width: 1274
GlyphClass: 2
Flags: HMW
AnchorPoint: "down_I" 634 0 basechar 0
AnchorPoint: "up_I" 811 1145 basechar 0
LayerCount: 2
Fore
SplineSet
495 0 m 1
 100 0 l 1
 100 1137 l 1
 475 1137 l 1
 495 889 l 1
 495 0 l 1
EndSplineSet
Refer: 1199 57357 N 1 0 0 1 81 0 2
Substitution2: "'smcp' Lowercase to Small Capitals in Latin lookup 0 subtable" uni0274
EndChar

StartChar: o
Encoding: 111 111 79
Width: 1212
GlyphClass: 2
Flags: HMW
AnchorPoint: "down_II" 606 -11 basechar 0
AnchorPoint: "down_I" 606 -11 basechar 0
AnchorPoint: "up_II" 704 914 basechar 0
AnchorPoint: "up_I" 606 1145 basechar 0
LayerCount: 2
Fore
SplineSet
607 845 m 0
 508 845 455 748 455 568 c 0
 455 386 506 291 607 291 c 0
 708 291 759 386 759 568 c 0
 759 748 706 845 607 845 c 0
607 1147 m 0
 956 1147 1153 937 1153 568 c 0
 1153 200 954 -11 607 -11 c 0
 260 -11 60 200 60 568 c 0
 60 937 258 1147 607 1147 c 0
EndSplineSet
Substitution2: "'smcp' Lowercase to Small Capitals in Latin lookup 0 subtable" uni1D0F
EndChar

StartChar: p
Encoding: 112 112 80
Width: 1204
GlyphClass: 2
Flags: HMW
AnchorPoint: "down_I" 764 -9 basechar 0
AnchorPoint: "up_I" 764 1145 basechar 0
LayerCount: 2
Fore
SplineSet
117 1137 m 1
 511 1137 l 1
 511 -428 l 1
 117 -428 l 1
 117 1137 l 1
EndSplineSet
Refer: 1201 57359 N 1 0 0 1 81 0 2
Substitution2: "'smcp' Lowercase to Small Capitals in Latin lookup 0 subtable" uni1D18
EndChar

StartChar: q
Encoding: 113 113 81
Width: 1202
GlyphClass: 2
Flags: HMW
AnchorPoint: "down_I" 441 -10 basechar 0
AnchorPoint: "up_I" 441 1144 basechar 0
LayerCount: 2
Fore
SplineSet
693 1137 m 1
 1089 1137 l 1
 1089 -438 l 1
 693 -438 l 1
 693 1137 l 1
EndSplineSet
Refer: 1213 57372 N 1 0 0 1 -264 0 2
Substitution2: "'smcp' Lowercase to Small Capitals in Latin lookup 0 subtable" uniA7EE
Position2: "SinglePositioning1 subtable" dx=0 dy=0 dh=200 dv=0
EndChar

StartChar: r
Encoding: 114 114 82
Width: 939
GlyphClass: 2
Flags: HMW
AnchorPoint: "down_I" 308 0 basechar 0
AnchorPoint: "up_I" 610 1135 basechar 0
LayerCount: 2
Fore
SplineSet
117 1137 m 1
 491 1137 l 1
 511 890 l 1
 511 0 l 1
 117 0 l 1
 117 1137 l 1
EndSplineSet
Refer: 1200 57358 N 1 0 0 1 0 0 2
Substitution2: "'smcp' Lowercase to Small Capitals in Latin lookup 0 subtable" uni0280
EndChar

StartChar: s
Encoding: 115 115 83
Width: 1092
GlyphClass: 2
Flags: HMW
AnchorPoint: "down_I" 534 -10 basechar 0
AnchorPoint: "up_I" 548 1146 basechar 0
LayerCount: 2
Fore
SplineSet
550 1148 m 0
 859 1148 1034 998 1017 727 c 1
 709 738 l 1
 709 815 638 852 552 852 c 0
 471 852 420 824 420 778 c 0
 420 735 458 714 590 685 c 0
 891 619 1030 511 1030 341 c 0
 1030 133 827 -10 534 -10 c 0
 221 -10 35 132 50 412 c 1
 360 400 l 1
 360 323 434 286 547 286 c 0
 635 286 676 304 676 345 c 0
 676 392 627 418 478 451 c 0
 192 513 69 617 69 792 c 0
 69 1008 258 1148 550 1148 c 0
EndSplineSet
Substitution2: "'smcp' Lowercase to Small Capitals in Latin lookup 0 subtable" uniA731
EndChar

StartChar: t
Encoding: 116 116 84
Width: 791
GlyphClass: 2
Flags: HMW
AnchorPoint: "down_I" 539 -11 basechar 0
AnchorPoint: "up_II" 784 1425 basechar 0
AnchorPoint: "up_I" 358 1425 basechar 0
LayerCount: 2
Fore
SplineSet
775 289 m 1
 826 42 l 1
 739 13 637 -11 538 -11 c 0
 335 -11 161 79 161 313 c 2
 161 1427 l 1
 558 1427 l 1
 558 359 l 2
 558 300 599 274 660 274 c 0
 693 274 739 281 775 289 c 1
EndSplineSet
Refer: 1196 57354 N 1 0 0 1 -45 309 2
Substitution2: "'smcp' Lowercase to Small Capitals in Latin lookup 0 subtable" uni1D1B
EndChar

StartChar: u
Encoding: 117 117 85
Width: 1288
GlyphClass: 2
Flags: HMW
AnchorPoint: "down_II" 1080 3 basechar 0
AnchorPoint: "down_I" 463 -10 basechar 0
AnchorPoint: "up_II" 1025 914 basechar 0
AnchorPoint: "up_I" 640 1135 basechar 0
LayerCount: 2
Fore
SplineSet
1177 1137 m 25
 1177 311 l 2
 1177 248 1199 221 1233 221 c 1
 1233 0 l 1
 954 -63 781 65 781 315 c 2
 781 1137 l 1
 1177 1137 l 25
EndSplineSet
Refer: 1199 57357 N -1 0 0 -1 1196 1137 2
Substitution2: "'smcp' Lowercase to Small Capitals in Latin lookup 0 subtable" uni1D1C
EndChar

StartChar: v
Encoding: 118 118 86
Width: 1222
GlyphClass: 2
Flags: HMW
AnchorPoint: "down_I" 612 0 basechar 0
AnchorPoint: "up_I" 612 1135 basechar 0
LayerCount: 2
Fore
SplineSet
620 423 m 1
 813 1137 l 1
 1236 1137 l 1
 840 0 l 1
 391 0 l 1
 -12 1137 l 1
 413 1137 l 1
 610 423 l 1
 620 423 l 1
EndSplineSet
Substitution2: "'smcp' Lowercase to Small Capitals in Latin lookup 0 subtable" uni1D20
EndChar

StartChar: w
Encoding: 119 119 87
Width: 1691
GlyphClass: 2
Flags: HMW
AnchorPoint: "down_I" 846 0 basechar 0
AnchorPoint: "up_I" 846 1135 basechar 0
LayerCount: 2
Fore
SplineSet
1148 486 m 1
 1308 1137 l 1
 1676 1137 l 1
 1382 0 l 1
 992 0 l 1
 852 563 l 1
 842 563 l 1
 703 0 l 1
 313 0 l 1
 20 1137 l 1
 387 1137 l 1
 549 486 l 1
 559 486 l 1
 703 1138 l 1
 991 1138 l 1
 1138 486 l 1
 1148 486 l 1
EndSplineSet
Substitution2: "'smcp' Lowercase to Small Capitals in Latin lookup 0 subtable" uni1D21
EndChar

StartChar: x
Encoding: 120 120 88
Width: 1189
GlyphClass: 2
Flags: HMW
AnchorPoint: "down_I" 595 0 basechar 0
AnchorPoint: "up_I" 595 1135 basechar 0
LayerCount: 2
Fore
SplineSet
738 1137 m 1
 1193 1137 l 1
 832 546 l 1
 1193 0 l 1
 738 0 l 1
 596 274 l 1
 455 0 l 1
 -1 0 l 1
 360 546 l 1
 -1 1137 l 1
 455 1137 l 1
 596 820 l 1
 738 1137 l 1
EndSplineSet
Substitution2: "'smcp' Lowercase to Small Capitals in Latin lookup 0 subtable" uniA7EF
EndChar

StartChar: y
Encoding: 121 121 89
Width: 1222
GlyphClass: 2
Flags: HMW
AnchorPoint: "down_I" 610 -461 basechar 0
AnchorPoint: "up_I" 612 1135 basechar 0
LayerCount: 2
Fore
SplineSet
-12 1137 m 5
 414 1137 l 5
 610 373 l 5
 620 373 l 5
 813 1137 l 5
 1236 1137 l 5
 819 -55 l 6
 718 -343 572 -471 342 -471 c 6
 32 -471 l 5
 32 -155 l 5
 206 -155 l 6
 311 -155 380 -117 405 -46 c 6
 421 1 l 5
 -12 1137 l 5
EndSplineSet
Substitution2: "'smcp' Lowercase to Small Capitals in Latin lookup 0 subtable" uni028F
EndChar

StartChar: z
Encoding: 122 122 90
Width: 1114
GlyphClass: 2
Flags: HMW
AnchorPoint: "down_I" 575 0 basechar 0
AnchorPoint: "up_I" 575 1135 basechar 0
LayerCount: 2
Fore
SplineSet
86 810 m 1
 86 1137 l 1
 1020 1137 l 1
 1020 879 l 1
 547 326 l 1
 1020 326 l 1
 1020 0 l 1
 86 0 l 1
 86 259 l 1
 559 810 l 1
 86 810 l 1
EndSplineSet
Substitution2: "'smcp' Lowercase to Small Capitals in Latin lookup 0 subtable" uni1D22
EndChar

StartChar: braceleft
Encoding: 123 123 91
Width: 983
GlyphClass: 2
Flags: HMW
LayerCount: 2
Fore
SplineSet
854 1617 m 1
 854 1318 l 1
 712 1318 l 2
 671 1318 640 1292 640 1250 c 2
 640 1060 l 2
 640 933 549 775 413 744 c 1
 413 734 l 1
 548 702 640 546 640 419 c 2
 640 230 l 2
 640 188 671 161 712 161 c 2
 854 161 l 1
 854 -138 l 1
 664 -138 l 2
 471 -138 327 6 327 188 c 2
 327 419 l 2
 327 506 268 591 197 597 c 2
 101 605 l 1
 101 874 l 1
 197 882 l 2
 268 887 327 973 327 1060 c 2
 327 1290 l 2
 327 1472 470 1617 664 1617 c 2
 854 1617 l 1
EndSplineSet
Position2: "SinglePositioning1 subtable" dx=0 dy=0 dh=200 dv=0
EndChar

StartChar: bar
Encoding: 124 124 92
Width: 674
GlyphClass: 2
Flags: HMW
LayerCount: 2
Fore
SplineSet
180 1565 m 1
 494 1565 l 1
 494 -471 l 1
 180 -471 l 1
 180 1565 l 1
EndSplineSet
EndChar

StartChar: braceright
Encoding: 125 125 93
Width: 983
GlyphClass: 2
Flags: HMW
LayerCount: 2
Fore
SplineSet
131 -138 m 1
 131 161 l 1
 271 161 l 2
 312 161 344 188 344 230 c 2
 344 420 l 2
 344 547 435 703 571 734 c 1
 571 744 l 1
 436 776 344 932 344 1059 c 2
 344 1250 l 2
 344 1292 312 1319 271 1319 c 2
 131 1319 l 1
 131 1617 l 1
 321 1617 l 2
 514 1617 658 1472 658 1290 c 2
 658 1059 l 2
 658 972 717 888 788 881 c 2
 884 873 l 1
 884 605 l 1
 788 596 l 2
 717 591 658 507 658 420 c 2
 658 188 l 2
 658 6 515 -138 321 -138 c 2
 131 -138 l 1
EndSplineSet
EndChar

StartChar: asciitilde
Encoding: 126 126 94
Width: 1213
GlyphClass: 2
Flags: HMW
LayerCount: 2
Fore
SplineSet
80 635 m 1
 145 874 261 1000 418 1000 c 0
 469 1000 519 982 597 932 c 0
 674 884 718 866 764 866 c 0
 828 866 865 908 895 1014 c 1
 1133 954 l 1
 1076 687 978 571 807 571 c 0
 741 571 670 595 582 647 c 0
 523 681 485 696 456 696 c 0
 392 696 361 660 323 544 c 1
 80 635 l 1
EndSplineSet
EndChar

StartChar: sterling
Encoding: 163 163 98
Width: 1327
GlyphClass: 2
Flags: HMW
LayerCount: 2
Fore
SplineSet
707 1189 m 0
 649 1189 624 1148 624 1065 c 2
 624 475 l 2
 624 407 613 383 568 336 c 1
 568 326 l 1
 1232 326 l 1
 1232 0 l 1
 101 0 l 1
 101 326 l 1
 202 326 228 334 228 373 c 2
 228 1065 l 2
 228 1342 414 1517 707 1517 c 0
 1024 1517 1186 1363 1186 1065 c 1
 795 1065 l 1
 795 1150 766 1189 707 1189 c 0
EndSplineSet
Refer: 1196 57354 N 1 0 0 1 39 19 2
EndChar

StartChar: currency
Encoding: 164 164 99
Width: 1432
GlyphClass: 2
Flags: HMW
LayerCount: 2
Fore
SplineSet
893 94 m 1
 1106 289 l 1
 1360 24 l 1
 1148 -170 l 1
 893 94 l 1
329 289 m 1
 541 94 l 1
 287 -170 l 1
 75 24 l 1
 329 289 l 1
1106 795 m 1
 893 990 l 1
 1148 1254 l 1
 1360 1062 l 1
 1106 795 l 1
541 990 m 1
 329 795 l 1
 75 1062 l 1
 287 1254 l 1
 541 990 l 1
EndSplineSet
Refer: 79 111 N 1 0 0 1 113 0 2
EndChar

StartChar: brokenbar
Encoding: 166 166 101
Width: 469
GlyphClass: 2
Flags: HMW
LayerCount: 2
Fore
SplineSet
433 882 m 1
 40 882 l 1
 40 1507 l 1
 433 1507 l 1
 433 882 l 1
433 0 m 1
 40 0 l 1
 40 648 l 1
 433 648 l 1
 433 0 l 1
EndSplineSet
EndChar

StartChar: section
Encoding: 167 167 102
Width: 1042
GlyphClass: 2
Flags: HMW
LayerCount: 2
Fore
SplineSet
821 543 m 1
 924 496 967 430 967 312 c 0
 967 113 777 -28 506 -28 c 0
 336 -28 192 5 52 79 c 1
 183 377 l 1
 319 309 420 280 521 280 c 0
 599 280 630 295 630 328 c 0
 630 364 598 382 495 403 c 0
 241 452 119 546 119 695 c 0
 119 813 162 896 253 943 c 1
 253 953 l 1
 156 1003 107 1077 107 1171 c 0
 107 1377 286 1523 545 1523 c 0
 667 1523 783 1493 906 1430 c 1
 801 1183 l 1
 704 1216 619 1235 563 1235 c 0
 483 1235 447 1214 447 1172 c 0
 447 1137 472 1122 567 1100 c 0
 839 1044 956 948 956 788 c 0
 956 691 906 602 821 553 c 1
 821 543 l 1
530 669 m 1
 588 670 626 704 626 747 c 0
 626 788 594 816 541 821 c 1
 483 821 440 781 440 735 c 0
 440 696 474 674 530 669 c 1
EndSplineSet
EndChar

StartChar: dieresis
Encoding: 168 168 103
Width: 835
GlyphClass: 2
Flags: HMW
LayerCount: 2
Fore
SplineSet
58 1287 m 0
 58 1370 130 1434 213 1434 c 0
 296 1434 366 1370 366 1287 c 0
 366 1204 296 1136 213 1136 c 0
 130 1136 58 1204 58 1287 c 0
470 1287 m 0
 470 1370 542 1434 625 1434 c 0
 708 1434 779 1370 779 1287 c 0
 779 1204 708 1136 625 1136 c 0
 542 1136 470 1204 470 1287 c 0
EndSplineSet
EndChar

StartChar: copyright
Encoding: 169 169 104
Width: 1727
GlyphClass: 2
Flags: HMW
LayerCount: 2
Fore
SplineSet
385 725 m 0
 385 445 612 233 866 233 c 0
 1120 233 1348 445 1348 725 c 0
 1348 1004 1120 1214 866 1214 c 0
 612 1214 385 1004 385 725 c 0
111 725 m 0
 111 1127 441 1465 866 1465 c 0
 1291 1465 1621 1127 1621 725 c 0
 1621 324 1292 -20 866 -20 c 0
 440 -20 111 324 111 725 c 0
1128 936 m 1
 1029 849 l 1
 984 907 924 929 870 929 c 0
 768 929 693 845 693 725 c 0
 693 605 768 520 870 520 c 0
 924 520 984 541 1029 599 c 1
 1128 512 l 1
 1053 422 979 376 858 376 c 0
 654 376 530 549 530 725 c 0
 530 901 654 1074 858 1074 c 0
 979 1074 1053 1026 1128 936 c 1
EndSplineSet
EndChar

StartChar: ordfeminine
Encoding: 170 170 105
Width: 785
GlyphClass: 2
Flags: HMW
LayerCount: 2
Fore
SplineSet
460 1548 m 1
 460 1594 l 2
 460 1636 439 1663 378 1663 c 0
 318 1663 297 1638 297 1594 c 1
 93 1594 l 1
 82 1743 179 1840 391 1840 c 0
 608 1840 702 1737 702 1594 c 2
 702 1322 l 2
 702 1289 714 1273 750 1273 c 1
 750 1131 l 1
 631 1109 525 1134 482 1223 c 1
 440 1160 376 1126 278 1126 c 0
 158 1126 80 1195 80 1317 c 0
 80 1473 222 1548 364 1548 c 2
 460 1548 l 1
460 1411 m 1
 403 1411 l 2
 339 1411 290 1383 290 1341 c 0
 290 1313 310 1294 351 1294 c 0
 395 1294 436 1313 460 1337 c 1
 460 1411 l 1
EndSplineSet
EndChar

StartChar: guillemotleft
Encoding: 171 171 106
Width: 957
GlyphClass: 2
Flags: HMW
LayerCount: 2
Fore
SplineSet
459 764 m 0
 459 967 581 1136 759 1276 c 1
 920 1087 l 1
 804 991 717 894 717 764 c 0
 717 634 804 538 920 442 c 1
 759 251 l 1
 581 391 459 561 459 764 c 0
40 764 m 0
 40 980 115 1164 276 1353 c 1
 485 1187 l 1
 386 1061 319 921 319 764 c 0
 319 607 386 467 485 341 c 1
 276 176 l 1
 115 365 40 548 40 764 c 0
EndSplineSet
Substitution2: "'locl' Localized Forms in Latin lookup 6 subtable" guillemotleft.alt
Position2: "SinglePositioning1 subtable" dx=0 dy=0 dh=200 dv=0
EndChar

StartChar: logicalnot
Encoding: 172 172 107
Width: 1081
GlyphClass: 2
Flags: HMW
LayerCount: 2
Fore
SplineSet
65 505 m 1
 65 784 l 1
 933 784 l 1
 933 254 l 1
 654 254 l 1
 654 505 l 1
 65 505 l 1
EndSplineSet
EndChar

StartChar: uni00AD
Encoding: 173 173 108
Width: 1083
GlyphClass: 2
Flags: HMW
LayerCount: 2
Fore
SplineSet
987 784 m 1
 987 505 l 1
 99 505 l 1
 99 784 l 1
 987 784 l 1
EndSplineSet
EndChar

StartChar: registered
Encoding: 174 174 109
Width: 1727
GlyphClass: 2
Flags: HMW
LayerCount: 2
Fore
SplineSet
385 725 m 0
 385 445 612 233 866 233 c 0
 1120 233 1348 445 1348 725 c 0
 1348 1004 1120 1214 866 1214 c 0
 612 1214 385 1004 385 725 c 0
111 725 m 0
 111 1127 441 1465 866 1465 c 0
 1291 1465 1621 1127 1621 725 c 0
 1621 324 1292 -20 866 -20 c 0
 440 -20 111 324 111 725 c 0
1170 408 m 1
 968 408 l 1
 838 570 l 1
 832 570 828 570 820 570 c 1
 776 570 l 1
 776 406 l 1
 629 406 l 1
 629 1070 l 1
 879 1070 l 2
 1033 1070 1166 966 1166 820 c 0
 1166 720 1102 640 1015 599 c 1
 1170 408 l 1
776 713 m 1
 879 713 l 2
 947 713 1001 755 1001 820 c 0
 1001 886 947 928 879 928 c 2
 776 928 l 1
 776 713 l 1
EndSplineSet
EndChar

StartChar: macron
Encoding: 175 175 110
Width: 925
GlyphClass: 2
Flags: HMW
LayerCount: 2
Fore
SplineSet
868 1363 m 1
 868 1136 l 1
 58 1136 l 1
 58 1363 l 1
 868 1363 l 1
EndSplineSet
EndChar

StartChar: degree
Encoding: 176 176 111
Width: 677
GlyphClass: 2
Flags: HMW
LayerCount: 2
Fore
SplineSet
470 1415 m 0
 470 1489 412 1544 338 1544 c 0
 264 1544 212 1489 212 1415 c 0
 212 1341 264 1286 338 1286 c 0
 412 1286 470 1341 470 1415 c 0
620 1415 m 0
 620 1260 493 1136 338 1136 c 0
 183 1136 58 1260 58 1415 c 0
 58 1570 183 1694 338 1694 c 0
 493 1694 620 1570 620 1415 c 0
EndSplineSet
EndChar

StartChar: uni00B2
Encoding: 178 178 113
Width: 677
GlyphClass: 2
Flags: HMW
LayerCount: 2
Fore
SplineSet
37 1082 m 1
 37 1279 l 1
 380 1526 l 2
 427 1560 440 1578 440 1607 c 0
 440 1664 399 1702 339 1702 c 0
 273 1702 238 1666 238 1600 c 1
 29 1600 l 1
 29 1784 153 1910 336 1910 c 0
 512 1910 650 1791 650 1640 c 0
 650 1549 594 1466 480 1388 c 2
 335 1288 l 1
 335 1278 l 1
 645 1278 l 1
 645 1082 l 1
 37 1082 l 1
EndSplineSet
EndChar

StartChar: uni00B3
Encoding: 179 179 114
Width: 712
GlyphClass: 2
Flags: HMW
LayerCount: 2
Fore
SplineSet
335.875976562 1910 m 0
 512.981445312 1910 632 1801.34011112 632 1662.91015625 c 0
 632 1580.35543848 581 1526 507 1504 c 1
 507 1493 l 1
 589 1470 647 1403 647 1315.93359375 c 0
 647 1171 529.064618472 1078 335.380859375 1078 c 0
 133.122154822 1078 22 1176.22181529 22 1355 c 1
 251 1355 l 1
 251 1308.22708318 285.615901754 1279 341.012695312 1279 c 0
 391.695074422 1279 423 1303.48313279 423 1343.12109375 c 0
 423 1388.75210437 381.485241439 1412 300 1412 c 2
 234 1412 l 1
 234 1576 l 1
 300 1576 l 2
 364.920458955 1576 393 1593.23038622 393 1633.06738281 c 0
 393 1672.8292449 365.029016052 1697 319.015625 1697 c 0
 274.305633479 1697 249 1674.23001245 249 1634 c 1
 44 1634 l 1
 44 1808.16543037 164.3125 1910 335.875976562 1910 c 0
EndSplineSet
EndChar

StartChar: acute
Encoding: 180 180 115
Width: 469
GlyphClass: 2
Flags: HMW
LayerCount: 2
Fore
SplineSet
161 1494 m 1
 419 1494 l 1
 266 1137 l 1
 52 1137 l 1
 161 1494 l 1
EndSplineSet
EndChar

StartChar: mu
Encoding: 181 181 116
Width: 1288
GlyphClass: 2
Flags: HMW
LayerCount: 2
Fore
SplineSet
109 1137 m 1
 504 1137 l 1
 504 -425 l 1
 109 -425 l 1
 109 1137 l 1
EndSplineSet
Refer: 85 117 N 1 0 0 1 0 0 2
EndChar

StartChar: paragraph
Encoding: 182 182 117
Width: 1484
GlyphClass: 2
Flags: HMW
LayerCount: 2
Fore
SplineSet
1367 -461 m 1
 1088 -461 l 1
 1088 1170 l 1
 978 1170 l 1
 978 -461 l 1
 697 -461 l 1
 697 303 l 1
 636 303 l 2
 293 303 99 576 99 902 c 0
 99 1228 292 1508 636 1508 c 2
 1367 1508 l 1
 1367 -461 l 1
EndSplineSet
EndChar

StartChar: periodcentered
Encoding: 183 183 118
Width: 581
GlyphClass: 2
Flags: HMW
LayerCount: 2
Fore
SplineSet
99 757 m 0
 99 861 189 941 292 941 c 0
 395 941 484 861 484 757 c 0
 484 653 395 567 292 567 c 0
 189 567 99 653 99 757 c 0
EndSplineSet
EndChar

StartChar: cedilla
Encoding: 184 184 119
Width: 614
GlyphClass: 2
Flags: HMW
LayerCount: 2
Fore
SplineSet
578 -262 m 0
 578 -416 454 -508 257 -508 c 0
 176 -508 104 -495 38 -461 c 1
 110 -289 l 1
 149 -304 210 -316 260 -316 c 0
 326 -316 362 -299 362 -271 c 0
 362 -238 314 -217 226 -217 c 0
 203 -217 180 -218 157 -221 c 1
 157 1 l 1
 306 1 l 1
 306 -54 l 1
 482 -54 578 -127 578 -262 c 0
EndSplineSet
EndChar

StartChar: uni00B9
Encoding: 185 185 120
Width: 602
GlyphClass: 2
Flags: HMW
LayerCount: 2
Fore
SplineSet
56 1549 m 1
 56 1735 l 1
 291 1735 l 1
 291 1903 l 1
 512 1903 l 1
 512 1082 l 1
 291 1082 l 1
 291 1549 l 1
 56 1549 l 1
EndSplineSet
EndChar

StartChar: guillemotright
Encoding: 187 187 122
Width: 957
GlyphClass: 2
Flags: HMW
LayerCount: 2
Fore
SplineSet
500 764 m 0
 500 561 377 391 199 251 c 1
 40 442 l 1
 156 538 241 634 241 764 c 0
 241 894 156 991 40 1087 c 1
 199 1276 l 1
 377 1136 500 967 500 764 c 0
920 764 m 0
 920 548 843 365 682 176 c 1
 474 341 l 1
 573 467 640 607 640 764 c 0
 640 921 573 1061 474 1187 c 1
 682 1353 l 1
 843 1164 920 980 920 764 c 0
EndSplineSet
Substitution2: "'locl' Localized Forms in Latin lookup 6 subtable" guillemotright.alt
EndChar

StartChar: AE
Encoding: 198 198 133
Width: 1891
GlyphClass: 2
Flags: HMW
AnchorPoint: "down_I" 1080 0 basechar 0
AnchorPoint: "up_I" 1213 1505 basechar 0
LayerCount: 2
Fore
SplineSet
889 1180 m 1
 857 1180 l 1
 685 700 l 1
 889 700 l 1
 889 1180 l 1
628 1507 m 1
 1813 1507 l 1
 1813 1180 l 1
 1284 1180 l 1
 1284 903 l 1
 1760 903 l 1
 1760 604 l 1
 1284 604 l 1
 1284 330 l 1
 1813 330 l 1
 1813 0 l 1
 889 0 l 1
 889 404 l 1
 580 404 l 1
 434 0 l 1
 15 0 l 1
 628 1507 l 1
EndSplineSet
EndChar

StartChar: multiply
Encoding: 215 215 150
Width: 1142
GlyphClass: 2
Flags: HMW
LayerCount: 2
Fore
SplineSet
844 1142 m 1
 1042 944 l 1
 770 672 l 1
 1042 398 l 1
 846 200 l 1
 571 474 l 1
 297 200 l 1
 100 398 l 1
 373 672 l 1
 100 941 l 1
 298 1141 l 1
 571 868 l 1
 844 1142 l 1
EndSplineSet
Substitution2: "'tnum' Tabular Numbers lookup 22 subtable" multiply.tnum
EndChar

StartChar: Thorn
Encoding: 222 222 157
Width: 1421
GlyphClass: 2
Flags: HMW
AnchorPoint: "down_I" 740 0 basechar 0
AnchorPoint: "up_I" 740 1505 basechar 0
LayerCount: 2
Fore
SplineSet
527 0 m 1
 132 0 l 1
 132 1507 l 1
 527 1507 l 1
 527 1249 l 1
 779 1249 l 2
 1144 1249 1339 1079 1339 754 c 0
 1339 425 1144 258 779 258 c 2
 527 258 l 1
 527 0 l 1
527 920 m 1
 527 587 l 1
 779 587 l 2
 892 587 944 644 944 753 c 0
 944 859 893 920 779 920 c 2
 527 920 l 1
EndSplineSet
EndChar

StartChar: germandbls
Encoding: 223 223 158
Width: 1193
GlyphClass: 2
Flags: HMW
LayerCount: 2
Fore
SplineSet
544 0 m 1
 579 319 l 1
 615 314 664 310 699 310 c 0
 754 310 764 331 764 349 c 0
 764 378 736.558265479 402.800624882 701 427 c 0
 629 476 527 546 527 694 c 0
 527 800 574 871 615 926 c 0
 645 968 660 1022 660 1061 c 0
 660 1107 627 1150 561 1150 c 0
 494 1150 471 1093 471 1019 c 2
 471 0 l 1
 111 0 l 1
 111 1019 l 2
 111 1227 260 1451 561 1451 c 0
 852 1451 1011 1231 1011 1018 c 0
 1011 869 964 791 900 726 c 0
 885 711 879 701 879 693 c 0
 879 681 893 671 927 652 c 0
 1001 605 1125 493 1125 316 c 0
 1125 59 979 -11 736 -11 c 0
 676 -11 612 -6 544 0 c 1
EndSplineSet
EndChar

StartChar: ae
Encoding: 230 230 165
Width: 1831
GlyphClass: 2
Flags: HMW
AnchorPoint: "down_I" 769 -21 basechar 0
AnchorPoint: "up_I" 922 1146 basechar 0
LayerCount: 2
Fore
SplineSet
686 319 m 1
 686 743 l 2
 686 811 653 852 553 852 c 0
 454 852 418 813 418 743 c 1
 86 743 l 1
 67 988 225 1148 573 1148 c 0
 925 1148 1082 974 1082 743 c 2
 1082 314 l 1
 686 319 l 1
64 299 m 0
 64 553 303 662 536 662 c 2
 1038 662 l 1
 1038 454 l 1
 563 454 l 2
 489 454 410 420 410 348 c 0
 410 314 437 277 505 277 c 0
 591 277 645 305 686 350 c 1
 798 351 l 1
 752 209 670 -21 374 -21 c 0
 165 -21 64 101 64 299 c 0
EndSplineSet
Refer: 69 101 N 1 0 0 1 627 0 2
Substitution2: "'c2sc' Capitals to Small Capitals in Latin lookup 0 subtable" uni1D01
Substitution2: "'smcp' Lowercase to Small Capitals in Latin lookup 0 subtable" uni1D01
EndChar

StartChar: eth
Encoding: 240 240 175
Width: 1211
GlyphClass: 2
Flags: HMW
LayerCount: 2
Fore
SplineSet
602 845 m 0
 507 845 455 765 455 568 c 0
 455 371 506 291 602 291 c 0
 698 291 758 371 758 568 c 0
 758 765 697 845 602 845 c 0
562 1145 m 0
 636 1145 712 1124 785 1095 c 1
 792 1101 l 1
 754 1174 643 1293 592 1330 c 1
 475 1228 l 1
 360 1363 l 1
 463 1442 l 1
 413 1469 325 1498 263 1507 c 1
 333 1758 l 1
 438 1742 570 1672 660 1604 c 1
 774 1700 l 1
 886 1561 l 1
 791 1489 l 1
 1062 1217 1153 960 1153 652 c 0
 1153 213 981 -11 607 -11 c 0
 233 -11 60 238 60 568 c 0
 60 958 300 1145 562 1145 c 0
EndSplineSet
EndChar

StartChar: thorn
Encoding: 254 254 189
Width: 1212
GlyphClass: 2
Flags: HMW
LayerCount: 2
Fore
SplineSet
116 1565 m 1
 511 1565 l 1
 511 -471 l 1
 116 -471 l 1
 116 1565 l 1
EndSplineSet
Refer: 1201 57359 N 1 0 0 1 79 0 2
EndChar

StartChar: dotlessi
Encoding: 305 305 240
Width: 592
GlyphClass: 2
Flags: HMW
AnchorPoint: "down_II" 295 0 basechar 0
AnchorPoint: "down_I" 295 0 basechar 0
AnchorPoint: "up_I" 295 1135 basechar 0
LayerCount: 2
Fore
SplineSet
99 1137 m 1
 496 1137 l 1
 496 0 l 1
 99 0 l 1
 99 1137 l 1
EndSplineSet
EndChar

StartChar: Eng
Encoding: 330 330 265
Width: 1515
GlyphClass: 2
Flags: HMW
LayerCount: 2
Fore
SplineSet
115 1507 m 1
 510 1507 l 1
 510 0 l 1
 115 0 l 1
 115 1507 l 1
911 1517 m 0
 1278 1517 1404 1275 1404 885 c 1
 1404 319 l 2
 1404 78 1224 -11 1025 -11 c 0
 927 -11 826 10 738 46 c 1
 790 289 l 1
 832 277 872 276 904 276 c 0
 971 276 1008 301 1008 355 c 2
 1008 885 l 1
 1008 1041 960 1170 775 1170 c 0
 600 1170 510 1037 510 887 c 1
 419 888 l 1
 437 1264 587 1517 911 1517 c 0
EndSplineSet
EndChar

StartChar: eng
Encoding: 331 331 266
Width: 1274
GlyphClass: 2
Flags: HMW
LayerCount: 2
Fore
SplineSet
773 22 m 1
 1168 22 l 1
 1168 -159 l 2
 1168 -400 989 -487 790 -487 c 0
 693 -487 591 -467 503 -431 c 1
 555 -186 l 1
 597 -197 638 -202 669 -202 c 0
 736 -202 773 -176 773 -122 c 2
 773 22 l 1
EndSplineSet
Refer: 78 110 N 1 0 0 1 0 0 2
EndChar

StartChar: OE
Encoding: 338 338 273
Width: 1867
GlyphClass: 2
Flags: HMW
LayerCount: 2
Fore
SplineSet
915 1180 m 1
 800 1180 l 2
 605 1180 459 1060 459 754 c 0
 459 448 605 326 800 326 c 2
 915 326 l 1
 915 1180 l 1
1310 1180 m 1
 1310 903 l 1
 1785 903 l 1
 1785 604 l 1
 1310 604 l 1
 1310 326 l 1
 1840 326 l 1
 1840 0 l 1
 800 0 l 2
 315 0 63 351 63 754 c 0
 63 1157 315 1507 800 1507 c 2
 1840 1507 l 1
 1840 1180 l 1
 1310 1180 l 1
EndSplineSet
EndChar

StartChar: longs
Encoding: 383 383 318
Width: 781
GlyphClass: 2
Flags: HMW
AnchorPoint: "down_I" 352 0 basechar 0
AnchorPoint: "up_I" 533 1560 basechar 0
LayerCount: 2
Fore
SplineSet
820 1507 m 1
 768 1262 l 1
 726 1273 685 1278 654 1278 c 0
 587 1278 552 1252 552 1198 c 2
 552 0 l 1
 155 0 l 1
 155 1233 l 2
 155 1474 333 1562 532 1562 c 0
 629 1562 732 1543 820 1507 c 1
EndSplineSet
Refer: 1208 57366 N 1 0 0 1 -56 0 2
EndChar

StartChar: uni018F
Encoding: 399 399 321
Width: 1607
GlyphClass: 2
Flags: HMW
LayerCount: 2
Fore
SplineSet
1077 563 m 1
 521 563 l 1
 552 412 641 316 808 316 c 0
 950 316 1040 402 1077 563 c 1
1092 862 m 1
 1069 1086 965 1191 805 1191 c 0
 659 1191 569 1115 525 966 c 1
 163 1093 l 1
 250 1334 464 1517 800 1517 c 0
 1279 1517 1495 1155 1495 752 c 0
 1495 375 1301 -12 785 -12 c 0
 317 -12 50 388 125 862 c 1
 1092 862 l 1
EndSplineSet
EndChar

StartChar: uni01B7
Encoding: 439 439 326
Width: 1383
GlyphClass: 2
Flags: HMW
LayerCount: 2
Fore
SplineSet
678 -487 m 0
 332 -487 85 -309 68 50 c 1
 472 43 l 1
 489 -75 553 -160 689 -160 c 0
 841 -160 922 -53 922 159 c 0
 922 474 704 511 466 437 c 1
 317 600 l 1
 797 1179 l 1
 113 1179 l 1
 113 1507 l 1
 1246 1507 l 1
 1246 1249 l 1
 873 794 l 1
 1216 733 1316 520 1316 159 c 0
 1316 -245 1095 -487 678 -487 c 0
EndSplineSet
EndChar

StartChar: uni0237
Encoding: 567 567 426
Width: 592
GlyphClass: 2
Flags: HMW
AnchorPoint: "down_I" 115 -438 basechar 0
AnchorPoint: "up_I" 295 1135 basechar 0
LayerCount: 2
Fore
SplineSet
-170 -384 m 1
 -118 -139 l 1
 -84 -147 -37 -154 -4 -154 c 0
 57 -154 99 -126 99 -67 c 2
 99 1137 l 1
 495 1137 l 1
 495 -114 l 2
 495 -348 320 -437 117 -437 c 0
 18 -437 -83 -413 -170 -384 c 1
EndSplineSet
EndChar

StartChar: uni0239
Encoding: 569 569 428
Width: 1782
GlyphClass: 2
Flags: HMW
LayerCount: 2
Fore
SplineSet
694 1137 m 1
 1088 1137 l 1
 1088 -438 l 1
 694 -438 l 1
 694 1137 l 1
EndSplineSet
Refer: 1201 57359 N 1 0 0 1 658 0 2
Refer: 1213 57372 N 1 0 0 1 -263 0 2
EndChar

StartChar: uni0240
Encoding: 576 576 429
Width: 1114
GlyphClass: 2
Flags: HMW
LayerCount: 2
Fore
SplineSet
810 -280 m 0
 640 -280 567 -218 492 -151 c 0
 408 -76 318 0 86 0 c 1
 86 266 l 1
 554 801 l 1
 86 801 l 1
 86 1137 l 1
 1020 1137 l 1
 1020 870 l 1
 475 246 l 1
 546 235 596 194 642 146 c 0
 689 98 738 55 810 55 c 0
 898 55 959 122 1012 196 c 1
 1272 2 l 1
 1164 -155 1038 -280 810 -280 c 0
EndSplineSet
EndChar

StartChar: uni0255
Encoding: 597 597 432
Width: 1175
GlyphClass: 2
Flags: HMW
LayerCount: 2
Fore
SplineSet
631 294 m 0
 705 294 755 330 755 381 c 0
 755 422 734 439 684 439 c 0
 590 439 445 269 246 -79 c 1
 21 72 l 1
 215 449 473 655 746 655 c 0
 950 655 1080 535 1080 346 c 0
 1080 138 880 -11 601 -11 c 0
 262 -11 59 208 59 569 c 0
 59 933 265 1147 617 1147 c 0
 888 1147 1064 1020 1116 780 c 1
 742 720 l 1
 733 797 683 845 613 845 c 0
 510 845 456 748 456 569 c 0
 456 386 513 294 631 294 c 0
EndSplineSet
EndChar

StartChar: uni0262
Encoding: 610 610 434
Width: 1219
GlyphClass: 2
Flags: HMW
LayerCount: 2
Fore
SplineSet
406 573 m 0
 406 375 496.655462185 294 654 294 c 0
 739 294 794.25 322 824 367 c 1
 824 437 l 1
 562 437 l 1
 562 658 l 1
 1161 658 l 1
 1161 240 l 1
 1042.68 87 888.66 -10 651 -10 c 0
 284.803786575 -10 60 207 60 574 c 0
 60 915 262.585585586 1147 625 1147 c 0
 884.474137931 1147 1020.34051724 1002 1099 834 c 1
 830 720 l 1
 786.897435897 788 732.230769231 845 625 845 c 0
 480.397129187 845 406 742 406 573 c 0
EndSplineSet
EndChar

StartChar: uni0274
Encoding: 628 628 437
Width: 1401
GlyphClass: 2
Flags: HMW
LayerCount: 2
Fore
SplineSet
892 570 m 1
 892 1137 l 1
 1288 1137 l 1
 1288 0 l 1
 922 0 l 1
 521 566 l 1
 511 566 l 1
 511 0 l 1
 117 0 l 1
 117 1137 l 1
 481 1137 l 1
 882 570 l 1
 892 570 l 1
EndSplineSet
EndChar

StartChar: uni0280
Encoding: 640 640 438
Width: 1234
GlyphClass: 2
Flags: HMW
LayerCount: 2
Fore
SplineSet
528 611 m 1
 617 611 l 2
 716 611 758 645 758 746 c 0
 758 848 713 882 617 882 c 2
 528 882 l 1
 528 611 l 1
528 356 m 1
 528 0 l 1
 132 0 l 1
 132 1137 l 1
 687 1137 l 2
 987 1137 1153 991 1153 744 c 0
 1153 496 984 356 687 356 c 2
 528 356 l 1
636 493 m 1
 979 493 l 1
 1246 0 l 1
 861 0 l 1
 636 493 l 1
EndSplineSet
EndChar

StartChar: uni0283
Encoding: 643 643 439
Width: 780
GlyphClass: 2
Flags: HMW
LayerCount: 2
Fore
SplineSet
819 1507 m 1
 766 1262 l 1
 724 1273 684 1278 653 1278 c 0
 586 1278 550 1252 550 1198 c 2
 550 -142 l 2
 550 -383 370 -471 171 -471 c 0
 74 -471 -28 -452 -116 -416 c 1
 -62 -170 l 1
 -20 -181 19 -186 50 -186 c 0
 117 -186 154 -159 154 -105 c 2
 154 1233 l 2
 154 1474 333 1562 532 1562 c 0
 629 1562 731 1543 819 1507 c 1
EndSplineSet
EndChar

StartChar: uni028F
Encoding: 655 655 440
Width: 1270
GlyphClass: 2
Flags: HMW
LayerCount: 2
Fore
SplineSet
825 1137 m 1
 1283 1137 l 1
 837 488 l 1
 837 0 l 1
 440 0 l 1
 440 488 l 1
 -11 1137 l 1
 449 1137 l 1
 637 798 l 1
 825 1137 l 1
EndSplineSet
EndChar

StartChar: uni0291
Encoding: 657 657 441
Width: 1655
GlyphClass: 2
Flags: HMW
LayerCount: 2
Fore
SplineSet
1141 326 m 2
 554 326 l 1
 1020 870 l 1
 1020 1137 l 1
 86 1137 l 1
 86 810 l 1
 554 810 l 1
 86 266 l 1
 86 0 l 1
 1122 0 l 1
 1388 0 1597 134 1597 382 c 0
 1597 558 1501 724 1254 724 c 0
 928 724 683 349 353 -182 c 1
 589 -332 l 1
 952 225 1107 446 1208 446 c 0
 1248 446 1270 425 1270 397 c 0
 1270 354 1218 326 1141 326 c 2
EndSplineSet
EndChar

StartChar: uni0292
Encoding: 658 658 442
Width: 1202
GlyphClass: 2
Flags: HMW
LayerCount: 2
Fore
SplineSet
591 -487 m 0
 269 -487 87 -343 62 -70 c 1
 454 -6 l 1
 472 -121 521 -184 598 -184 c 0
 696 -184 748 -105 748 37 c 0
 748 245 607 323 419 215 c 1
 256 391 l 1
 578 810 l 1
 96 810 l 1
 96 1137 l 1
 1085 1137 l 1
 1085 870 l 1
 819 532 l 1
 1025 495 1145 312 1145 37 c 0
 1145 -302 949 -487 591 -487 c 0
EndSplineSet
EndChar

StartChar: uni0293
Encoding: 659 659 443
Width: 1202
GlyphClass: 2
Flags: HMW
LayerCount: 2
Fore
SplineSet
96 810 m 1
 96 1137 l 1
 1085 1137 l 1
 1085 870 l 1
 819 532 l 1
 1025 495 1145 312 1145 37 c 0
 1145 -287 924 -487 564 -487 c 0
 244 -487 58 -347 58 -107 c 0
 58 49 206 178 381 178 c 0
 627 178 881 -27 1127 -425 c 1
 895 -561 l 1
 646 -165 538 -39 449 -39 c 0
 412 -39 384 -65 384 -104 c 0
 384 -163 435 -184 571 -184 c 0
 693 -184 748 -112 748 37 c 0
 748 245 607 323 419 215 c 1
 256 391 l 1
 578 810 l 1
 96 810 l 1
EndSplineSet
EndChar

StartChar: uni0299
Encoding: 665 665 444
Width: 1257
GlyphClass: 2
Flags: HMW
LayerCount: 2
Fore
SplineSet
951 593 m 1
 1070 566 1154 457 1154 336 c 0
 1154 120 1024 0 786 0 c 2
 132 0 l 1
 132 1137 l 1
 700 1137 l 2
 962 1137 1103 1016 1103 791 c 0
 1103 700 1040 620 951 603 c 1
 951 593 l 1
527 882 m 1
 527 660 l 1
 658 660 l 2
 725 660 759 697 759 769 c 0
 759 841 723 882 658 882 c 2
 527 882 l 1
527 477 m 1
 527 254 l 1
 656 254 l 2
 721 254 758 294 758 369 c 0
 758 440 723 477 656 477 c 2
 527 477 l 1
EndSplineSet
EndChar

StartChar: uni029C
Encoding: 668 668 445
Width: 1387
GlyphClass: 2
Flags: HMW
LayerCount: 2
Fore
SplineSet
878 1137 m 1
 1271 1137 l 1
 1271 0 l 1
 878 0 l 1
 878 419 l 1
 511 419 l 1
 511 0 l 1
 117 0 l 1
 117 1137 l 1
 511 1137 l 1
 511 718 l 1
 878 718 l 1
 878 1137 l 1
EndSplineSet
EndChar

StartChar: uni029F
Encoding: 671 671 447
Width: 1001
GlyphClass: 2
Flags: HMW
LayerCount: 2
Fore
SplineSet
116 1137 m 1
 510 1137 l 1
 510 305 l 1
 963 305 l 1
 963 0 l 1
 116 0 l 1
 116 1137 l 1
EndSplineSet
EndChar

StartChar: uni02C2
Encoding: 706 706 457
Width: 672
GlyphClass: 2
Flags: HMW
LayerCount: 2
Fore
SplineSet
361 717 m 1
 645 433 l 1
 465 253 l 1
 27 717 l 1
 465 1181 l 1
 645 1001 l 1
 361 717 l 1
EndSplineSet
EndChar

StartChar: uni02C3
Encoding: 707 707 458
Width: 672
GlyphClass: 2
Flags: HMW
LayerCount: 2
Fore
SplineSet
311 717 m 1
 27 1001 l 1
 207 1181 l 1
 645 717 l 1
 207 253 l 1
 27 433 l 1
 311 717 l 1
EndSplineSet
EndChar

StartChar: uni02C4
Encoding: 708 708 459
Width: 956
GlyphClass: 2
Flags: HMW
LayerCount: 2
Fore
SplineSet
478 692 m 1
 194 408 l 1
 15 587 l 1
 478 1026 l 1
 941 587 l 1
 762 408 l 1
 478 692 l 1
EndSplineSet
EndChar

StartChar: uni02C5
Encoding: 709 709 460
Width: 956
GlyphClass: 2
Flags: HMW
LayerCount: 2
Fore
SplineSet
478 742 m 1
 762 1026 l 1
 941 847 l 1
 478 408 l 1
 15 847 l 1
 194 1026 l 1
 478 742 l 1
EndSplineSet
EndChar

StartChar: circumflex
Encoding: 710 710 461
Width: 733
GlyphClass: 2
Flags: HMW
LayerCount: 2
Fore
SplineSet
709 1137 m 1
 446 1137 l 1
 368 1348 l 1
 291 1137 l 1
 27 1137 l 1
 134 1494 l 1
 601 1494 l 1
 709 1137 l 1
EndSplineSet
EndChar

StartChar: caron
Encoding: 711 711 462
Width: 733
GlyphClass: 2
Flags: HMW
LayerCount: 2
Fore
SplineSet
27 1494 m 1
 291 1494 l 1
 368 1279 l 1
 444 1494 l 1
 709 1494 l 1
 601 1137 l 1
 134 1137 l 1
 27 1494 l 1
EndSplineSet
EndChar

StartChar: uni02D2
Encoding: 722 722 463
Width: 412
GlyphClass: 2
Flags: HMW
LayerCount: 2
Fore
SplineSet
65 1322 m 1
 80 1320 86 1320 92 1320 c 0
 166 1320 215 1353 215 1421 c 0
 215 1489 166 1522 93 1522 c 0
 87 1522 81 1522 66 1520 c 1
 39 1711 l 1
 71 1718 103 1722 132 1722 c 0
 293 1722 409 1604 409 1421 c 0
 409 1238 292 1120 131 1120 c 0
 102 1120 70 1124 38 1131 c 1
 65 1322 l 1
EndSplineSet
EndChar

StartChar: uni02D3
Encoding: 723 723 464
Width: 636
GlyphClass: 2
Flags: HMW
LayerCount: 2
Fore
SplineSet
487 1587 m 1
 389 1587 345 1546 345 1457 c 0
 345 1368 389 1327 487 1327 c 1
 487 1131 l 1
 284 1131 150 1238 150 1457 c 0
 150 1676 285 1784 487 1784 c 1
 487 1587 l 1
EndSplineSet
EndChar

StartChar: breve
Encoding: 728 728 465
Width: 698
GlyphClass: 2
Flags: HMW
LayerCount: 2
Fore
SplineSet
660 1458 m 1
 660 1253 553 1137 350 1137 c 0
 147 1137 38 1253 38 1458 c 1
 245 1458 l 1
 245 1365 281 1335 350 1335 c 0
 419 1335 455 1365 455 1458 c 1
 660 1458 l 1
EndSplineSet
EndChar

StartChar: dotaccent
Encoding: 729 729 466
Width: 395
GlyphClass: 2
Flags: HMW
LayerCount: 2
Fore
SplineSet
30 1294 m 0
 30 1384 112 1453 201 1453 c 0
 290 1453 366 1384 366 1294 c 0
 366 1204 290 1129 201 1129 c 0
 112 1129 30 1204 30 1294 c 0
EndSplineSet
EndChar

StartChar: ring
Encoding: 730 730 467
Width: 650
GlyphClass: 2
Flags: HMW
LayerCount: 2
Fore
SplineSet
326 1552 m 0
 256 1552 206 1500 206 1430 c 0
 206 1360 256 1308 326 1308 c 0
 396 1308 449 1360 449 1430 c 0
 449 1500 396 1552 326 1552 c 0
326 1723 m 0
 489 1723 622 1593 622 1430 c 0
 622 1267 489 1137 326 1137 c 0
 163 1137 33 1267 33 1430 c 0
 33 1593 163 1723 326 1723 c 0
EndSplineSet
EndChar

StartChar: ogonek
Encoding: 731 731 468
Width: 647
GlyphClass: 2
Flags: HMW
LayerCount: 2
Fore
SplineSet
482 -262 m 1
 540 -438 l 1
 459 -462 388 -474 318 -474 c 0
 163 -474 62 -390 62 -262 c 0
 62 -208 79 -154 135 -39 c 2
 151 0 l 1
 151 1 l 1
 391 3 l 1
 395 0 l 1
 325 -133 l 2
 293 -194 283 -220 283 -242 c 0
 283 -270 306 -282 356 -282 c 0
 390 -282 432 -276 482 -262 c 1
EndSplineSet
EndChar

StartChar: tilde
Encoding: 732 732 469
Width: 1035
GlyphClass: 2
Flags: HMW
LayerCount: 2
Fore
SplineSet
87 1217 m 1
 152 1377 256 1462 362 1462 c 0
 446 1462 488 1436 548 1393 c 0
 583.625135829 1367.46865266 620 1342 666 1342 c 0
 704 1342 749 1357 795 1462 c 1
 948 1376 l 1
 883 1203 783 1137 671 1137 c 0
 591 1137 549 1157 452 1216 c 0
 421 1236 387 1256 363 1256 c 0
 335 1256 293 1253 242 1138 c 1
 87 1217 l 1
EndSplineSet
EndChar

StartChar: uni0305
Encoding: 773 773 476
Width: 0
GlyphClass: 4
Flags: HMW
AnchorPoint: "up_I" 0 992 mark 0
AnchorPoint: "mkmk" 0 1358 basemark 0
AnchorPoint: "mkmk" 0 992 mark 0
LayerCount: 2
Fore
SplineSet
529 1398 m 1
 529 1131 l 1
 -529 1131 l 1
 -529 1398 l 1
 529 1398 l 1
EndSplineSet
EndChar

StartChar: uni0311
Encoding: 785 785 487
Width: 0
GlyphClass: 4
Flags: HMW
AnchorPoint: "up_I" 0 992 mark 0
AnchorPoint: "mkmk" 0 1455 basemark 0
AnchorPoint: "mkmk" 0 992 mark 0
LayerCount: 2
Fore
SplineSet
-311 1137 m 1
 -311 1342 -203 1458 0 1458 c 0
 203 1458 311 1342 311 1137 c 1
 105 1137 l 1
 105 1230 69 1271 0 1271 c 0
 -69 1271 -105 1230 -105 1137 c 1
 -311 1137 l 1
EndSplineSet
EndChar

StartChar: uni031B
Encoding: 795 795 488
Width: 0
GlyphClass: 4
Flags: HMW
AnchorPoint: "up_II" -224 1135 mark 0
LayerCount: 2
Fore
SplineSet
173 1672 m 1
 201 1584 236 1471 236 1375 c 0
 236 1220 123 1137 -40 1137 c 2
 -237 1137 l 1
 -237 1325 l 1
 -30 1325 l 2
 18 1325 33 1336 33 1376 c 0
 33 1419 0 1536 -19 1600 c 1
 173 1672 l 1
EndSplineSet
EndChar

StartChar: uni0600
Encoding: 1536 1536 491
Width: 4500
GlyphClass: 2
Flags: HMW
LayerCount: 2
Fore
SplineSet
4200 -471 m 1
 200 -476 l 1
 200 -150 l 1
 2954 -150 l 2
 3458 -150 3567 -168 3675 -269 c 1
 3684 -259 l 1
 3640 -216 3603 -114 3603 -23 c 0
 3603 159 3708.43066406 333.900390625 3936.26953125 426.75390625 c 2
 4101.02050781 493.896484375 l 1
 4173 201 l 1
 4030 144 l 2
 3946.34960938 110.657226562 3876 46 3876 -41 c 0
 3876 -120 3933 -151 4043 -151 c 2
 4260 -151 l 1
 4200 -471 l 1
EndSplineSet
EndChar

StartChar: uni0601
Encoding: 1537 1537 492
Width: 4500
GlyphClass: 2
Flags: HMW
LayerCount: 2
Fore
SplineSet
196 -175 m 1
 397 -63 l 1
 480 -192 502 -214 541 -214 c 0
 577 -214 596 -192 630 -109 c 0
 718 104 813 193 949 193 c 0
 1067 193 1164 124 1263 -32 c 0
 1335 -144 1390 -194 1451 -194 c 0
 1520 -194 1567 -130 1628 49 c 1
 1812 77 l 1
 2045 -81 2352 -153 2794 -153 c 0
 3172 -153 3514 -73 3821 88 c 0
 3928 145 3988 165 4051 165 c 0
 4202 165 4304 49 4304 -122 c 0
 4304 -242 4253 -367 4128 -557 c 1
 3925 -420 l 1
 3977 -361 4000 -318 4000 -281 c 0
 4000 -241 3972 -210 3934 -210 c 0
 3912 -210 3885 -221 3834 -249 c 0
 3577 -392 3168 -481 2771 -481 c 0
 2381 -481 2044 -424 1780 -315 c 1
 1693 -457 1592 -521 1453 -521 c 0
 1278 -521 1151 -436 1027 -237 c 0
 985 -172 963 -148 940 -148 c 0
 912 -148 890 -181 863 -257 c 0
 797 -439 704 -521 562 -521 c 0
 408 -521 306 -425 196 -175 c 1
EndSplineSet
EndChar

StartChar: uni0603
Encoding: 1539 1539 493
Width: 4500
GlyphClass: 2
Flags: HMW
LayerCount: 2
Fore
SplineSet
4017 -67 m 0
 4017 -26 3979 4 3926 4 c 0
 3838 4 3740 -53 3674 -140 c 1
 3722 -152 3770 -158 3817 -158 c 0
 3933 -158 4017 -120 4017 -67 c 0
2663 -477 m 2
 200 -477 l 1
 200 -150 l 1
 2663 -150 l 2
 2904 -150 2997 -52 3077 295 c 1
 3394 224 l 1
 3378 155 3361 92 3341 34 c 1
 3377 4 3414 -23 3453 -47 c 1
 3639 205 3805 323 3970 323 c 0
 4160 323 4300 158 4300 -69 c 0
 4300 -309 4093 -486 3807 -486 c 0
 3550 -486 3360 -409 3190 -256 c 1
 3067 -409 2897 -477 2663 -477 c 2
EndSplineSet
EndChar

StartChar: uni0604
Encoding: 1540 1540 494
Width: 4500
GlyphClass: 2
Flags: HMW
LayerCount: 2
Fore
SplineSet
3069 -682 m 1
 200 -687 l 1
 200 -361 l 1
 1783 -361 l 2
 2304 -361 2439 -382 2544 -480 c 1
 2553 -470 l 1
 2501 -420 2472 -341 2472 -234 c 0
 2472 5 2646 215 2853 215 c 0
 2999 215 3098 162 3244 4 c 0
 3345 -105 3390 -137 3443 -137 c 0
 3511 -137 3544 -102 3544 -30 c 2
 3544 164 l 1
 3822 164 l 1
 3822 -30 l 2
 3822 -110 3846 -137 3915 -137 c 0
 3975 -137 3990 -118 3990 -44 c 0
 3990 14 3978 96 3956 197 c 1
 4262 262 l 1
 4290 121 4300 22 4300 -105 c 0
 4300 -333 4176 -464 3960 -464 c 0
 3820 -464 3720 -407 3697 -314 c 1
 3687 -314 l 1
 3670 -410 3591 -464 3469 -464 c 0
 3342 -464 3243 -408 3093 -252 c 0
 2975 -129 2930 -99 2864 -99 c 0
 2783 -99 2735 -162 2735 -252 c 0
 2735 -334 2785 -362 2892 -362 c 2
 3069 -362 l 1
 3069 -682 l 1
EndSplineSet
EndChar

StartChar: uni060C
Encoding: 1548 1548 498
Width: 614
GlyphClass: 2
Flags: HMW
LayerCount: 2
Fore
SplineSet
322 723 m 1
 435 611 l 1
 343 513 294 431 275 338 c 1
 293 333 l 1
 316 345 338 351 360 351 c 0
 446 351 514 282 514 182 c 0
 514 66 429 0 313 0 c 0
 181 0 100 95 100 245 c 0
 100 419 183 599 322 723 c 1
EndSplineSet
EndChar

StartChar: uni060D
Encoding: 1549 1549 499
Width: 887
GlyphClass: 2
Flags: HMW
LayerCount: 2
Fore
SplineSet
261 -613 m 1
 -139 -613 l 1
 388 740 l 1
 787 740 l 1
 261 -613 l 1
EndSplineSet
EndChar

StartChar: uni060E
Encoding: 1550 1550 500
Width: 2184
GlyphClass: 2
Flags: HMW
LayerCount: 2
Fore
SplineSet
1174 415 m 0
 1174 162 1014 -60 940 -148 c 1
 653 61 l 1
 720 147 779 242 779 376 c 0
 779 491 715 551 616 551 c 0
 513 551 432 479 432 373 c 0
 432 259 569 225 690 225 c 2
 2147 225 l 1
 2147 -167 l 1
 686 -167 l 2
 330 -167 39 -5 39 351 c 0
 39 702 319 944 616 944 c 0
 926 944 1174 735 1174 415 c 0
EndSplineSet
EndChar

StartChar: uni060F
Encoding: 1551 1551 501
Width: 1547
GlyphClass: 2
Flags: HMW
LayerCount: 2
Fore
SplineSet
743 -305 m 1
 779 -312 815.508333333 -314 856 -314 c 0
 1020 -314 1109 -274 1109 -202 c 0
 1109 -155 1071 -127 1013 -127 c 0
 913.577617329 -127 814.155234657 -204.638297872 743 -305 c 1
462 -202 m 1
 640 46 867 240 1123 240 c 0
 1351 240 1510 65 1510 -189 c 0
 1510 -509 1252 -709 835 -709 c 0
 716.269349845 -709 606.594427245 -690.982758621 510 -654 c 1
 378 -865 l 1
 100 -679 l 1
 240 -504 l 1
 113 -398 38 -259 38 -99 c 0
 38 125.396460177 153 320 380 467 c 1
 380 477 l 1
 228.081081081 564.75 161 672.443181818 161 828 c 0
 161 1135.55615942 400.555555556 1381 700 1381 c 0
 835.669975186 1381 973.349875931 1331.65972222 1105 1236 c 1
 941 932 l 1
 849.612765957 972.238095238 769.272340426 997 705 997 c 0
 594 997 512 934.868965517 512 854 c 0
 512 757.235294118 619.357142857 714 846 714 c 0
 923 714 1020 720 1121 729 c 1
 1121 357 l 1
 696 335 402 172 402 -39 c 0
 402 -102 422 -157 462 -202 c 1
EndSplineSet
EndChar

StartChar: uni061C
Encoding: 1564 1564 504
Width: 2656
GlyphClass: 2
Flags: HMW
LayerCount: 2
Fore
SplineSet
985 1154 m 1
 1217 1154 l 1
 1217 1048 l 1
 985 1048 l 1
 985 1154 l 1
1451 1154 m 1
 1683 1154 l 1
 1683 1048 l 1
 1451 1048 l 1
 1451 1154 l 1
2350 1048 m 1
 1917 1048 l 1
 1917 1154 l 1
 2459 1154 l 1
 2459 845 l 1
 2350 845 l 1
 2350 1048 l 1
200 1154 m 1
 751 1154 l 1
 751 1048 l 1
 308 1048 l 1
 308 846 l 1
 200 846 l 1
 200 1154 l 1
1683 -280 m 1
 1451 -280 l 1
 1451 -172 l 1
 1683 -172 l 1
 1683 -280 l 1
200 -280 m 1
 751 -280 l 1
 751 -172 l 1
 308 -172 l 1
 308 30 l 1
 200 30 l 1
 200 -280 l 1
2350 -172 m 1
 1917 -172 l 1
 1917 -280 l 1
 2459 -280 l 1
 2459 28 l 1
 2350 28 l 1
 2350 -172 l 1
1217 -280 m 1
 985 -280 l 1
 985 -172 l 1
 1217 -172 l 1
 1217 -280 l 1
2350 261 m 1
 2350 612 l 1
 2459 612 l 1
 2459 261 l 1
 2350 261 l 1
308 613 m 1
 308 263 l 1
 200 263 l 1
 200 613 l 1
 308 613 l 1
EndSplineSet
Refer: 814 7437 N 0.5 0 0 0.5 1463 146 2
Refer: 807 7424 N 0.5 0 0 0.5 386 146 2
Refer: 447 671 N 0.5 0 0 0.5 957 146 2
EndChar

StartChar: uni061F
Encoding: 1567 1567 506
Width: 1168
GlyphClass: 2
Flags: HMW
LayerCount: 2
Fore
SplineSet
780 507 m 1
 419 507 l 1
 419 634 397 676 271 792 c 0
 152 900 109 985 109 1112 c 0
 109 1344 320 1529 586 1529 c 0
 859 1529 1062 1350 1062 1110 c 0
 1062 1072 1061 1056 1057 1040 c 1
 723 1040 l 1
 727 1057 728 1069 728 1082 c 0
 728 1166 675.268292683 1218 590 1218 c 0
 509.246575342 1218 459 1166 459 1084 c 0
 459 1032 492 983 587 892 c 0
 739 746 780 665 780 507 c 1
786 178 m 0
 786 75 698 -11 594 -11 c 0
 489 -11 402 74 402 178 c 0
 402 280 487 362 594 362 c 0
 700 362 786 279 786 178 c 0
EndSplineSet
EndChar

StartChar: uni0660
Encoding: 1632 1632 571
Width: 802
GlyphClass: 2
Flags: HMW
LayerCount: 2
Fore
SplineSet
402 745 m 1
 698 449 l 1
 402 152 l 1
 106 449 l 1
 402 745 l 1
EndSplineSet
Substitution2: "'tnum' Tabular Numbers lookup 22 subtable" uni0660.tnum
Substitution2: "Single Substitution lookup 178 subtable" uni0660.EoA
Substitution2: "SingleSubstitutionlookup179 subtable" uni0660.s
EndChar

StartChar: uni0661
Encoding: 1633 1633 572
Width: 736
GlyphClass: 2
Flags: HMW
LayerCount: 2
Fore
SplineSet
684 0 m 1
 308 0 l 1
 303 568 222 923 53 1397 c 1
 409 1524 l 1
 587 1021 679 608 684 0 c 1
EndSplineSet
Substitution2: "'tnum' Tabular Numbers lookup 22 subtable" uni0661.tnum
Substitution2: "Single Substitution lookup 178 subtable" uni0661.EoA
Substitution2: "SingleSubstitutionlookup179 subtable" uni0661.s
EndChar

StartChar: uni0662
Encoding: 1634 1634 573
Width: 1253
GlyphClass: 2
Flags: HMW
LayerCount: 2
Fore
SplineSet
662 1092 m 0
 751.885350318 1092 780.910828025 1140 809 1348 c 2
 834 1520 l 1
 1201 1462 l 1
 1132 915 995 703 724 703 c 0
 698.020833333 703 669.354166667 709 638 719 c 1
 632 711 l 1
 666 489 681 259 683 0 c 1
 309 0 l 1
 305 506 240 859 53 1397 c 1
 408 1524 l 1
 469 1351 l 2
 542 1140 579 1092 662 1092 c 0
EndSplineSet
Substitution2: "'tnum' Tabular Numbers lookup 22 subtable" uni0662.tnum
Substitution2: "Single Substitution lookup 178 subtable" uni0662.EoA
Substitution2: "SingleSubstitutionlookup179 subtable" uni0662.s
EndChar

StartChar: uni0663
Encoding: 1635 1635 574
Width: 1534
GlyphClass: 2
Flags: HMW
LayerCount: 2
Fore
SplineSet
823 841 m 1
 785.882121405 747.60314546 739.924818841 713 653 713 c 0
 649 713 642 714 632 716 c 1
 625 709 l 1
 656.154588928 474.302096745 670.035735633 260.351379045 671 0 c 1
 296 0 l 1
 291.987083744 509.640364574 221.457789826 916.562463637 53 1402 c 1
 408 1524 l 1
 490 1223 l 2
 512.917621583 1138.8755598 536.622807018 1109 582 1109 c 0
 642.039735099 1109 666 1152.07142857 666 1260 c 0
 666 1346 665.071428571 1388.71428571 662 1444 c 1
 959 1445 l 1
 954.596371882 1349.22108844 954 1323.1 954 1226 c 0
 954 1144.05 980.961538462 1109 1044 1109 c 0
 1104.5 1109 1124 1137.275 1124 1225 c 0
 1124 1287.68 1115.26643599 1370.82352941 1099 1463 c 1
 1449 1526 l 1
 1470.73493976 1416.3373494 1482 1317 1482 1235 c 0
 1482 908.295620438 1328.23275862 713 1071 713 c 0
 964.420172978 713 896.880564919 749.323822821 833 841 c 1
 823 841 l 1
EndSplineSet
Substitution2: "'tnum' Tabular Numbers lookup 22 subtable" uni0663.tnum
Substitution2: "Single Substitution lookup 178 subtable" uni0663.EoA
Substitution2: "SingleSubstitutionlookup179 subtable" uni0663.s
EndChar

StartChar: uni0664
Encoding: 1636 1636 575
Width: 957
GlyphClass: 2
Flags: HMW
LayerCount: 2
Fore
SplineSet
262 757 m 1
 184 792 122 877 122 993 c 0
 122 1287 352 1460 803 1527 c 1
 840 1146 l 1
 619 1122 505 1077 505 1011 c 0
 505 952 596 931 844 929 c 1
 844 603 l 1
 566 603 439 559 439 463 c 0
 439 406 483 382 591 382 c 2
 896 382 l 1
 896 0 l 1
 610 0 l 2
 254 0 63 139 63 398 c 0
 63 553 142 681 262 747 c 1
 262 757 l 1
EndSplineSet
Substitution2: "'tnum' Tabular Numbers lookup 22 subtable" uni0664.tnum
Substitution2: "Single Substitution lookup 178 subtable" uni0664.EoA
Substitution2: "SingleSubstitutionlookup179 subtable" uni0664.s
EndChar

StartChar: uni0665
Encoding: 1637 1637 576
Width: 1271
GlyphClass: 2
Flags: HMW
LayerCount: 2
Fore
SplineSet
534 1522 m 1
 867 1273 1225 989 1225 523 c 0
 1225 136 951 -12 637 -12 c 0
 337 -12 47 130 47 488 c 0
 47 769 205 962 418 1118 c 1
 386 1147 332 1191 289 1225 c 1
 534 1522 l 1
635 892 m 1
 472 750 422 632 422 540 c 0
 422 457 481 385 637 385 c 0
 789 385 849 448 849 542 c 0
 849 618 795 730 635 892 c 1
EndSplineSet
Substitution2: "'tnum' Tabular Numbers lookup 22 subtable" uni0665.tnum
Substitution2: "Single Substitution lookup 178 subtable" uni0665.EoA
Substitution2: "SingleSubstitutionlookup179 subtable" uni0665.s
EndChar

StartChar: uni0666
Encoding: 1638 1638 577
Width: 1151
GlyphClass: 2
Flags: HMW
LayerCount: 2
Fore
SplineSet
53 1102 m 1
 53 1507 l 1
 744 1507 l 1
 964 1254 l 1
 961 1173 960 1118 960 1014 c 0
 960 634 988 444 1098 87 c 1
 736 -18 l 1
 616 385 582 612 582 1013 c 0
 582 1029 583 1072 584 1102 c 1
 53 1102 l 1
EndSplineSet
Substitution2: "'tnum' Tabular Numbers lookup 22 subtable" uni0666.tnum
Substitution2: "Single Substitution lookup 178 subtable" uni0666.EoA
Substitution2: "SingleSubstitutionlookup179 subtable" uni0666.s
EndChar

StartChar: uni0667
Encoding: 1639 1639 578
Width: 1449
GlyphClass: 2
Flags: HMW
LayerCount: 2
Fore
SplineSet
729 782 m 1
 803 1082.41463415 934 1341.48780488 1123 1573 c 1
 1427 1338 l 1
 1112 926 947 640 889 0 c 1
 563 0 l 1
 505 640 339 926 24 1338 c 1
 329 1573 l 1
 518 1341.48780488 647 1082.41463415 719 782 c 1
 729 782 l 1
EndSplineSet
Substitution2: "'tnum' Tabular Numbers lookup 22 subtable" uni0667.tnum
Substitution2: "Single Substitution lookup 178 subtable" uni0667.EoA
Substitution2: "SingleSubstitutionlookup179 subtable" uni0667.s
EndChar

StartChar: uni0668
Encoding: 1640 1640 579
Width: 1449
GlyphClass: 2
Flags: HMW
LayerCount: 2
Fore
SplineSet
721 736 m 1
 647 435.585365854 518 176.512195122 329 -55 c 1
 24 179 l 1
 339 592 505 878 563 1518 c 1
 889 1518 l 1
 947 878 1112 592 1427 179 c 1
 1123 -55 l 1
 934 176.512195122 803 435.585365854 731 736 c 1
 721 736 l 1
EndSplineSet
Substitution2: "'tnum' Tabular Numbers lookup 22 subtable" uni0668.tnum
Substitution2: "Single Substitution lookup 178 subtable" uni0668.EoA
Substitution2: "SingleSubstitutionlookup179 subtable" uni0668.s
EndChar

StartChar: uni0669
Encoding: 1641 1641 580
Width: 1102
GlyphClass: 2
Flags: HMW
LayerCount: 2
Fore
SplineSet
601 560 m 1
 537 547 482 541 430 541 c 0
 192 541 43 695 43 942 c 0
 43 1300 215 1531 462 1531 c 0
 771 1531 891 1339 932 857 c 1
 963 499 1000 285 1061 103 c 1
 714 -21 l 1
 657 184 634 297 601 560 c 1
566 935 m 1
 563 973 l 2
 553 1097 510 1143 444 1143 c 0
 384 1143 352 1078 352 1001 c 0
 352 949 387 932 456 932 c 0
 491 932 528 932 566 935 c 1
EndSplineSet
Substitution2: "'tnum' Tabular Numbers lookup 22 subtable" uni0669.tnum
Substitution2: "Single Substitution lookup 178 subtable" uni0669.EoA
Substitution2: "SingleSubstitutionlookup179 subtable" uni0669.s
EndChar

StartChar: uni066B
Encoding: 1643 1643 582
Width: 869
GlyphClass: 2
Flags: HMW
LayerCount: 2
Fore
SplineSet
232 -512 m 1
 -140 -512 l 1
 419 742 l 1
 789 742 l 1
 232 -512 l 1
EndSplineSet
Substitution2: "'tnum' Tabular Numbers lookup 22 subtable" uni066B.tnum
EndChar

StartChar: uni066C
Encoding: 1644 1644 583
Width: 621
GlyphClass: 2
Flags: HMW
LayerCount: 2
Fore
SplineSet
321 0 m 1
 195 28 135 96 135 193 c 0
 135 293 217 363 318 363 c 0
 420 363 513 293 513 140 c 0
 513 -33 429 -208 236 -345 c 1
 119 -210 l 1
 196 -155 288 -61 321 0 c 1
EndSplineSet
Substitution2: "'tnum' Tabular Numbers lookup 22 subtable" uni066C.tnum
EndChar

StartChar: uni066D
Encoding: 1645 1645 584
Width: 996
GlyphClass: 2
Flags: HMW
LayerCount: 2
Fore
SplineSet
636 771 m 1
 362 771 l 1
 380 1025 l 1
 367 1032 l 1
 157 888 l 1
 18 1127 l 1
 248 1238 l 1
 248 1252 l 1
 18 1364 l 1
 157 1603 l 1
 367 1459 l 1
 380 1465 l 1
 362 1720 l 1
 636 1720 l 1
 618 1465 l 1
 630 1459 l 1
 842 1603 l 1
 978 1364 l 1
 749 1252 l 1
 749 1238 l 1
 978 1127 l 1
 842 888 l 1
 630 1032 l 1
 618 1025 l 1
 636 771 l 1
EndSplineSet
EndChar

StartChar: uni06DD
Encoding: 1757 1757 696
Width: 2300
GlyphClass: 2
Flags: HMW
LayerCount: 2
Fore
SplineSet
2251 -326 m 1
 2056 -362 1902 -409 1695 -502 c 0
 1480 -597 1327 -634 1150 -634 c 0
 970 -634 814 -597 605 -502 c 0
 388 -406 239 -358 49 -326 c 1
 181 -209 l 1
 349 -241 487 -284 675 -367 c 0
 863 -450 995 -483 1150 -483 c 0
 1305 -483 1437 -450 1625 -367 c 0
 1813 -284 1951 -241 2119 -209 c 1
 2251 -326 l 1
1150 1694 m 0
 995 1694 863 1662 675 1579 c 0
 487 1496 349 1452 181 1420 c 1
 208 1151 217 1000 217 791 c 0
 217 583 208 433 181 163 c 1
 349 131 487 87 675 4 c 0
 863 -79 995 -111 1150 -111 c 0
 1305 -111 1437 -79 1625 4 c 0
 1813 87 1951 131 2119 163 c 1
 2092 433 2083 583 2083 791 c 0
 2083 1000 2092 1151 2119 1420 c 1
 1951 1452 1813 1496 1625 1579 c 0
 1437 1662 1305 1694 1150 1694 c 0
2233 791 m 0
 2233 556 2243 378 2274 76 c 0
 2274 75 2274 73 2274 72 c 0
 2274 59 2263 47 2251 45 c 0
 2056 9 1902 -39 1695 -132 c 0
 1480 -227 1327 -262 1150 -262 c 0
 970 -262 814 -227 605 -132 c 0
 388 -36 239 13 49 45 c 0
 37 47 26 59 26 72 c 0
 26 73 26 75 26 76 c 0
 57 362 67 546 67 791 c 0
 67 1027 57 1207 26 1508 c 0
 26 1509 26 1509 26 1510 c 0
 26 1523 37 1536 49 1538 c 0
 244 1574 398 1622 605 1715 c 0
 820 1810 973 1845 1150 1845 c 0
 1330 1845 1488 1809 1695 1715 c 0
 1912 1619 2059 1570 2251 1538 c 0
 2263 1536 2274 1523 2274 1510 c 0
 2274 1509 2274 1509 2274 1508 c 0
 2243 1222 2233 1036 2233 791 c 0
EndSplineSet
EndChar

StartChar: uni06DE
Encoding: 1758 1758 697
Width: 2589
GlyphClass: 2
Flags: HMW
LayerCount: 2
Fore
SplineSet
1295 1485 m 0
 1335 1485 1368 1451 1368 1411 c 0
 1368 1371 1335 1337 1295 1337 c 0
 1255 1337 1221 1371 1221 1411 c 0
 1221 1451 1255 1485 1295 1485 c 0
1295 -117 m 0
 1335 -117 1369 -151 1369 -191 c 0
 1369 -231 1335 -265 1295 -265 c 0
 1255 -265 1222 -231 1222 -191 c 0
 1222 -151 1255 -117 1295 -117 c 0
494 683 m 0
 534 683 568 650 568 610 c 0
 568 570 534 536 494 536 c 0
 454 536 420 570 420 610 c 0
 420 650 454 683 494 683 c 0
2096 684 m 0
 2136 684 2170 650 2170 610 c 0
 2170 570 2136 537 2096 537 c 0
 2056 537 2022 570 2022 610 c 0
 2022 650 2056 684 2096 684 c 0
754 1224 m 0
 793 1224 828 1189 828 1150 c 0
 828 1111 793 1077 754 1077 c 0
 715 1077 681 1111 681 1150 c 0
 681 1189 715 1224 754 1224 c 0
1836 143 m 0
 1875 143 1909 109 1909 70 c 0
 1909 31 1875 -4 1836 -4 c 0
 1797 -4 1762 31 1762 70 c 0
 1762 109 1797 143 1836 143 c 0
755 143 m 0
 794 143 828 108 828 69 c 0
 828 30 794 -4 755 -4 c 0
 716 -4 681 30 681 69 c 0
 681 108 716 143 755 143 c 0
1835 1224 m 0
 1874 1224 1909 1190 1909 1151 c 0
 1909 1112 1874 1077 1835 1077 c 0
 1796 1077 1762 1112 1762 1151 c 0
 1762 1190 1796 1224 1835 1224 c 0
1296 1670 m 1
 985 1360 l 1
 545 1360 l 1
 545 921 l 1
 235 610 l 1
 545 299 l 1
 545 -140 l 1
 985 -140 l 1
 1296 -450 l 1
 1606 -140 l 1
 2045 -140 l 1
 2045 299 l 1
 2356 610 l 1
 2045 921 l 1
 2045 1360 l 1
 1606 1360 l 1
 1296 1670 l 1
1295 1855 m 1
 1660 1491 l 1
 2176 1491 l 1
 2176 975 l 1
 2541 610 l 1
 2176 245 l 1
 2176 -271 l 1
 1660 -271 l 1
 1295 -635 l 1
 931 -271 l 1
 414 -271 l 1
 414 246 l 1
 48 610 l 1
 414 974 l 1
 414 1491 l 1
 931 1491 l 1
 1295 1855 l 1
EndSplineSet
Refer: 1231 57390 N 1 0 0 1 817 48 2
EndChar

StartChar: uni06DF
Encoding: 1759 1759 698
Width: 0
GlyphClass: 4
Flags: HMW
AnchorPoint: "Anchor1" 0 892 mark 0
AnchorPoint: "Anchor1" 0 1170 basemark 0
AnchorPoint: "Anchor5" 0 892 mark 0
AnchorPoint: "Anchor4" 0 892 mark 0
LayerCount: 2
Fore
SplineSet
-82 1177 m 0
 -82 1222 -45 1258 0 1258 c 0
 45 1258 82 1222 82 1177 c 0
 82 1132 45 1095 0 1095 c 0
 -45 1095 -82 1132 -82 1177 c 0
EndSplineSet
EndChar

StartChar: uni06E0
Encoding: 1760 1760 699
Width: 0
GlyphClass: 4
Flags: HMW
AnchorPoint: "Anchor1" 0 892 mark 0
AnchorPoint: "Anchor1" 0 1170 basemark 0
AnchorPoint: "Anchor5" 0 892 mark 0
AnchorPoint: "Anchor4" 0 892 mark 0
LayerCount: 2
Fore
SplineSet
-82 1095 m 1
 -82 1258 l 1
 82 1258 l 1
 82 1095 l 1
 -82 1095 l 1
EndSplineSet
EndChar

StartChar: uni06E9
Encoding: 1769 1769 708
Width: 1236
GlyphClass: 2
Flags: HMW
LayerCount: 2
Fore
SplineSet
331 83 m 1
 331 671 l 1
 83 954 l 1
 618 1445 l 1
 1153 954 l 1
 905 671 l 1
 905 83 l 1
 1083 83 l 1
 1083 0 l 1
 153 0 l 1
 153 83 l 1
 331 83 l 1
809 713 m 1
 1025 947 l 1
 618 1316 l 1
 211 947 l 1
 427 713 l 1
 427 83 l 1
 809 83 l 1
 809 713 l 1
660 921 m 1
 660 198 l 1
 576 198 l 1
 576 921 l 1
 660 921 l 1
EndSplineSet
EndChar

StartChar: uni06F0
Encoding: 1776 1776 714
Width: 978
GlyphClass: 2
Flags: HMW
LayerCount: 2
Fore
SplineSet
489 633 m 0
 409 633 381 582 381 538 c 0
 381 494 409 439 489 439 c 0
 569 439 598 494 598 538 c 0
 598 582 569 633 489 633 c 0
489 928 m 0
 707 928 871 764 871 538 c 0
 871 313 710 143 489 143 c 0
 268 143 109 314 109 538 c 0
 109 763 270 928 489 928 c 0
EndSplineSet
Substitution2: "'tnum' Tabular Numbers lookup 22 subtable" uni06F0.tnum
Substitution2: "Single Substitution lookup 178 subtable" uni06F0.EoA
Substitution2: "SingleSubstitutionlookup179 subtable" uni06F0.s
EndChar

StartChar: uni06F4
Encoding: 1780 1780 718
Width: 1268
GlyphClass: 2
Flags: HMW
LayerCount: 2
Fore
SplineSet
500 1272 m 1
 601 1460.41666667 741 1538 970 1538 c 0
 1042 1538 1141 1517 1238 1480 c 1
 1134 1147 l 1
 1062 1174 995 1186 933 1186 c 0
 809 1186 709 1114 709 1032 c 1
 709 950 798 898 938 898 c 0
 1010 898 1080 907 1150 923 c 1
 1227 587 l 1
 1124 559 1028 542 954 542 c 0
 827 542 738 564 623 628 c 1
 614 624 l 1
 645 350.618892508 650 247.973941368 650 0 c 1
 275 0 l 1
 270 521 201 930 33 1408 c 1
 405 1525 l 1
 445 1425.52321981 460 1381.65944272 490 1272 c 1
 500 1272 l 1
EndSplineSet
Substitution2: "'tnum' Tabular Numbers lookup 22 subtable" uni06F4.tnum
Substitution2: "'locl' Localized Forms in Arabic lookup 5 subtable" uni06F4.urdu
Substitution2: "Single Substitution lookup 178 subtable" uni06F4.EoA
Substitution2: "SingleSubstitutionlookup179 subtable" uni06F4.s
EndChar

StartChar: uni06F5
Encoding: 1781 1781 719
Width: 1339
GlyphClass: 2
Flags: HMW
LayerCount: 2
Fore
SplineSet
544 562 m 1
 775 562 l 1
 775 557 l 2
 775 445 803 389 858 389 c 0
 909 389 933 415 933 468 c 0
 933 589 835 759 678 911 c 1
 487 770 385 622 385 485 c 0
 385 418 409 389 467 389 c 0
 522 389 544 438 544 557 c 2
 544 562 l 1
678 144 m 1
 622 28 554 -11 411 -11 c 0
 201 -11 62 150 62 392 c 0
 62 637 216 924 456 1127 c 1
 438 1145 409 1169 333 1231 c 1
 540 1523 l 1
 985 1232 1279 829 1279 508 c 0
 1279 182 1152 -11 936 -11 c 0
 808 -11 734 35 688 144 c 1
 678 144 l 1
EndSplineSet
Substitution2: "'tnum' Tabular Numbers lookup 22 subtable" uni06F5.tnum
Substitution2: "Single Substitution lookup 178 subtable" uni06F5.EoA
Substitution2: "SingleSubstitutionlookup179 subtable" uni06F5.s
EndChar

StartChar: uni06F6
Encoding: 1782 1782 720
Width: 1192
GlyphClass: 2
Flags: HMW
LayerCount: 2
Fore
SplineSet
399 579 m 1
 204 686 119 806 119 987 c 0
 119 1282 345 1517 630 1517 c 0
 757 1517 892 1471 1017 1380 c 1
 860 1092 l 1
 770 1131 697 1150 637 1150 c 0
 531 1150 453 1089 453 1006 c 0
 453 926 526 884 666 884 c 0
 742 884 862 894 1053 923 c 2
 1075 927 l 1
 1107 554 l 1
 1086 552 l 2
 858 530 749 432 387 -71 c 1
 83 162 l 1
 221 355 310 465 403 569 c 1
 399 579 l 1
EndSplineSet
Substitution2: "'tnum' Tabular Numbers lookup 22 subtable" uni06F6.tnum
Substitution2: "'locl' Localized Forms in Arabic lookup 5 subtable" uni0666
Substitution2: "Single Substitution lookup 178 subtable" uni06F6.EoA
Substitution2: "SingleSubstitutionlookup179 subtable" uni06F6.s
EndChar

StartChar: uni1D00
Encoding: 7424 7424 807
Width: 1182
GlyphClass: 2
Flags: HMW
LayerCount: 2
Fore
SplineSet
392 0 m 1
 -12 0 l 1
 364 1137 l 1
 814 1137 l 1
 1196 0 l 1
 792 0 l 1
 739 220 l 1
 446 220 l 1
 392 0 l 1
585 764 m 1
 500 438 l 1
 681 438 l 1
 595 764 l 1
 585 764 l 1
EndSplineSet
EndChar

StartChar: uni1D01
Encoding: 7425 7425 808
Width: 1494
GlyphClass: 2
Flags: HMW
LayerCount: 2
Fore
SplineSet
508 438 m 1
 661 438 l 1
 661 764 l 1
 600 764 l 1
 508 438 l 1
392 0 m 1
 -12 0 l 1
 374 1137 l 1
 1446 1137 l 1
 1446 829 l 1
 1026 829 l 1
 1026 685 l 1
 1390 685 l 1
 1390 449 l 1
 1026 449 l 1
 1026 305 l 1
 1446 305 l 1
 1446 0 l 1
 661 0 l 1
 661 220 l 1
 449 220 l 1
 392 0 l 1
EndSplineSet
EndChar

StartChar: uni1D04
Encoding: 7428 7428 809
Width: 1121
GlyphClass: 2
Flags: HMW
LayerCount: 2
Fore
SplineSet
582 1147 m 0
 904.232741617 1147 1100.01972387 941 1099 676 c 1
 755 676 l 1
 735.823529412 783 678.294117647 845 592 845 c 0
 479.456790123 845 420 744 420 568 c 0
 420 393 477.439490446 292 587 292 c 0
 676.316455696 292 734.797468354 352 755 460 c 1
 1099 460 l 1
 1100.01992032 195 904.195219124 -11 587 -11 c 0
 242.449612403 -11 61 192 61 568 c 0
 61 944 244.522504892 1147 582 1147 c 0
EndSplineSet
EndChar

StartChar: uni1D05
Encoding: 7429 7429 810
Width: 1198
GlyphClass: 2
Flags: HMW
LayerCount: 2
Fore
SplineSet
99 1137 m 1
 609 1137 l 2
 968 1137 1121 904 1121 568 c 0
 1121 232 968 0 609 0 c 2
 99 0 l 1
 99 1137 l 1
494 882 m 1
 494 270 l 1
 569 270 l 2
 683 270 743 330 743 568 c 0
 743 805 683 882 569 882 c 2
 494 882 l 1
EndSplineSet
EndChar

StartChar: uni1D07
Encoding: 7431 7431 811
Width: 962
GlyphClass: 2
Flags: HMW
LayerCount: 2
Fore
SplineSet
914 305 m 1
 914 0 l 1
 99 0 l 1
 99 1137 l 1
 914 1137 l 1
 914 830 l 1
 494 830 l 1
 494 685 l 1
 858 685 l 1
 858 449 l 1
 494 449 l 1
 494 305 l 1
 914 305 l 1
EndSplineSet
EndChar

StartChar: uni1D0A
Encoding: 7434 7434 812
Width: 811
GlyphClass: 2
Flags: HMW
LayerCount: 2
Fore
SplineSet
29 45 m 1
 81 290 l 1
 126.684210526 278 170.192982456 275 205 275 c 0
 278.442307692 275 319 301 319 355 c 2
 319 1137 l 1
 715 1137 l 1
 715 319 l 2
 715 78 531.264550265 -11 327 -11 c 0
 225.597222222 -11 120.055555556 9 29 45 c 1
EndSplineSet
EndChar

StartChar: uni1D0B
Encoding: 7435 7435 813
Width: 1237
GlyphClass: 2
Flags: HMW
LayerCount: 2
Fore
SplineSet
786 1137 m 1
 1229 1137 l 1
 763 568 l 1
 1231 0 l 1
 785 0 l 1
 512 419 l 1
 494 419 l 1
 494 0 l 1
 99 0 l 1
 99 1137 l 1
 494 1137 l 1
 494 743 l 1
 512 743 l 1
 786 1137 l 1
EndSplineSet
EndChar

StartChar: uni1D0D
Encoding: 7437 7437 814
Width: 1615
GlyphClass: 2
Flags: HMW
LayerCount: 2
Fore
SplineSet
494 0 m 1
 99 0 l 1
 99 1137 l 1
 547 1137 l 1
 806 386 l 1
 1068 1137 l 1
 1518 1137 l 1
 1518 0 l 1
 1123 0 l 1
 1123 530 l 1
 1113 530 l 1
 927 0 l 1
 687 0 l 1
 504 532 l 1
 494 532 l 1
 494 0 l 1
EndSplineSet
EndChar

StartChar: uni1D0F
Encoding: 7439 7439 815
Width: 1181
GlyphClass: 2
Flags: HMW
LayerCount: 2
Fore
SplineSet
592 1147 m 0
 975.216890595 1147 1123 910 1123 568 c 0
 1123 226 973.178502879 -11 592 -11 c 0
 210.835249042 -11 60 226 60 568 c 0
 60 910 209.816091954 1147 592 1147 c 0
592 844 m 0
 493.223602484 844 421 764 421 568 c 0
 421 372 490.037267081 291 592 291 c 0
 693.925925926 291 764 372 764 568 c 0
 764 764 690.740740741 844 592 844 c 0
EndSplineSet
EndChar

StartChar: uni1D18
Encoding: 7448 7448 816
Width: 1178
GlyphClass: 2
Flags: HMW
LayerCount: 2
Fore
SplineSet
493 882 m 1
 493 611 l 1
 584 611 l 2
 683 611 726 646 726 747 c 0
 726 848 681 882 584 882 c 2
 493 882 l 1
493 0 m 1
 99 0 l 1
 99 1137 l 1
 654 1137 l 2
 955 1137 1121 991 1121 744 c 0
 1121 494 952 356 654 356 c 2
 493 356 l 1
 493 0 l 1
EndSplineSet
EndChar

StartChar: uni1D1B
Encoding: 7451 7451 817
Width: 1091
GlyphClass: 2
Flags: HMW
LayerCount: 2
Fore
SplineSet
744 0 m 1
 349 0 l 1
 349 809 l 1
 20 809 l 1
 20 1137 l 1
 1075 1137 l 1
 1075 809 l 1
 744 809 l 1
 744 0 l 1
EndSplineSet
EndChar

StartChar: uni1D1C
Encoding: 7452 7452 818
Width: 1265
GlyphClass: 2
Flags: HMW
LayerCount: 2
Fore
SplineSet
811 1137 m 1
 1177 1137 l 1
 1177 464 l 2
 1177 141 962.041275797 -7 634 -7 c 0
 305.970037453 -7 90 141 90 464 c 2
 90 1137 l 1
 457 1137 l 1
 457 496 l 2
 457 378 475.017964072 300 634 300 c 0
 792.982035928 300 811 378 811 496 c 2
 811 1137 l 1
EndSplineSet
EndChar

StartChar: uni1D20
Encoding: 7456 7456 819
Width: 1182
GlyphClass: 2
Flags: HMW
LayerCount: 2
Fore
SplineSet
600 374 m 1
 792 1137 l 1
 1196 1137 l 1
 819 0 l 1
 371 0 l 1
 -12 1137 l 1
 392 1137 l 1
 590 374 l 1
 600 374 l 1
EndSplineSet
EndChar

StartChar: uni1D21
Encoding: 7457 7457 820
Width: 1714
GlyphClass: 2
Flags: HMW
LayerCount: 2
Fore
SplineSet
1189 485 m 1
 1327 1137 l 1
 1696 1137 l 1
 1411 0 l 1
 1034 0 l 1
 862 562 l 1
 852 562 l 1
 683 0 l 1
 284 0 l 1
 20 1137 l 1
 388 1137 l 1
 528 485 l 1
 538 485 l 1
 714 1137 l 1
 1001 1137 l 1
 1179 485 l 1
 1189 485 l 1
EndSplineSet
EndChar

StartChar: uni1D22
Encoding: 7458 7458 821
Width: 1083
GlyphClass: 2
Flags: HMW
LayerCount: 2
Fore
SplineSet
86 1137 m 1
 988 1137 l 1
 988 901 l 1
 531 326 l 1
 988 326 l 1
 988 0 l 1
 86 0 l 1
 86 236 l 1
 541 810 l 1
 86 810 l 1
 86 1137 l 1
EndSplineSet
EndChar

StartChar: uni1E9E
Encoding: 7838 7838 981
Width: 1388
GlyphClass: 2
Flags: HMW
LayerCount: 2
Fore
SplineSet
110 0 m 1
 110 1040 l 2
 110 1375 299 1618 672 1618 c 0
 965 1618 1207 1462 1207 1184 c 0
 1207 987 1119 899 978 859 c 1
 1193 811 1330 690 1330 404 c 0
 1330 110 1152 -10 904 -10 c 0
 650 -10 534 135 534 391 c 1
 762 391 l 1
 762 337 787 297 844 297 c 0
 917 297 940 374 940 453 c 0
 940 653 797 717 641 717 c 1
 641 1019 l 1
 775 1019 817 1083 817 1151 c 0
 817 1254 752 1303 673 1303 c 0
 550 1303 504 1200 504 1099 c 2
 504 0 l 1
 110 0 l 1
EndSplineSet
EndChar

StartChar: uni200C
Encoding: 8204 8204 1073
Width: 0
GlyphClass: 2
Flags: HMW
LayerCount: 2
Fore
SplineSet
61 1366 m 1
 61 -291 l 1
 -61 -291 l 1
 -61 1366 l 1
 61 1366 l 1
EndSplineSet
EndChar

StartChar: uni200D
Encoding: 8205 8205 1074
Width: 0
GlyphClass: 2
Flags: HMW
LayerCount: 2
Fore
SplineSet
163 -302 m 1
 44 -184 l 1
 131 -97 l 1
 249 -216 l 1
 163 -302 l 1
-131 -9 m 1
 -249 110 l 1
 -163 196 l 1
 -44 78 l 1
 -131 -9 l 1
249 110 m 1
 -163 -302 l 1
 -249 -216 l 1
 163 196 l 1
 249 110 l 1
163 1011 m 1
 44 1129 l 1
 131 1216 l 1
 249 1097 l 1
 163 1011 l 1
-131 1304 m 1
 -249 1423 l 1
 -163 1509 l 1
 -44 1391 l 1
 -131 1304 l 1
249 1423 m 1
 -163 1011 l 1
 -249 1097 l 1
 163 1509 l 1
 249 1423 l 1
-61 1016 m 1
 61 1016 l 1
 61 189 l 1
 -61 189 l 1
 -61 1016 l 1
EndSplineSet
EndChar

StartChar: uni200E
Encoding: 8206 8206 1075
Width: 0
GlyphClass: 2
Flags: HMW
LayerCount: 2
Fore
SplineSet
303 1022 m 1
 217 1108 l 1
 379 1271 l 1
 217 1434 l 1
 303 1520 l 1
 553 1271 l 1
 303 1022 l 1
304 -311 m 1
 218 -225 l 1
 380 -62 l 1
 218 101 l 1
 304 187 l 1
 554 -62 l 1
 304 -311 l 1
61 49 m 2
 61 14 77 -1 112 -1 c 2
 222 -1 l 1
 222 -125 l 1
 112 -125 l 2
 13 -125 -61 -50 -61 49 c 2
 -61 1159 l 2
 -61 1258 13 1333 112 1333 c 2
 222 1333 l 1
 222 1209 l 1
 112 1209 l 2
 77 1209 61 1194 61 1159 c 2
 61 49 l 2
EndSplineSet
EndChar

StartChar: uni200F
Encoding: 8207 8207 1076
Width: 0
GlyphClass: 2
Flags: HMW
LayerCount: 2
Fore
SplineSet
-303 1022 m 1
 -553 1271 l 1
 -303 1520 l 1
 -217 1434 l 1
 -379 1271 l 1
 -217 1108 l 1
 -303 1022 l 1
-304 -311 m 1
 -554 -62 l 1
 -304 187 l 1
 -218 101 l 1
 -380 -62 l 1
 -218 -225 l 1
 -304 -311 l 1
-61 49 m 2
 -61 1159 l 2
 -61 1194 -77 1209 -112 1209 c 2
 -222 1209 l 1
 -222 1333 l 1
 -112 1333 l 2
 -13 1333 61 1258 61 1159 c 2
 61 49 l 2
 61 -50 -13 -125 -112 -125 c 2
 -222 -125 l 1
 -222 -1 l 1
 -112 -1 l 2
 -77 -1 -61 14 -61 49 c 2
EndSplineSet
EndChar

StartChar: figuredash
Encoding: 8210 8210 1079
Width: 1522
GlyphClass: 2
Flags: HMW
LayerCount: 2
Fore
SplineSet
1464 785 m 1
 1464 505 l 1
 58 505 l 1
 58 785 l 1
 1464 785 l 1
EndSplineSet
EndChar

StartChar: emdash
Encoding: 8212 8212 1081
Width: 2048
GlyphClass: 2
Flags: HMW
LayerCount: 2
Fore
SplineSet
1989 785 m 1
 1989 505 l 1
 59 505 l 1
 59 785 l 1
 1989 785 l 1
EndSplineSet
EndChar

StartChar: quoteleft
Encoding: 8216 8216 1083
Width: 663
GlyphClass: 2
Flags: HMW
LayerCount: 2
Fore
SplineSet
457 1602 m 1
 556 1119 l 1
 308 995 l 1
 110 1602 l 1
 457 1602 l 1
EndSplineSet
EndChar

StartChar: quoteright
Encoding: 8217 8217 1084
Width: 663
GlyphClass: 2
Flags: HMW
LayerCount: 2
Fore
SplineSet
207 1602 m 1
 556 1602 l 1
 358 995 l 1
 110 1119 l 1
 207 1602 l 1
EndSplineSet
EndChar

StartChar: dagger
Encoding: 8224 8224 1091
Width: 1521
GlyphClass: 2
Flags: HMW
LayerCount: 2
Fore
SplineSet
200 880 m 1
 200 1163 l 1
 1321 1163 l 1
 1321 880 l 1
 200 880 l 1
591 1507 m 1
 933 1507 l 1
 933 -461 l 1
 591 -461 l 1
 591 1507 l 1
EndSplineSet
EndChar

StartChar: daggerdbl
Encoding: 8225 8225 1092
Width: 1521
GlyphClass: 2
Flags: HMW
LayerCount: 2
Fore
SplineSet
200 -115 m 1
 200 168 l 1
 1321 168 l 1
 1321 -115 l 1
 200 -115 l 1
200 880 m 1
 200 1163 l 1
 1321 1163 l 1
 1321 880 l 1
 200 880 l 1
591 1507 m 1
 933 1507 l 1
 933 -461 l 1
 591 -461 l 1
 591 1507 l 1
EndSplineSet
EndChar

StartChar: bullet
Encoding: 8226 8226 1093
Width: 634
GlyphClass: 2
Flags: HMW
LayerCount: 2
Fore
SplineSet
100 688 m 0
 100 809 198 906 318 906 c 0
 438 906 537 809 537 688 c 0
 537 567 438 469 318 469 c 0
 198 469 100 567 100 688 c 0
EndSplineSet
EndChar

StartChar: uni202A
Encoding: 8234 8234 1095
Width: 0
GlyphClass: 2
Flags: HMW
LayerCount: 2
Fore
SplineSet
-57 965 m 1
 -144 1053 l 1
 19 1214 l 1
 -144 1377 l 1
 -57 1465 l 1
 192 1214 l 1
 -57 965 l 1
-70 852 m 1
 70 852 l 1
 70 47 l 1
 -70 47 l 1
 -70 852 l 1
EndSplineSet
EndChar

StartChar: uni202B
Encoding: 8235 8235 1096
Width: 0
GlyphClass: 2
Flags: HMW
LayerCount: 2
Fore
SplineSet
57 965 m 1
 -192 1214 l 1
 57 1465 l 1
 144 1377 l 1
 -19 1214 l 1
 144 1053 l 1
 57 965 l 1
-70 852 m 1
 70 852 l 1
 70 47 l 1
 -70 47 l 1
 -70 852 l 1
EndSplineSet
EndChar

StartChar: uni202C
Encoding: 8236 8236 1097
Width: 0
GlyphClass: 2
Flags: HMW
LayerCount: 2
Fore
SplineSet
-248 1133 m 1
 0 1381 l 1
 250 1133 l 1
 164 1046 l 1
 0 1208 l 1
 -162 1046 l 1
 -248 1133 l 1
-70 852 m 1
 70 852 l 1
 70 47 l 1
 -70 47 l 1
 -70 852 l 1
EndSplineSet
EndChar

StartChar: uni202D
Encoding: 8237 8237 1098
Width: 0
GlyphClass: 2
Flags: HMW
LayerCount: 2
Fore
SplineSet
95 965 m 1
 9 1053 l 1
 171 1214 l 1
 9 1377 l 1
 95 1465 l 1
 344 1214 l 1
 95 965 l 1
-179 965 m 1
 -266 1053 l 1
 -103 1214 l 1
 -266 1377 l 1
 -179 1465 l 1
 70 1214 l 1
 -179 965 l 1
-70 852 m 1
 70 852 l 1
 70 47 l 1
 -70 47 l 1
 -70 852 l 1
EndSplineSet
EndChar

StartChar: uni202E
Encoding: 8238 8238 1099
Width: 0
GlyphClass: 2
Flags: HMW
LayerCount: 2
Fore
SplineSet
-95 965 m 1
 -344 1214 l 1
 -95 1465 l 1
 -9 1377 l 1
 -171 1214 l 1
 -9 1053 l 1
 -95 965 l 1
179 965 m 1
 -70 1214 l 1
 179 1465 l 1
 266 1377 l 1
 103 1214 l 1
 266 1053 l 1
 179 965 l 1
-70 852 m 1
 70 852 l 1
 70 47 l 1
 -70 47 l 1
 -70 852 l 1
EndSplineSet
EndChar

StartChar: minute
Encoding: 8242 8242 1101
Width: 477
GlyphClass: 2
Flags: HMW
LayerCount: 2
Fore
SplineSet
198 1707 m 1
 399 1707 l 1
 241 1189 l 1
 78 1189 l 1
 198 1707 l 1
EndSplineSet
EndChar

StartChar: uni2035
Encoding: 8245 8245 1104
Width: 477
GlyphClass: 2
Flags: HMW
LayerCount: 2
Fore
SplineSet
282 1707 m 1
 399 1189 l 1
 239 1189 l 1
 78 1707 l 1
 282 1707 l 1
EndSplineSet
EndChar

StartChar: guilsinglleft
Encoding: 8249 8249 1107
Width: 585
GlyphClass: 2
Flags: HMW
LayerCount: 2
Fore
SplineSet
344 756 m 1
 548 941 l 1
 402 1096 l 1
 40 756 l 1
 402 417 l 1
 548 571 l 1
 344 756 l 1
EndSplineSet
EndChar

StartChar: guilsinglright
Encoding: 8250 8250 1108
Width: 585
GlyphClass: 2
Flags: HMW
LayerCount: 2
Fore
SplineSet
242 756 m 1
 40 571 l 1
 185 417 l 1
 548 756 l 1
 185 1096 l 1
 40 941 l 1
 242 756 l 1
EndSplineSet
EndChar

StartChar: fraction
Encoding: 8260 8260 1109
Width: 1156
GlyphClass: 2
Flags: HMW
LayerCount: 2
Fore
SplineSet
113 -140 m 1
 -73 1 l 1
 879 1246 l 1
 1066 1104 l 1
 113 -140 l 1
EndSplineSet
EndChar

StartChar: uni2070
Encoding: 8304 8304 1110
Width: 829
GlyphClass: 2
Flags: HMW
LayerCount: 2
Fore
SplineSet
415 1704 m 0
 327 1704 295 1645 295 1494 c 0
 295 1342 327 1283 415 1283 c 0
 507 1283 534 1334 534 1494 c 0
 534 1653 508 1704 415 1704 c 0
415 1910 m 0
 643 1910 764 1767 764 1494 c 0
 764 1221 643 1078 415 1078 c 0
 187 1078 65 1221 65 1494 c 0
 65 1767 187 1910 415 1910 c 0
EndSplineSet
EndChar

StartChar: uni2074
Encoding: 8308 8308 1111
Width: 793
GlyphClass: 2
Flags: HMW
LayerCount: 2
Fore
SplineSet
412 1401 m 1
 412 1586 l 1
 239 1401 l 1
 412 1401 l 1
412 1221 m 1
 35 1221 l 1
 35 1396 l 1
 441 1903 l 1
 653 1903 l 1
 653 1401 l 1
 750 1401 l 1
 750 1221 l 1
 653 1221 l 1
 653 1082 l 1
 412 1082 l 1
 412 1221 l 1
EndSplineSet
EndChar

StartChar: uni2075
Encoding: 8309 8309 1112
Width: 769
GlyphClass: 2
Flags: HMW
LayerCount: 2
Fore
SplineSet
102 1904 m 1
 687 1904 l 1
 687 1713 l 1
 294 1713 l 1
 283 1600 l 1
 295 1600 l 1
 344 1645 378 1657 448 1657 c 0
 600 1657 711 1538 711 1363 c 0
 711 1176 588 1078 371 1078 c 0
 169 1078 58 1167 58 1338 c 1
 313 1338 l 1
 321 1312 341 1290 384 1290 c 0
 422 1290 453 1312 453 1371 c 0
 453 1430 422 1452 378 1452 c 0
 346 1452 325 1437 315 1411 c 1
 61 1411 l 1
 102 1904 l 1
EndSplineSet
EndChar

StartChar: uni2076
Encoding: 8310 8310 1113
Width: 747
GlyphClass: 2
Flags: HMW
LayerCount: 2
Fore
SplineSet
373 1424 m 0
 332 1424 299 1399 299 1355 c 0
 299 1311 332 1287 373 1287 c 0
 414 1287 446 1311 446 1355 c 0
 446 1399 414 1424 373 1424 c 0
459 1614 m 0
 604 1614 702 1513 702 1369 c 0
 702 1185 577 1078 382 1078 c 0
 164 1078 60 1207 60 1496 c 0
 60 1771 169 1910 389 1910 c 0
 567 1910 678 1822 692 1650 c 1
 476 1650 l 1
 454 1680 435 1692 393 1692 c 0
 343 1692 301 1653 301 1587 c 1
 308 1587 l 1
 346 1608 395 1614 459 1614 c 0
EndSplineSet
EndChar

StartChar: uni2077
Encoding: 8311 8311 1114
Width: 690
GlyphClass: 2
Flags: HMW
LayerCount: 2
Fore
SplineSet
663 1680 m 1
 448 1491 378 1319 378 1082 c 1
 130 1082 l 1
 130 1295 198 1510 368 1686 c 1
 21 1686 l 1
 21 1903 l 1
 619 1903 l 1
 663 1680 l 1
EndSplineSet
EndChar

StartChar: uni2078
Encoding: 8312 8312 1115
Width: 754
GlyphClass: 2
Flags: HMW
LayerCount: 2
Fore
SplineSet
377 1910 m 0
 554 1910 675 1813 675 1684 c 0
 675 1602 643 1543 566 1521 c 1
 566 1510 l 1
 652 1477 696 1411 696 1313 c 0
 696 1175 591 1078 377 1078 c 0
 166 1078 58 1178 58 1314 c 0
 58 1410 100 1474 188 1509 c 1
 188 1520 l 1
 112 1542 79 1601 79 1683 c 0
 79 1815 198 1910 377 1910 c 0
376 1719 m 0
 339 1719 312 1700 312 1661 c 0
 312 1622 339 1603 376 1603 c 0
 413 1603 440 1622 440 1661 c 0
 440 1700 413 1719 376 1719 c 0
375 1412 m 0
 331 1412 298 1391 298 1348 c 0
 298 1305 331 1284 375 1284 c 0
 419 1284 452 1305 452 1348 c 0
 452 1391 419 1412 375 1412 c 0
EndSplineSet
EndChar

StartChar: arrowleft
Encoding: 8592 8592 1145
Width: 1630
GlyphClass: 2
Flags: HMW
LayerCount: 2
Fore
SplineSet
1482 579 m 1
 556 579 l 1
 483 597 l 1
 806 273 l 1
 675 143 l 1
 150 669 l 1
 675 1196 l 1
 806 1065 l 1
 483 742 l 1
 556 760 l 1
 1482 760 l 1
 1482 579 l 1
EndSplineSet
EndChar

StartChar: arrowup
Encoding: 8593 8593 1146
Width: 1352
GlyphClass: 2
Flags: HMW
LayerCount: 2
Fore
SplineSet
586 -5 m 1
 586 922 l 1
 604 996 l 1
 281 673 l 1
 150 802 l 1
 676 1329 l 1
 1203 802 l 1
 1073 673 l 1
 750 996 l 1
 768 922 l 1
 768 -5 l 1
 586 -5 l 1
EndSplineSet
EndChar

StartChar: arrowright
Encoding: 8594 8594 1147
Width: 1630
GlyphClass: 2
Flags: HMW
LayerCount: 2
Fore
SplineSet
150 760 m 1
 1075 760 l 1
 1149 742 l 1
 826 1065 l 1
 955 1196 l 1
 1482 669 l 1
 955 143 l 1
 826 273 l 1
 1149 597 l 1
 1075 579 l 1
 150 579 l 1
 150 760 l 1
EndSplineSet
EndChar

StartChar: arrowdown
Encoding: 8595 8595 1148
Width: 1352
GlyphClass: 2
Flags: HMW
LayerCount: 2
Fore
SplineSet
768 1328 m 1
 768 401 l 1
 750 326 l 1
 1073 651 l 1
 1203 520 l 1
 676 -7 l 1
 150 520 l 1
 281 651 l 1
 604 326 l 1
 586 401 l 1
 586 1328 l 1
 768 1328 l 1
EndSplineSet
EndChar

StartChar: arrowboth
Encoding: 8596 8596 1149
Width: 2137
GlyphClass: 2
Flags: HMW
LayerCount: 2
Fore
SplineSet
675 1196 m 1
 806 1065 l 1
 483 742 l 1
 556 760 l 1
 1582 760 l 1
 1655 742 l 1
 1332 1065 l 1
 1463 1196 l 1
 1988 669 l 1
 1463 143 l 1
 1332 273 l 1
 1655 597 l 1
 1582 579 l 1
 556 579 l 1
 483 597 l 1
 806 273 l 1
 675 143 l 1
 150 669 l 1
 675 1196 l 1
EndSplineSet
EndChar

StartChar: arrowupdn
Encoding: 8597 8597 1150
Width: 1352
GlyphClass: 2
Flags: HMW
LayerCount: 2
Fore
SplineSet
676 1590 m 1
 1203 1063 l 1
 1073 933 l 1
 750 1257 l 1
 768 1182 l 1
 768 157 l 1
 750 81 l 1
 1073 406 l 1
 1203 276 l 1
 676 -251 l 1
 150 276 l 1
 281 406 l 1
 604 81 l 1
 586 157 l 1
 586 1182 l 1
 604 1257 l 1
 281 933 l 1
 150 1063 l 1
 676 1590 l 1
EndSplineSet
EndChar

StartChar: uni2196
Encoding: 8598 8598 1151
Width: 1374
GlyphClass: 2
Flags: HMW
LayerCount: 2
Fore
SplineSet
1098 104 m 1
 375 829 l 1
 333 894 l 1
 333 436 l 1
 150 436 l 1
 150 1180 l 1
 892 1180 l 1
 892 997 l 1
 436 997 l 1
 502 956 l 1
 1226 232 l 1
 1098 104 l 1
EndSplineSet
EndChar

StartChar: uni2197
Encoding: 8599 8599 1152
Width: 1374
GlyphClass: 2
Flags: HMW
LayerCount: 2
Fore
SplineSet
150 232 m 1
 875 956 l 1
 940 997 l 1
 482 997 l 1
 482 1180 l 1
 1226 1180 l 1
 1226 436 l 1
 1042 436 l 1
 1042 894 l 1
 1001 829 l 1
 278 104 l 1
 150 232 l 1
EndSplineSet
EndChar

StartChar: uni2198
Encoding: 8600 8600 1153
Width: 1374
GlyphClass: 2
Flags: HMW
LayerCount: 2
Fore
SplineSet
278 1180 m 1
 1001 456 l 1
 1042 389 l 1
 1042 846 l 1
 1226 846 l 1
 1226 104 l 1
 482 104 l 1
 482 286 l 1
 940 286 l 1
 875 327 l 1
 150 1052 l 1
 278 1180 l 1
EndSplineSet
EndChar

StartChar: uni2199
Encoding: 8601 8601 1154
Width: 1374
GlyphClass: 2
Flags: HMW
LayerCount: 2
Fore
SplineSet
1226 1052 m 1
 502 327 l 1
 436 286 l 1
 892 286 l 1
 892 104 l 1
 150 104 l 1
 150 846 l 1
 333 846 l 1
 333 389 l 1
 375 456 l 1
 1098 1180 l 1
 1226 1052 l 1
EndSplineSet
EndChar

StartChar: uni220E
Encoding: 8718 8718 1155
Width: 1102
GlyphClass: 2
Flags: HMW
LayerCount: 2
Fore
SplineSet
152 1239 m 1
 954 1239 l 1
 954 0 l 1
 152 0 l 1
 152 1239 l 1
EndSplineSet
EndChar

StartChar: uni2215
Encoding: 8725 8725 1157
Width: 1156
GlyphClass: 2
Flags: HMW
LayerCount: 2
Fore
SplineSet
113 -140 m 1
 -73 1 l 1
 879 1246 l 1
 1066 1104 l 1
 113 -140 l 1
EndSplineSet
EndChar

StartChar: approxequal
Encoding: 8776 8776 1158
Width: 1149
GlyphClass: 2
Flags: HMW
LayerCount: 2
Fore
SplineSet
58 391 m 1
 161 539 279 618 398 618 c 0
 459 618 525 598 596 556 c 0
 661 519 723 494 765 494 c 0
 816 494 879 534 945 606 c 1
 1092 459 l 1
 984 309 870 238 744 238 c 0
 684 238 631 254 538 305 c 0
 456 348 409 366 373 366 c 0
 324 366 270 329 213 255 c 1
 58 391 l 1
58 818 m 1
 161 966 279 1045 398 1045 c 0
 459 1045 525 1025 596 983 c 0
 661 946 723 921 765 921 c 0
 816 921 879 960 945 1032 c 1
 1092 886 l 1
 984 736 870 665 744 665 c 0
 684 665 631 681 538 732 c 0
 456 775 409 794 373 794 c 0
 324 794 270 757 213 683 c 1
 58 818 l 1
EndSplineSet
EndChar

StartChar: filledbox
Encoding: 9632 9632 1160
Width: 1102
GlyphClass: 2
Flags: HMW
LayerCount: 2
Fore
SplineSet
152 805 m 1
 955 805 l 1
 955 0 l 1
 152 0 l 1
 152 805 l 1
EndSplineSet
EndChar

StartChar: uni25CC
Encoding: 9676 9676 1161
Width: 1610
GlyphClass: 2
Flags: HMW
AnchorPoint: "Anchor5" 805 1311 basechar 0
AnchorPoint: "Anchor3" 805 227 basechar 0
AnchorPoint: "down_II" 805 227 basechar 0
AnchorPoint: "middle_dot_I" 1490 769 basechar 0
AnchorPoint: "down_I" 805 227 basechar 0
AnchorPoint: "up_II" 805 1311 basechar 0
AnchorPoint: "up_I" 805 1311 basechar 0
LayerCount: 2
Fore
SplineSet
743 227 m 0
 743 273 759 289 805 289 c 0
 851 289 867 273 867 227 c 0
 867 181 851 164 805 164 c 0
 759 164 743 181 743 227 c 0
743 1311 m 0
 743 1357 759 1374 805 1374 c 0
 851 1374 867 1357 867 1311 c 0
 867 1265 851 1249 805 1249 c 0
 759 1249 743 1265 743 1311 c 0
1347 707 m 0
 1301 707 1285 723 1285 769 c 0
 1285 815 1301 831 1347 831 c 0
 1393 831 1410 815 1410 769 c 0
 1410 723 1393 707 1347 707 c 0
263 707 m 0
 217 707 200 723 200 769 c 0
 200 815 217 831 263 831 c 0
 309 831 325 815 325 769 c 0
 325 723 309 707 263 707 c 0
1126 386 m 0
 1126 432 1142 448 1188 448 c 0
 1234 448 1251 432 1251 386 c 0
 1251 340 1234 323 1188 323 c 0
 1142 323 1126 340 1126 386 c 0
359 1152 m 0
 359 1198 376 1215 422 1215 c 0
 468 1215 484 1198 484 1152 c 0
 484 1106 468 1090 422 1090 c 0
 376 1090 359 1106 359 1152 c 0
1188 1090 m 0
 1142 1090 1126 1106 1126 1152 c 0
 1126 1198 1142 1215 1188 1215 c 0
 1234 1215 1251 1198 1251 1152 c 0
 1251 1106 1234 1090 1188 1090 c 0
422 323 m 0
 376 323 359 340 359 386 c 0
 359 432 376 448 422 448 c 0
 468 448 484 432 484 386 c 0
 484 340 468 323 422 323 c 0
535 268 m 0
 535 314 552 330 598 330 c 0
 644 330 660 314 660 268 c 0
 660 222 644 205 598 205 c 0
 552 205 535 222 535 268 c 0
1012 1333 m 0
 1058 1333 1075 1316 1075 1270 c 0
 1075 1224 1058 1208 1012 1208 c 0
 966 1208 950 1224 950 1270 c 0
 950 1316 966 1333 1012 1333 c 0
1306 499 m 0
 1260 499 1244 516 1244 562 c 0
 1244 608 1260 624 1306 624 c 0
 1352 624 1369 608 1369 562 c 0
 1369 516 1352 499 1306 499 c 0
241 976 m 0
 241 1022 258 1039 304 1039 c 0
 350 1039 366 1022 366 976 c 0
 366 930 350 914 304 914 c 0
 258 914 241 930 241 976 c 0
950 268 m 0
 950 314 966 330 1012 330 c 0
 1058 330 1075 314 1075 268 c 0
 1075 222 1058 205 1012 205 c 0
 966 205 950 222 950 268 c 0
535 1270 m 0
 535 1316 552 1333 598 1333 c 0
 644 1333 660 1316 660 1270 c 0
 660 1224 644 1208 598 1208 c 0
 552 1208 535 1224 535 1270 c 0
1306 914 m 0
 1260 914 1244 930 1244 976 c 0
 1244 1022 1260 1039 1306 1039 c 0
 1352 1039 1369 1022 1369 976 c 0
 1369 930 1352 914 1306 914 c 0
304 499 m 0
 258 499 241 516 241 562 c 0
 241 608 258 624 304 624 c 0
 350 624 366 608 366 562 c 0
 366 516 350 499 304 499 c 0
EndSplineSet
EndChar

StartChar: uniA729
Encoding: 42793 42793 1163
Width: 1985
GlyphClass: 2
Flags: HMW
LayerCount: 2
Fore
SplineSet
772 290 m 1
 828 45 l 1
 740 9 638 -11 540 -11 c 0
 341 -11 161 78 161 319 c 2
 161 1427 l 1
 557 1427 l 1
 557 355 l 2
 557 301 595 275 662 275 c 0
 694 275 730 278 772 290 c 1
EndSplineSet
Refer: 1196 57354 N 1 0 0 1 -24 381 2
Refer: 442 658 N 1 0 0 1 783 0 2
EndChar

StartChar: uniA730
Encoding: 42800 42800 1164
Width: 951
GlyphClass: 2
Flags: HMW
LayerCount: 2
Fore
SplineSet
99 0 m 1
 99 1137 l 1
 914 1137 l 1
 914 829 l 1
 494 829 l 1
 494 631 l 1
 858 631 l 1
 858 394 l 1
 494 394 l 1
 494 0 l 1
 99 0 l 1
EndSplineSet
EndChar

StartChar: uniA731
Encoding: 42801 42801 1165
Width: 1043
GlyphClass: 2
Flags: HMW
LayerCount: 2
Fore
SplineSet
58 396 m 1
 398 396 l 1
 398 317 440 285 538 285 c 0
 607.5625 285 644 305 644 343 c 0
 644 378 601.50295858 401 455 446 c 0
 191 536 86 634 86 787 c 0
 86 999 256.098765432 1147 501 1147 c 0
 805.422413793 1147 975 1008 975 763 c 1
 637 767 l 1
 637 819 597.363636364 852 528 852 c 0
 465.777777778 852 428 827 428 786 c 0
 428 752 466 732 593 690 c 0
 871.155495979 605 986 504 986 350 c 0
 986 134 810.995316159 -10 549 -10 c 0
 225.40956341 -10 58 128 58 396 c 1
EndSplineSet
EndChar

StartChar: uniA733
Encoding: 42803 42803 1167
Width: 1825
GlyphClass: 2
Flags: HMW
LayerCount: 2
Fore
SplineSet
1235 1149 m 0
 1557 1149 1744 999 1744 743 c 2
 1744 311 l 2
 1744 248 1766 221 1800 221 c 1
 1800 0 l 1
 1521 -63 1348 65 1348 315 c 2
 1348 743 l 2
 1348 818 1306 853 1214 853 c 0
 1121 853 1081 818 1081 743 c 1
 747 743 l 1
 727 1001 904 1149 1235 1149 c 0
574 1148 m 0
 926 1148 1083 974 1083 743 c 2
 1083 564 l 1
 687 289 l 1
 687 743 l 2
 687 811 654 852 554 852 c 0
 455 852 419 813 419 743 c 1
 87 743 l 1
 68 988 228 1148 574 1148 c 0
EndSplineSet
Refer: 1197 57355 N 1 0 0 1 648 0 2
Refer: 1197 57355 N 1 0 0 1 -14 0 2
EndChar

StartChar: uniA734
Encoding: 42804 42804 1168
Width: 2325
GlyphClass: 2
Flags: HMW
LayerCount: 2
Fore
SplineSet
740 1051 m 1
 607 613 l 1
 880 613 l 1
 750 1051 l 1
 740 1051 l 1
513 318 m 1
 412 0 l 1
 -10 0 l 1
 531 1507 l 1
 955 1507 l 1
 1381 318 l 1
 513 318 l 1
EndSplineSet
Refer: 47 79 N 1 0 0 1 813 0 2
EndChar

StartChar: uniA735
Encoding: 42805 42805 1169
Width: 1838
GlyphClass: 2
Flags: HMW
LayerCount: 2
Fore
SplineSet
686 317 m 1
 686 743 l 2
 686 819 645 852 553 852 c 0
 461 852 418 819 418 743 c 1
 86 743 l 1
 66 1001 243 1148 573 1148 c 0
 895 1148 1082 999 1082 743 c 2
 1082 317 l 1
 686 317 l 1
EndSplineSet
Refer: 1197 57355 N 1 0 0 1 0 0 2
Refer: 79 111 N 1 0 0 1 627 0 2
EndChar

StartChar: uniA736
Encoding: 42806 42806 1170
Width: 2258
GlyphClass: 2
Flags: HMW
LayerCount: 2
Fore
SplineSet
1745 1519 m 1
 2141 1519 l 1
 2141 630 l 2
 2141 240 1925 0 1497 0 c 1
 1347 349 l 1
 1497 349 l 2
 1698 349 1745 475 1745 631 c 2
 1745 1519 l 1
EndSplineSet
Refer: 33 65 N 1 0 0 1 0 0 2
EndChar

StartChar: uniA737
Encoding: 42807 42807 1171
Width: 1865
GlyphClass: 2
Flags: HMW
LayerCount: 2
Fore
SplineSet
1754 1137 m 1
 1754 311 l 2
 1754 248 1776 221 1810 221 c 1
 1810 0 l 1
 1531 -63 1358 65 1358 315 c 2
 1358 1137 l 1
 1754 1137 l 1
86 743 m 1
 66 1001 243 1148 573 1148 c 0
 895 1148 1082 999 1082 743 c 2
 1082 494 l 2
 1082 427 1136 365 1220 365 c 0
 1298 365 1358 418 1358 493 c 1
 1409 343 l 1
 1406 147 1278 -10 1048 -10 c 0
 816 -10 686 161 686 356 c 2
 686 743 l 2
 686 819 645 852 553 852 c 0
 461 852 418 819 418 743 c 1
 86 743 l 1
EndSplineSet
Refer: 1197 57355 N 1 0 0 1 0 0 2
EndChar

StartChar: uniA738
Encoding: 42808 42808 1172
Width: 2025
GlyphClass: 2
Flags: HMW
LayerCount: 2
Fore
SplineSet
1617 1507 m 1
 2039 1507 l 1
 1497 0 l 1
 1073 0 l 1
 976 318 l 1
 512 318 l 1
 411 0 l 1
 -11 0 l 1
 532 1507 l 1
 955 1507 l 1
 1282 452 l 1
 1292 452 l 1
 1617 1507 l 1
740 1051 m 1
 607 613 l 1
 880 613 l 1
 750 1051 l 1
 740 1051 l 1
EndSplineSet
EndChar

StartChar: uniA739
Encoding: 42809 42809 1173
Width: 1791
GlyphClass: 2
Flags: HMW
LayerCount: 2
Fore
SplineSet
823 340 m 1
 761 125 647 -11 402 -11 c 0
 206 -11 79 105 79 303 c 0
 79 552 312 675 545 675 c 2
 846 675 l 1
 846 451 l 1
 597 451 l 2
 492 451 412 412 412 349 c 0
 412 303 448 276 513 276 c 0
 589 276 670 323 705 360 c 1
 823 340 l 1
86 743 m 1
 66 1001 243 1148 573 1148 c 0
 835 1148 1003.99539897 1039.99870988 1064 826 c 2
 1177 423 l 1
 1187 423 l 1
 1380 1137 l 1
 1803 1137 l 1
 1407 0 l 1
 958 0 l 1
 692 755 l 2
 664 834 630 852 546 852 c 0
 460 852 418 819 418 743 c 1
 86 743 l 1
EndSplineSet
EndChar

StartChar: uniA73A
Encoding: 42810 42810 1174
Width: 2025
GlyphClass: 2
Flags: HMW
LayerCount: 2
Fore
SplineSet
984 1191 m 1
 1598 1191 l 1
 1598 896 l 1
 984 896 l 1
 984 1191 l 1
609 613 m 1
 878 613 l 1
 745 1056 l 1
 609 613 l 1
512 318 m 1
 411 0 l 1
 -11 0 l 1
 532 1507 l 1
 955 1507 l 1
 1285 452 l 1
 1617 1507 l 1
 2039 1507 l 1
 1497 0 l 1
 1073 0 l 1
 976 318 l 1
 512 318 l 1
EndSplineSet
EndChar

StartChar: uniA73B
Encoding: 42811 42811 1175
Width: 1791
GlyphClass: 2
Flags: HMW
LayerCount: 2
Fore
SplineSet
823 340 m 1
 761 125 647 -11 402 -11 c 0
 206 -11 79 105 79 303 c 0
 79 552 312 675 545 675 c 2
 846 675 l 1
 846 451 l 1
 597 451 l 2
 492 451 412 412 412 349 c 0
 412 303 448 276 513 276 c 0
 589 276 670 323 705 360 c 1
 823 340 l 1
984 948 m 1
 1332 948 l 1
 1332 740 l 1
 1053 740 l 1
 984 948 l 1
86 743 m 1
 66 1001 243 1148 573 1148 c 0
 835 1148 1003.99539897 1039.99870988 1064 826 c 2
 1177 423 l 1
 1187 423 l 1
 1380 1137 l 1
 1803 1137 l 1
 1407 0 l 1
 958 0 l 1
 692 755 l 2
 664 834 630 852 546 852 c 0
 460 852 418 819 418 743 c 1
 86 743 l 1
EndSplineSet
EndChar

StartChar: uniA73C
Encoding: 42812 42812 1176
Width: 2025
GlyphClass: 2
Flags: HMW
LayerCount: 2
Fore
SplineSet
512 318 m 1
 411 0 l 1
 -11 0 l 1
 532 1507 l 1
 955 1507 l 1
 1285 452 l 1
 1617 1507 l 1
 2039 1507 l 1
 1349 -432 l 1
 905 -432 l 1
 1092 29 l 1
 984 318 l 1
 512 318 l 1
609 613 m 1
 878 613 l 1
 745 1056 l 1
 609 613 l 1
EndSplineSet
EndChar

StartChar: uniA73D
Encoding: 42813 42813 1177
Width: 1791
GlyphClass: 2
Flags: HMW
LayerCount: 2
Fore
SplineSet
823 340 m 1
 761 125 647 -11 402 -11 c 0
 206 -11 79 105 79 303 c 0
 79 552 312 675 545 675 c 2
 846 675 l 1
 846 451 l 1
 597 451 l 2
 492 451 412 412 412 349 c 0
 412 303 448 276 513 276 c 0
 589 276 670 323 705 360 c 1
 823 340 l 1
702 730 m 2
 666 823 628 852 546 852 c 0
 458 852 418 818 418 743 c 1
 86 743 l 1
 67 999 240 1148 557 1148 c 0
 796 1148 936 1044 1022 804 c 2
 1177 373 l 1
 1187 373 l 1
 1380 1137 l 1
 1803 1137 l 1
 1386 -55 l 2
 1285 -343 1139 -471 909 -471 c 2
 599 -471 l 1
 599 -155 l 1
 773 -155 l 2
 878 -155 948 -117 972 -46 c 2
 988 1 l 1
 702 730 l 2
EndSplineSet
EndChar

StartChar: uniA760
Encoding: 42848 42848 1180
Width: 2569
GlyphClass: 2
Flags: HMW
LayerCount: 2
Fore
SplineSet
2134 1507 m 1
 2594 1507 l 1
 2034 655 l 1
 2034 0 l 1
 1638 0 l 1
 1638 655 l 1
 1348 1104 l 1
 953 0 l 1
 532 0 l 1
 -11 1507 l 1
 411 1507 l 1
 738 452 l 1
 748 452 l 1
 1073 1507 l 1
 1535 1507 l 1
 1835 965 l 1
 2134 1507 l 1
EndSplineSet
EndChar

StartChar: uniA761
Encoding: 42849 42849 1181
Width: 2049
GlyphClass: 2
Flags: HMW
LayerCount: 2
Fore
SplineSet
1032 562 m 1
 840 0 l 1
 391 0 l 1
 -12 1137 l 1
 413 1137 l 1
 610 423 l 1
 620 423 l 1
 813 1137 l 1
 1239 1137 l 1
 1435 373 l 1
 1445 373 l 1
 1638 1137 l 1
 2061 1137 l 1
 1644 -55 l 2
 1543 -343 1397 -471 1167 -471 c 2
 857 -471 l 1
 857 -155 l 1
 1031 -155 l 2
 1136 -155 1205 -117 1230 -46 c 2
 1246 1 l 1
 1032 562 l 1
EndSplineSet
EndChar

StartChar: uniAB50
Encoding: 43856 43856 1184
Width: 1960
GlyphClass: 2
Flags: HMW
LayerCount: 2
Fore
SplineSet
1849 1137 m 1
 1849 311 l 2
 1849 248 1871 221 1905 221 c 1
 1905 0 l 1
 1626 -63 1453 65 1453 315 c 2
 1453 1137 l 1
 1849 1137 l 1
781 648 m 1
 1177 648 l 1
 1177 493 l 2
 1177 426 1231 364 1315 364 c 0
 1393 364 1453 416 1453 491 c 1
 1502 342 l 1
 1499 146 1372 -11 1142 -11 c 0
 910 -11 781 160 781 355 c 2
 781 648 l 1
EndSplineSet
Refer: 1199 57357 N -1 0 0 -1 1196 1138 2
Refer: 14 46 N 1 0 0 1 686 785 2
EndChar

StartChar: uniAB5B
Encoding: 43867 43867 1185
Width: 738
GlyphClass: 2
Flags: HMW
LayerCount: 2
Fore
SplineSet
370 1456 m 0
 571 1456 680 1328 680 1136 c 1
 512 1136 l 1
 512 1236 461 1287 370 1287 c 0
 279 1287 229 1236 229 1136 c 1
 58 1136 l 1
 58 1328 169 1456 370 1456 c 0
EndSplineSet
EndChar

StartChar: uniE000
Encoding: 57344 57344 1186
Width: 97
GlyphClass: 2
Flags: HMW
LayerCount: 2
Fore
SplineSet
0 396 m 2
 98 396 l 1
 98 0 l 1
 0 0 l 2
 -31 0 -51 39 -51 199 c 0
 -51 359 -31 396 0 396 c 2
EndSplineSet
EndChar

StartChar: uniE001
Encoding: 57345 57345 1187
Width: 308
GlyphClass: 2
Flags: HMW
LayerCount: 2
Fore
SplineSet
0 396 m 2
 309 396 l 1
 309 0 l 1
 0 0 l 2
 -31 0 -51 39 -51 199 c 0
 -51 359 -31 396 0 396 c 2
EndSplineSet
EndChar

StartChar: uniE002
Encoding: 57346 57346 1188
Width: 447
GlyphClass: 2
Flags: HMW
LayerCount: 2
Fore
SplineSet
0 396 m 2
 450 396 l 1
 450 0 l 1
 0 0 l 2
 -31 0 -51 39 -51 199 c 0
 -51 359 -31 396 0 396 c 2
EndSplineSet
EndChar

StartChar: uniE003
Encoding: 57347 57347 1189
Width: 1657
GlyphClass: 2
Flags: HMW
LayerCount: 2
Fore
SplineSet
1490 1514 m 1
 1679 1315 l 1
 1402 1062 l 1
 1304 1014 l 1
 530 321 l 1
 466 222 l 1
 205 -16 l 1
 16 182 l 1
 294 437 l 1
 403 495 l 1
 1174 1184 l 1
 1236 1282 l 1
 1490 1514 l 1
EndSplineSet
EndChar

StartChar: uniE004
Encoding: 57348 57348 1190
Width: 1212
GlyphClass: 2
Flags: HMW
LayerCount: 2
Fore
SplineSet
224 -140 m 1
 38 1 l 1
 287 326 l 1
 362 376 l 1
 761 895 l 1
 799 995 l 1
 990 1246 l 1
 1177 1104 l 1
 994 864 l 1
 906 800 l 1
 504 275 l 1
 473 183 l 1
 224 -140 l 1
EndSplineSet
EndChar

StartChar: uniE005
Encoding: 57349 57349 1191
Width: 1511
GlyphClass: 2
Flags: HMW
LayerCount: 2
Fore
SplineSet
1283 -31 m 1
 1011 -190 l 1
 871 155 l 1
 647 483 l 1
 884 625 l 1
 1055 265 l 1
 1283 -31 l 1
EndSplineSet
EndChar

StartChar: uniE006
Encoding: 57350 57350 1192
Width: 1496
GlyphClass: 2
Flags: HMW
LayerCount: 2
Fore
SplineSet
348 127 m 1
 348 348 l 1
 1151 348 l 1
 1151 127 l 1
 348 127 l 1
348 409 m 1
 348 629 l 1
 1151 629 l 1
 1151 409 l 1
 348 409 l 1
EndSplineSet
EndChar

StartChar: uniE007
Encoding: 57351 57351 1193
Width: 920
GlyphClass: 2
Flags: HMW
LayerCount: 2
Fore
SplineSet
316 1228 m 0
 280 1228 235 1233 181 1242 c 1
 221 1413 l 1
 262 1405 306 1400 344 1400 c 0
 425 1400 480 1416 480 1440 c 0
 480 1455 463 1462 392 1476 c 0
 280 1498 231 1542 231 1622 c 0
 231 1783 343 1897 502 1897 c 0
 541 1897 582 1892 623 1883 c 1
 570 1719 l 1
 544 1725 516 1729 488 1729 c 0
 428 1729 383 1702 383 1665 c 0
 383 1641 406 1631 506 1611 c 0
 596 1593 634 1551 634 1470 c 0
 634 1322 511 1228 316 1228 c 0
EndSplineSet
EndChar

StartChar: uniE008
Encoding: 57352 57352 1194
Width: 823
GlyphClass: 2
Flags: HMW
LayerCount: 2
Fore
SplineSet
488 1325 m 0
 488 1381 462 1421 418 1421 c 0
 374 1421 349 1381 349 1325 c 0
 349 1270 373 1228 418 1228 c 0
 463 1228 488 1270 488 1325 c 0
724 1325 m 0
 724 1176 608 1032 418 1032 c 0
 228 1032 113 1176 113 1325 c 0
 113 1474 229 1616 418 1616 c 0
 607 1616 724 1474 724 1325 c 0
EndSplineSet
EndChar

StartChar: uniE009
Encoding: 57353 57353 1195
Width: 1216
GlyphClass: 2
Flags: HMW
LayerCount: 2
Fore
SplineSet
532 1690 m 1
 710 1690 l 1
 710 -182 l 1
 532 -182 l 1
 532 1690 l 1
EndSplineSet
EndChar

StartChar: uniE00A
Encoding: 57354 57354 1196
Width: 1289
GlyphClass: 2
Flags: HMW
LayerCount: 2
Fore
SplineSet
63 532 m 1
 63 758 l 1
 825 758 l 1
 825 532 l 1
 63 532 l 1
EndSplineSet
EndChar

StartChar: uniE00B
Encoding: 57355 57355 1197
Width: 1176
GlyphClass: 2
Flags: HMW
LayerCount: 2
Fore
SplineSet
823 340 m 1
 761 125 647 -11 402 -11 c 0
 206 -11 79 105 79 303 c 0
 79 552 312 675 545 675 c 2
 846 675 l 1
 846 451 l 1
 597 451 l 2
 492 451 412 412 412 349 c 0
 412 303 448 276 513 276 c 0
 589 276 670 323 705 360 c 1
 823 340 l 1
EndSplineSet
EndChar

StartChar: uniE00C
Encoding: 57356 57356 1198
Width: 1631
GlyphClass: 2
Flags: HMW
LayerCount: 2
Fore
SplineSet
1678 697 m 2
 1678 0 l 1
 1283 0 l 1
 1283 608 l 2
 1283 744 1247 803 1163 803 c 0
 1087 803 1042 761 1003 627 c 1
 915 690 l 1
 980 1009 1100 1147 1325 1147 c 0
 1558 1147 1678 998 1678 697 c 2
EndSplineSet
EndChar

StartChar: uniE00D
Encoding: 57357 57357 1199
Width: 1083
GlyphClass: 2
Flags: HMW
LayerCount: 2
Fore
SplineSet
1087 698 m 2
 1087 0 l 1
 692 0 l 1
 692 607 l 2
 692 743 655 803 572 803 c 0
 495 803 451 761 413 627 c 1
 325 691 l 1
 389 1010 508 1147 733 1147 c 0
 967 1147 1087 999 1087 698 c 2
EndSplineSet
EndChar

StartChar: uniE00E
Encoding: 57358 57358 1200
Width: 850
GlyphClass: 2
Flags: HMW
LayerCount: 2
Fore
SplineSet
916 785 m 1
 892 790 868 792 844 792 c 0
 646 792 511 665 511 437 c 1
 414 437 l 1
 414 796 498 1150 871 1150 c 0
 885 1150 900 1150 915 1150 c 1
 916 785 l 1
EndSplineSet
EndChar

StartChar: uniE00F
Encoding: 57359 57359 1201
Width: 1172
GlyphClass: 2
Flags: HMW
LayerCount: 2
Fore
SplineSet
1081 569 m 0
 1081 264 968 -9 686 -9 c 0
 499 -9 398 106 312 266 c 1
 408 369 l 1
 436 324 481 295 537 295 c 0
 617 295 687 389 687 569 c 0
 687 749 617 843 537 843 c 0
 481 843 436 816 408 771 c 1
 312 871 l 1
 398 1031 499 1147 686 1147 c 0
 968 1147 1081 874 1081 569 c 0
EndSplineSet
EndChar

StartChar: uniE010
Encoding: 57360 57360 1202
Width: 1553
GlyphClass: 2
Flags: HMW
LayerCount: 2
Fore
SplineSet
1313 -64 m 1
 1011 -236 l 1
 842 118 l 1
 1096 269 l 1
 1313 -64 l 1
EndSplineSet
EndChar

StartChar: uniE011
Encoding: 57361 57361 1203
Width: 1166
GlyphClass: 2
Flags: HMW
LayerCount: 2
Fore
SplineSet
521 1507 m 1
 698 1507 l 1
 698 997 l 1
 521 997 l 1
 521 1507 l 1
521 144 m 1
 698 144 l 1
 698 -364 l 1
 521 -364 l 1
 521 144 l 1
EndSplineSet
EndChar

StartChar: uniE012
Encoding: 57362 57362 1204
Width: 1684
GlyphClass: 2
Flags: HMW
LayerCount: 2
Fore
SplineSet
1172 1228 m 1
 1487 1513 l 1
 1676 1315 l 1
 1250 930 l 1
 1172 1228 l 1
446 205 m 1
 202 -16 l 1
 13 182 l 1
 343 479 l 1
 446 205 l 1
EndSplineSet
EndChar

StartChar: uniE013
Encoding: 57363 57363 1205
Width: 1191
GlyphClass: 2
Flags: HMW
LayerCount: 2
Fore
SplineSet
772 960 m 1
 989 1245 l 1
 1177 1104 l 1
 923 776 l 1
 772 960 l 1
447 153 m 1
 223 -139 l 1
 37 1 l 1
 310 356 l 1
 447 153 l 1
EndSplineSet
EndChar

StartChar: uniE014
Encoding: 57364 57364 1206
Width: 1496
GlyphClass: 2
Flags: HMW
LayerCount: 2
Fore
SplineSet
347 267 m 1
 347 488 l 1
 1151 488 l 1
 1151 267 l 1
 347 267 l 1
EndSplineSet
EndChar

StartChar: uniE015
Encoding: 57365 57365 1207
Width: 1594
GlyphClass: 2
Flags: HMW
LayerCount: 2
Fore
SplineSet
1557 1079 m 1
 1557 969 l 1
 40 969 l 1
 40 1079 l 1
 1557 1079 l 1
EndSplineSet
EndChar

StartChar: uniE016
Encoding: 57366 57366 1208
Width: 418
GlyphClass: 2
Flags: HMW
LayerCount: 2
Fore
SplineSet
60 882 m 1
 60 1066 l 1
 361 1066 l 1
 361 882 l 1
 60 882 l 1
EndSplineSet
EndChar

StartChar: uniE017
Encoding: 57367 57367 1209
Width: 813
GlyphClass: 2
Flags: HMW
LayerCount: 2
Fore
SplineSet
747 1188 m 1
 820 979 l 1
 66 718 l 1
 -6 928 l 1
 747 1188 l 1
EndSplineSet
EndChar

StartChar: uniE018
Encoding: 57368 57368 1210
Width: 1142
GlyphClass: 2
Flags: HMW
LayerCount: 2
Fore
SplineSet
355 -1 m 1
 161 -1 l 1
 787 1318 l 1
 981 1318 l 1
 355 -1 l 1
EndSplineSet
EndChar

StartChar: uniE019
Encoding: 57369 57369 1211
Width: 1556
GlyphClass: 2
Flags: HMW
LayerCount: 2
Fore
SplineSet
607 58 m 1
 758 209 l 1
 908 58 l 1
 758 -94 l 1
 607 58 l 1
874 58 m 1
 1025 209 l 1
 1175 58 l 1
 1025 -94 l 1
 874 58 l 1
750 -165 m 1
 891 -25 l 1
 1031 -165 l 1
 891 -307 l 1
 750 -165 l 1
EndSplineSet
EndChar

StartChar: cedilla.rotated
Encoding: 57371 57371 1212
Width: 695
GlyphClass: 2
Flags: HMW
LayerCount: 2
Fore
SplineSet
434 -188 m 1
 85 -188 l 1
 284 419 l 1
 531 296 l 1
 434 -188 l 1
EndSplineSet
EndChar

StartChar: uniE01D
Encoding: 57373 57373 1214
Width: 683
GlyphClass: 2
Flags: HMW
LayerCount: 2
Fore
SplineSet
341 488 m 1
 586 243 l 1
 341 0 l 1
 100 243 l 1
 341 488 l 1
EndSplineSet
EndChar

StartChar: uniE020
Encoding: 57376 57376 1217
Width: 864
GlyphClass: 2
Flags: HMW
LayerCount: 2
Fore
SplineSet
114 505 m 0
 114 760 291 880 460 880 c 0
 569 880 667 830 748 766 c 1
 643 603 l 1
 595 628 537 650 477 650 c 0
 389 650 320 593 320 508 c 0
 320 442 377 384 486 384 c 0
 554 384 654 401 751 430 c 1
 828 221 l 1
 105 -6 l 1
 38 208 l 1
 238 260 l 1
 238 270 l 1
 172 314 114 404 114 505 c 0
EndSplineSet
EndChar

StartChar: uniE021
Encoding: 57377 57377 1218
Width: 590
GlyphClass: 2
Flags: HMW
LayerCount: 2
Fore
SplineSet
508 1799 m 1
 651 1723 l 1
 599 1571 521 1488 426 1488 c 0
 386 1488 343 1503 297 1531 c 0
 247 1560 219 1571 194 1571 c 0
 150 1571 122 1545 79 1470 c 1
 -61 1561 l 1
 1 1708 77 1782 171 1782 c 0
 210 1782 254 1768 297 1741 c 0
 352 1707 385 1690 409 1690 c 0
 446 1690 469 1715 508 1799 c 1
483 1307 m 1
 483 0 l 1
 109 0 l 1
 109 1307 l 1
 483 1307 l 1
EndSplineSet
EndChar

StartChar: uniE022
Encoding: 57378 57378 1219
Width: 590
GlyphClass: 2
Flags: HMW
LayerCount: 2
Fore
SplineSet
483 0 m 1
 109 0 l 1
 109 1468 l 1
 483 1468 l 1
 483 0 l 1
EndSplineSet
EndChar

StartChar: uniE023
Encoding: 57379 57379 1220
Width: 1498
GlyphClass: 2
Flags: HMW
LayerCount: 2
Fore
SplineSet
507 1208 m 0
 595 1208 701 1176 886 1093 c 0
 1158 971 1290 921 1401 898 c 1
 1352 503 l 1
 932 479 402 274.336400538 402 -18 c 0
 402 -169 570 -266 833 -266 c 0
 1018 -266 1198 -226 1338 -155 c 1
 1506 -494 l 1
 1283 -609 1055 -668 835 -668 c 0
 355 -668 38 -425 38 -58 c 0
 38 313 371 614 881 704 c 1
 881 714 l 1
 829 726 772 745 692 777 c 1
 590 812 541 825 505 825 c 0
 422 825 378 785 341 679 c 2
 332 653 l 1
 62 734 l 1
 69 761 l 1
 159 1075 290 1208 507 1208 c 0
EndSplineSet
EndChar

StartChar: uniE024
Encoding: 57380 57380 1221
Width: 1035
GlyphClass: 2
Flags: HMW
LayerCount: 2
Fore
SplineSet
998 471 m 0
 998 176 774 -4 409 -4 c 0
 295 -4 164 14 28 48 c 1
 115 419 l 1
 222 398 314 388 395 388 c 0
 543 388 628 422 628 483 c 0
 628 562 480 756 296 916 c 1
 544 1211 l 1
 853 941 998 706 998 471 c 0
EndSplineSet
EndChar

StartChar: uniE025
Encoding: 57381 57381 1222
Width: 668
GlyphClass: 2
Flags: HMW
LayerCount: 2
Fore
SplineSet
129 725 m 1
 482 846 l 1
 554 617 610 393 610 209 c 0
 610 -153 395 -389 -80 -558 c 1
 -252 -204 l 1
 80 -97 242 9 242 209 c 0
 242 332 190 546 129 725 c 1
EndSplineSet
EndChar

StartChar: uniE026
Encoding: 57382 57382 1223
Width: 2630
GlyphClass: 2
Flags: HMW
LayerCount: 2
Fore
SplineSet
1665 0 m 0
 1630.99921893 0 1584.37815126 7 1548 26 c 1
 1542 22 l 1
 1465 -285 1194 -471 802 -471 c 0
 293 -471 49 -248 49 212 c 0
 49 353 70 519 115 702 c 1
 469 621 l 1
 424 412 411 320 411 237 c 0
 411 21 528 -75 792 -75 c 0
 1067 -75 1198 9 1198 179 c 0
 1198 285 1160 411 1045 669 c 1
 1394 837 l 1
 1516 509 l 2
 1542.69746321 437.223213673 1571.72222222 396 1634 396 c 0
 1694.16326531 396 1716.20690451 425.965631247 1722 509 c 2
 1737 724 l 1
 2056 704 l 1
 2042 475 l 2
 2039 425 2074 396 2133 396 c 0
 2193 396 2222 426 2222 487 c 0
 2222 516 2206 651 2185 773 c 1
 2548 858 l 1
 2577 715 2593 595 2593 493 c 0
 2593 160 2467 0 2206 0 c 0
 2043 0 1930 67 1888 227 c 1
 1878 227 l 1
 1845 84 1775 0 1665 0 c 0
EndSplineSet
EndChar

StartChar: uniE027
Encoding: 57383 57383 1224
Width: 2591
GlyphClass: 2
Flags: HMW
LayerCount: 2
Fore
SplineSet
2102 594 m 0
 1994 594 1869 517 1798 422 c 1
 1843 406 1903 396 1965 396 c 0
 2120 396 2212 450 2212 509 c 0
 2212 560 2167 594 2102 594 c 0
2163 981 m 0
 2390 981 2555 785 2555 504 c 0
 2555 216 2320 0 1968 0 c 0
 1807 0 1671 40 1560 119 c 1
 1517 -247 1234 -471 803 -471 c 0
 295 -471 49 -249 49 212 c 0
 49 355 70 520 115 702 c 1
 469 621 l 1
 425 413 411 321 411 237 c 0
 411 20 529 -75 792 -75 c 0
 1066 -75 1199 9 1199 183 c 0
 1199 288 1160 412 1046 669 c 1
 1396 838 l 1
 1448 724 1488 612 1516 512 c 1
 1704 811 1930 981 2163 981 c 0
EndSplineSet
EndChar

StartChar: uniE028
Encoding: 57384 57384 1225
Width: 1573
GlyphClass: 2
Flags: HMW
LayerCount: 2
Fore
SplineSet
726 396 m 1
 951 396 l 2
 1092 396 1193 429 1193 504 c 0
 1193 553 1139 594 1075 594 c 0
 983 594 879 542 726 396 c 1
306 396 m 1
 310 402 314 407 319 414 c 1
 319 1468 l 1
 695 1468 l 1
 695 983 l 2
 695 880 671 787 620 686 c 1
 629 678 l 1
 805 878 977 981 1140 981 c 0
 1377 981 1536 795 1536 526 c 0
 1536 184 1281 0 856 0 c 2
 38 0 l 17
 38 396 l 1
 306 396 l 1
EndSplineSet
EndChar

StartChar: uniE029
Encoding: 57385 57385 1226
Width: 1235
GlyphClass: 2
Flags: HMW
LayerCount: 2
Fore
SplineSet
1105 1236 m 1
 941 932 l 1
 849 973 770 997 705 997 c 0
 594 997 512 935 512 853 c 0
 512 758 623 714 855 714 c 0
 931 714 1024 719 1121 727 c 1
 1121 356 l 1
 698 337 402 176 402 -35 c 0
 402 -184 549 -266 812 -266 c 0
 948 -266 1105 -244 1237 -205 c 1
 1363 -559 l 1
 1180 -631 988 -668 797 -668 c 0
 333 -668 38 -446 38 -94 c 0
 38 130 158 325 380 467 c 1
 380 477 l 1
 226 567 161 674 161 830 c 0
 161 1137 401 1381 701 1381 c 0
 836 1381 974 1333 1105 1236 c 1
EndSplineSet
EndChar

StartChar: uniE02A
Encoding: 57386 57386 1227
Width: 861
GlyphClass: 2
Flags: HMW
LayerCount: 2
Back
SplineSet
0 396 m 1
 2909 396 l 1
 2909 0 l 1
 0 0 l 1
 -31 0 -51 38 -51 199 c 0
 -51 360 -31 396 0 396 c 1
EndSplineSet
Fore
SplineSet
0 396 m 1
 861 396 l 1
 861 0 l 1
 0 0 l 1
 -31 0 -51 38 -51 199 c 0
 -51 360 -31 396 0 396 c 1
EndSplineSet
Colour: ffff
EndChar

StartChar: uniE02B
Encoding: 57387 57387 1228
Width: 1738
GlyphClass: 2
Flags: HMW
LayerCount: 2
Fore
SplineSet
808 396 m 0
 1152 396 1265 437 1265 669 c 2
 1265 1459 l 1
 1640 1459 l 1
 1640 669 l 2
 1640 194 1336 0 786 0 c 0
 280 0 38 163 38 549 c 0
 38 650 58 776 83 885 c 1
 423 811 l 1
 410 731 394 621 394 573 c 0
 394 435 476 396 808 396 c 0
EndSplineSet
EndChar

StartChar: uniE02C
Encoding: 57388 57388 1229
Width: 1442
GlyphClass: 2
Flags: HMW
LayerCount: 2
Fore
SplineSet
690 -104 m 0
 908 -104 1010 -6 1010 203 c 2
 1010 1468 l 1
 1387 1468 l 1
 1387 172 l 2
 1387 -232 1098 -500 662 -500 c 0
 257 -500 38 -279 38 128 c 0
 38 218 53 324 97 544 c 1
 435 461 l 1
 406 322 393 228 393 157 c 0
 393 -26 482 -104 690 -104 c 0
EndSplineSet
EndChar

StartChar: uniE02D
Encoding: 57389 57389 1230
Width: 1350
GlyphClass: 2
Flags: HMW
LayerCount: 2
Fore
SplineSet
841 581 m 0
 774 581 738 514 718 420 c 1
 746 412 779 404 810 398 c 0
 845 390 872 386 889 386 c 0
 922 386 939 408 939 456 c 0
 939 525 905 581 841 581 c 0
848 969 m 0
 1110 969 1282 741 1282 419 c 0
 1282 144 1154 -11 921 -11 c 0
 841 -11 745 5 624 33 c 0
 547 51 500 58 476 58 c 0
 441 58 414 34 414 -12 c 2
 414 -613 l 1
 38 -613 l 1
 38 62 l 2
 38 306 179 480 384 480 c 1
 440 775 610 969 848 969 c 0
EndSplineSet
EndChar

StartChar: uniE02E
Encoding: 57390 57390 1231
Width: 969
GlyphClass: 2
Flags: HMW
LayerCount: 2
Fore
SplineSet
478 386 m 0
 556 386 575 424 575 453 c 0
 575 494 551 561 478 629 c 1
 405 561 378 491 378 453 c 0
 378 424 397 386 478 386 c 0
478 -11 m 0
 195 -11 38 159 38 367 c 0
 38 554 134 705 271 851 c 1
 242 879 204 914 169 944 c 1
 400 1219 l 1
 619 1041 932 747 932 402 c 0
 932 167 745 -11 478 -11 c 0
EndSplineSet
EndChar

StartChar: uniE02F
Encoding: 57391 57391 1232
Width: 967
GlyphClass: 2
Flags: HMW
LayerCount: 2
Fore
SplineSet
563 -1 m 1
 554 16 l 1
 517 4 468 -1 430 -1 c 0
 188 -1 58 143 58 392 c 0
 58 690 193 965 469 965 c 0
 791 965 931 619 931 207 c 0
 931 -160 701 -397 220 -559 c 1
 48 -205 l 1
 258 -153 477 -69 563 -1 c 1
575 388 m 1
 574 491 539 565 458 565 c 0
 398 565 360 514 360 453 c 0
 360 404 393 380 446 380 c 0
 489 380 532 383 575 388 c 1
EndSplineSet
EndChar

StartChar: uniE030
Encoding: 57392 57392 1233
Width: 0
GlyphClass: 2
Flags: HMW
LayerCount: 2
Fore
SplineSet
59 1493 m 0
 31 1493 -13 1463 -13 1444 c 0
 -13 1425 5 1400 61 1376 c 1
 80 1395 89 1420 89 1457 c 0
 89 1479 75 1493 59 1493 c 0
83 1652 m 0
 182 1652 247 1582 247 1465 c 0
 247 1301 62 1128 -210 1059 c 1
 -258 1182 -303 1240 -389 1286 c 1
 -298 1425 l 1
 -235 1388 -186 1335 -142 1257 c 1
 -125 1264 -88 1281 -72 1289 c 1
 -128 1321 -148 1386 -148 1447 c 0
 -148 1558 -37 1652 83 1652 c 0
EndSplineSet
EndChar

StartChar: uniE031
Encoding: 57393 57393 1234
Width: 0
GlyphClass: 2
Flags: HMW
LayerCount: 2
Fore
SplineSet
208 1397 m 1
 260 1224 l 1
 -208 1072 l 1
 -260 1246 l 1
 208 1397 l 1
EndSplineSet
EndChar

StartChar: uniE032
Encoding: 57394 57394 1235
Width: 0
GlyphClass: 2
Flags: HMW
LayerCount: 2
Fore
SplineSet
59 1493 m 0
 31 1493 -13 1463 -13 1444 c 0
 -13 1425 5 1400 61 1376 c 1
 80 1395 89 1421 89 1457 c 0
 89 1479 75 1493 59 1493 c 0
83 1652 m 0
 182 1652 247 1582 247 1465 c 0
 247 1302 58 1127 -212 1057 c 1
 -255 1220 l 1
 -214 1230 -145 1256 -72 1290 c 1
 -128 1322 -148 1384 -148 1447 c 0
 -148 1558 -37 1652 83 1652 c 0
EndSplineSet
EndChar

StartChar: uniE033
Encoding: 57395 57395 1236
Width: 0
GlyphClass: 2
Flags: HMW
LayerCount: 2
Fore
SplineSet
-17 1156 m 1
 -36 1109 -80 1077 -131 1077 c 0
 -227 1077 -290 1144 -290 1244 c 0
 -290 1322 -278 1366 -256 1433 c 1
 -124 1390 l 1
 -134 1367 -149 1319 -149 1289 c 0
 -149 1259 -135 1247 -115 1247 c 0
 -91 1247 -72 1271 -72 1320 c 2
 -72 1366 l 1
 49 1366 l 1
 49 1320 l 2
 49 1271 68 1247 92 1247 c 0
 112 1247 124 1259 124 1289 c 0
 124 1319 111 1367 101 1390 c 1
 233 1433 l 1
 255 1366 267 1322 267 1244 c 0
 267 1144 203 1077 107 1077 c 0
 56 1077 12 1109 -7 1156 c 1
 -17 1156 l 1
EndSplineSet
EndChar

StartChar: uniE034
Encoding: 57396 57396 1237
Width: 0
GlyphClass: 2
Flags: HMW
LayerCount: 2
Fore
SplineSet
0 1315 m 0
 -37 1315 -67 1294 -67 1263 c 0
 -67 1232 -35 1208 0 1208 c 0
 34 1208 67 1233 67 1263 c 0
 67 1292 36 1315 0 1315 c 0
0 1446 m 0
 105 1446 187 1368 187 1263 c 0
 187 1157 106 1077 0 1077 c 0
 -106 1077 -187 1157 -187 1263 c 0
 -187 1368 -106 1446 0 1446 c 0
EndSplineSet
EndChar

StartChar: uniE035
Encoding: 57397 57397 1238
Width: 0
GlyphClass: 2
Flags: HMW
LayerCount: 2
Fore
SplineSet
-327 1137 m 1
 -274 1259 -200 1321 -113 1321 c 0
 -79 1321 -41 1314 -5 1295 c 0
 41 1271 74 1256 97 1256 c 0
 130 1256 144 1280 176 1344 c 1
 321 1270 l 1
 278 1142 206 1078 116 1078 c 0
 80 1078 40 1088 2 1106 c 0
 -35 1123 -66 1136 -90 1136 c 0
 -127 1136 -149 1110 -185 1052 c 1
 -327 1137 l 1
EndSplineSet
EndChar

StartChar: uniE036
Encoding: 57398 57398 1239
Width: 0
GlyphClass: 2
Flags: HMW
LayerCount: 2
Fore
SplineSet
160 1631 m 1
 120 1480 l 1
 101 1485 82 1489 64 1489 c 0
 8 1489 -35 1457 -35 1413 c 0
 -35 1375 0 1346 46 1346 c 0
 62 1346 80 1348 98 1354 c 2
 210 1391 l 1
 258 1228 l 1
 -210 1077 l 1
 -258 1241 l 1
 -121 1281 l 1
 -121 1291 l 1
 -163 1316 -184 1364 -184 1428 c 0
 -184 1555 -88 1646 51 1646 c 0
 82 1646 117 1640 160 1631 c 1
EndSplineSet
EndChar

StartChar: uniE037
Encoding: 57399 57399 1240
Width: 0
GlyphClass: 2
Flags: HMW
LayerCount: 2
Fore
SplineSet
81 1072 m 1
 -81 1072 l 1
 -289 1358 l 1
 -144 1466 l 1
 0 1253 l 1
 144 1466 l 1
 289 1358 l 1
 81 1072 l 1
EndSplineSet
EndChar

StartChar: uniE038
Encoding: 57400 57400 1241
Width: 1823
GlyphClass: 2
Flags: HMW
LayerCount: 2
Fore
SplineSet
1735 942 m 1
 1765 813 1786 671 1786 567 c 0
 1786 151 1537 0 912 0 c 0
 287 0 38 150 38 566 c 0
 38 671 61 815 91 942 c 1
 424 870 l 1
 409 786 392 673 392 614 c 0
 392 418 515 396 912 396 c 0
 1308 396 1432 420 1432 616 c 0
 1432 675 1417 785 1402 870 c 1
 1735 942 l 1
EndSplineSet
EndChar

StartChar: uniE039
Encoding: 57401 57401 1242
Width: 1586
GlyphClass: 2
Flags: HMW
LayerCount: 2
Fore
SplineSet
1194 437 m 1
 1193 537 1157 611 1076 611 c 0
 1016 611 979 560 979 499 c 0
 979 450 1012 426 1065 426 c 0
 1113 426 1155 430 1194 437 c 1
1088 1010 m 0
 1382 1010 1550 711 1550 252 c 0
 1550 -213 1258 -495 775 -495 c 0
 294 -495 42 -276 42 138 c 0
 42 254 60 409 103 663 c 1
 467 591 l 1
 432 399 417 275 417 173 c 0
 417 -7 545 -98 788 -98 c 0
 976 -98 1117 -49 1182 44 c 1
 1173 61 l 1
 1139 50 1088 44 1043 44 c 0
 809 44 677 183 677 437 c 0
 677 775 840 1010 1088 1010 c 0
EndSplineSet
EndChar

StartChar: uniE03A
Encoding: 57402 57402 1243
Width: 0
GlyphClass: 2
Flags: HMW
LayerCount: 2
Fore
SplineSet
-86 1481 m 1
 86 1481 l 1
 86 1035 l 1
 -86 1035 l 1
 -86 1481 l 1
EndSplineSet
EndChar

StartChar: uniE03B
Encoding: 57403 57403 1244
Width: 1856
GlyphClass: 2
Flags: HMW
LayerCount: 2
Fore
SplineSet
1483 518 m 1
 1410 499 1342 489 1277 489 c 0
 1029 489 914 597 914 832 c 0
 914 1187 1073 1407 1327 1407 c 0
 1622 1407 1809 1092 1809 600 c 0
 1809 160 1570 0 908 0 c 0
 286 0 38 157 38 554 c 0
 38 646 57 783 83 913 c 1
 423 839 l 1
 404 730 392 637 392 596 c 0
 392 438 513 396 940 396 c 0
 1412 396 1483 408 1483 518 c 1
1425 837 m 1
 1410 959 1371 1020 1311 1020 c 0
 1248 1020 1212 968 1212 892 c 0
 1212 847 1240 827 1307 827 c 0
 1345 827 1384 831 1425 837 c 1
EndSplineSet
EndChar

StartChar: uniE03C
Encoding: 57404 57404 1245
Width: 1747
GlyphClass: 2
Flags: HMW
LayerCount: 2
Fore
SplineSet
83 932 m 1
 423 859 l 1
 407 765 393 639 393 589 c 0
 393 447 503 396 809 396 c 0
 1096 396 1280 443 1280 516 c 0
 1280 577 1168 678 810 938 c 1
 836 1251 l 1
 1140 1403 1431 1500 1768 1562 c 1
 1819 1170 l 1
 1564 1115 1417 1078 1273 1030 c 1
 1274 1025 l 1
 1558 790 1654 653 1654 484 c 0
 1654 175 1348 0 808 0 c 0
 274 0 38 167 38 545 c 0
 38 634 54 774 83 932 c 1
EndSplineSet
EndChar

StartChar: uniE03D
Encoding: 57405 57405 1246
Width: 1666
GlyphClass: 2
Flags: HMW
LayerCount: 2
Fore
SplineSet
1106 709 m 1
 1456 878 l 1
 1565 638 1624 415 1624 260 c 0
 1624 -181 1319 -455 832 -455 c 0
 304 -455 49 -224 49 252 c 0
 49 393 70 559 115 742 c 1
 469 661 l 1
 424 452 411 360 411 277 c 0
 411 44 537 -58 822 -58 c 0
 1116 -58 1258 33 1258 223 c 0
 1258 328 1220 453 1106 709 c 1
EndSplineSet
EndChar

StartChar: uniE03E
Encoding: 57406 57406 1247
Width: 1627
GlyphClass: 2
Flags: HMW
LayerCount: 2
Fore
SplineSet
1532 1061 m 1
 1414 723 l 1
 1338 751 1273 763 1205 763 c 0
 1064 763 955 680 955 571 c 0
 955 505 1004 488 1264 464 c 0
 1475 444 1572 348 1572 159 c 0
 1572 -206 1256 -448 777 -448 c 0
 307 -448 53 -220 53 170 c 0
 53 265 76 492 103 664 c 1
 462 599 l 1
 429 408 414 290 414 209 c 0
 414 31 517 -54 791 -54 c 0
 1022 -54 1229 12 1229 75 c 0
 1229 110 1166 119 1075 126 c 0
 758 151 621 268 621 517 c 0
 621 858 890 1131 1226 1131 c 0
 1318 1131 1426 1106 1532 1061 c 1
EndSplineSet
EndChar

StartChar: uniE03F
Encoding: 57407 57407 1248
Width: 1958
GlyphClass: 2
Flags: HMW
LayerCount: 2
Back
SplineSet
1517 283 m 1
 1408 88 1192 0 819 0 c 0
 274 0 39 164 39 545 c 0
 39 644 55 785 83 932 c 1
 423 859 l 1
 405 745 392 630 392 588 c 0
 392 446 501 396 808 396 c 0
 1102 396 1269 439 1269 515 c 0
 1269 579.430463576 1135 702.688741722 810 938 c 1
 836 1251 l 1
 1140 1403 1431 1500 1768 1562 c 1
 1819 1170 l 1
 1564 1115 1417 1078 1273 1030 c 1
 1274 1025 l 1
 1434 892.04859335 1496 822.803069054 1602 664 c 0
 1724 459 1807 396 1957 396 c 2
 4006 396 l 1
 4006 0 l 1
 1957 0 l 1
 1759 1 1629 86 1527 283 c 1
 1517 283 l 1
EndSplineSet
Fore
SplineSet
1517 283 m 1
 1408 88 1192 0 819 0 c 0
 274 0 39 164 39 545 c 0
 39 644 55 785 83 932 c 1
 423 859 l 1
 405 745 392 630 392 588 c 0
 392 446 501 396 808 396 c 0
 1102 396 1269 439 1269 515 c 0
 1269 579.430463576 1135 702.688741722 810 938 c 1
 836 1251 l 1
 1140 1403 1431 1500 1768 1562 c 1
 1819 1170 l 1
 1564 1115 1417 1078 1273 1030 c 1
 1274 1025 l 1
 1434 892.04859335 1496 822.803069054 1602 664 c 0
 1724 459 1807 396 1957 396 c 2
 1958 396 l 1
 1958 0 l 1
 1957 0 l 1
 1759 1 1629 86 1527 283 c 1
 1517 283 l 1
EndSplineSet
Colour: ffff
EndChar

StartChar: uniE040
Encoding: 57408 57408 1249
Width: 1820
GlyphClass: 2
Flags: HMW
LayerCount: 2
Back
SplineSet
115 702 m 1
 469 621 l 1
 423 413 411 321 411 238 c 0
 411 1 539 -99 823 -99 c 0
 1117 -99 1260 -9 1260 179 c 0
 1260 285 1218 412 1106 669 c 1
 1454 838 l 1
 1567 546 l 2
 1615 425 1660 396 1800 396 c 2
 3868 396 l 1
 3868 0 l 1
 1815 0 l 2
 1742 0 1683.68686869 29.2014388489 1615 99 c 1
 1607 96 l 1
 1579 -244 1284.83140283 -494 832 -494 c 0
 307 -494 49 -268 49 212 c 0
 49 353 69 517 115 702 c 1
EndSplineSet
Fore
SplineSet
115 702 m 1
 469 621 l 1
 423 413 411 321 411 238 c 0
 411 1 539 -99 823 -99 c 0
 1117 -99 1260 -9 1260 179 c 0
 1260 285 1218 412 1106 669 c 1
 1454 838 l 1
 1567 546 l 2
 1615 425 1660 396 1800 396 c 2
 1820 396 l 1
 1820 0 l 1
 1815 0 l 2
 1742.27272727 0 1683.68686869 29.2014388489 1615 99 c 1
 1607 96 l 1
 1579 -244 1284.83140283 -494 832 -494 c 0
 307 -494 49 -268 49 212 c 0
 49 353 69 517 115 702 c 1
EndSplineSet
Colour: ffff
EndChar

StartChar: uniE041
Encoding: 57409 57409 1250
Width: 618
GlyphClass: 2
Flags: HMW
LayerCount: 2
Fore
SplineSet
515 918 m 1
 558 745 582 594 582 488 c 0
 582 162 389 0 29 0 c 2
 0 0 l 2
 -33 0 -51 69 -51 199 c 0
 -51 330 -33 396 0 396 c 2
 29 396 l 2
 151 396 213 437 213 541 c 0
 213 587 195 690 163 821 c 1
 515 918 l 1
EndSplineSet
EndChar

StartChar: uniE042
Encoding: 57410 57410 1251
Width: 815
GlyphClass: 2
Flags: HMW
LayerCount: 2
Back
SplineSet
597 583 m 2
 597 415 618 396 793 396 c 2
 2863 396 l 1
 2863 0 l 1
 791 0 l 2
 621 0 476 86 414 218 c 1
 404 218 l 1
 343 87 192 0 29 0 c 2
 0 0 l 2
 -36 0 -51 58 -51 199 c 0
 -51 339 -36 396 0 396 c 2
 29 396 l 2
 197 396 223 418 223 583 c 2
 223 777 l 1
 597 777 l 1
 597 583 l 2
EndSplineSet
Fore
SplineSet
597 583 m 2
 597 415 618 396 793 396 c 2
 815 396 l 1
 815 0 l 1
 791 0 l 2
 621 0 476 86 414 218 c 1
 404 218 l 1
 343 87 192 0 29 0 c 2
 0 0 l 2
 -36 0 -51 58 -51 199 c 0
 -51 339 -36 396 0 396 c 2
 29 396 l 2
 197 396 223 418 223 583 c 2
 223 777 l 1
 597 777 l 1
 597 583 l 2
EndSplineSet
Colour: ffff
EndChar

StartChar: uniE043
Encoding: 57411 57411 1252
Width: 1597
GlyphClass: 2
Flags: HMW
LayerCount: 2
Back
SplineSet
1454 -10 m 1
 1485 -81 1498 -137 1498 -206 c 0
 1498 -436 1172 -632 789 -632 c 0
 287 -632 42 -420 42 17 c 0
 42 201 61 407 95 603 c 1
 438 536 l 1
 407 358 390 190 390 50 c 0
 390 -150 509 -234 794 -234 c 0
 979 -234 1111 -187 1111 -121 c 0
 1111 -76.0833333333 1026 -51.3333333333 731 -11 c 1
 789 396 l 1
 3645 396 l 1
 3645 0 l 1
 1454 0 l 1
 1454 -10 l 1
EndSplineSet
Fore
SplineSet
1454 -10 m 1
 1485 -81 1498 -137 1498 -206 c 0
 1498 -436 1172 -632 789 -632 c 0
 287 -632 42 -420 42 17 c 0
 42 201 61 407 95 603 c 1
 438 536 l 1
 407 358 390 190 390 50 c 0
 390 -150 509 -234 794 -234 c 0
 979 -234 1111 -187 1111 -121 c 0
 1111 -76.0833333333 1026 -51.3333333333 731 -11 c 1
 789 396 l 1
 1597 396 l 1
 1597 0 l 1
 1454 0 l 1
 1454 -10 l 1
EndSplineSet
Colour: ffff
EndChar

StartChar: uniE044
Encoding: 57412 57412 1253
Width: 672
GlyphClass: 2
Flags: HMW
LayerCount: 2
Back
SplineSet
98 1468 m 1
 474 1468 l 1
 474 542 l 2
 474 430 530 396 671 396 c 2
 2720 396 l 1
 2720 0 l 1
 671 0 l 2
 318 0 98 181 98 533 c 2
 98 1468 l 1
EndSplineSet
Fore
SplineSet
98 1468 m 1
 474 1468 l 1
 474 542 l 2
 474 430 530 396 671 396 c 2
 672 396 l 1
 672 0 l 1
 671 0 l 2
 318 0 98 181 98 533 c 2
 98 1468 l 1
EndSplineSet
Colour: ffff
EndChar

StartChar: uniE045
Encoding: 57413 57413 1254
Width: 1520
GlyphClass: 2
Flags: HMW
LayerCount: 2
Back
SplineSet
507 1168 m 0
 595 1168 701 1136 886 1053 c 0
 1158 931 1290 881 1401 858 c 1
 1352 463 l 1
 1321 461 1291 458 1266 454 c 1
 1266 443 l 1
 1307 411 1368 396 1452 396 c 2
 3568 396 l 1
 3568 0 l 1
 1511 0 l 2
 1250 0 1101.79475983 126.741854637 1055 389 c 1
 702.921658986 358.67833698 402 153.273522976 402 -58 c 0
 402 -209 570 -306 833 -306 c 0
 1018 -306 1198 -266 1338 -195 c 1
 1506 -534 l 1
 1283 -649 1055 -708 835 -708 c 0
 355 -708 38 -465 38 -98 c 0
 38 273 371 574 881 664 c 1
 881 674 l 1
 829 686 772 705 692 737 c 1
 590 772 541 785 505 785 c 0
 422 785 378 745 341 639 c 2
 332 613 l 1
 62 694 l 1
 69 721 l 1
 159 1035 290 1168 507 1168 c 0
EndSplineSet
Fore
SplineSet
507 1168 m 0
 595 1168 701 1136 886 1053 c 0
 1158 931 1290 881 1401 858 c 1
 1352 463 l 1
 1321 461 1291 458 1266 454 c 1
 1266 443 l 1
 1307 411 1368 396 1452 396 c 2
 1520 396 l 1
 1520 0 l 1
 1511 0 l 2
 1250.1441048 0 1101.79475983 126.741854637 1055 389 c 1
 702.921658986 358.67833698 402 153.273522976 402 -58 c 0
 402 -209 570 -306 833 -306 c 0
 1018 -306 1198 -266 1338 -195 c 1
 1506 -534 l 1
 1283 -649 1055 -708 835 -708 c 0
 355 -708 38 -465 38 -98 c 0
 38 273 371 574 881 664 c 1
 881 674 l 1
 829 686 772 705 692 737 c 1
 590 772 541 785 505 785 c 0
 422 785 378 745 341 639 c 2
 332 613 l 1
 62 694 l 1
 69 721 l 1
 159 1035 290 1168 507 1168 c 0
EndSplineSet
Colour: ffff
EndChar

StartChar: uniE046
Encoding: 57414 57414 1255
Width: 1400
GlyphClass: 2
Flags: HMW
LayerCount: 2
Fore
SplineSet
501 1103 m 0
 581.068965517 1103 674.482758621 1073.61061947 888 980 c 0
 1103 891 1233 847 1363 820 c 1
 1363 519 l 1
 844 204 l 2
 608 60 415 0 184 0 c 2
 0 0 l 2
 -36 0 -51 56 -51 199 c 0
 -51 341 -36 396 0 396 c 2
 264 396 l 2
 407 396 498 421 692 513 c 2
 873 600 l 1
 873 610 l 1
 821.247191011 621.886792453 765.269662921 642.094339623 685 673 c 0
 587 707 535 722 498 722 c 0
 415 722 371.912181303 680.311614731 334 575 c 2
 325 550 l 1
 55 631 l 1
 62 657 l 2
 146.907586207 972.371034483 284 1103 501 1103 c 0
EndSplineSet
EndChar

StartChar: uniE047
Encoding: 57415 57415 1256
Width: 1451
GlyphClass: 2
Flags: HMW
LayerCount: 2
Back
SplineSet
501 1103 m 0
 581.068965517 1103 674.482758621 1073.61061947 888 980 c 0
 1103 891 1233 847 1363 820 c 1
 1363 519 l 1
 1195 428 l 1
 1195 418 l 1
 1258 401 1370 396 1439 396 c 2
 3499 396 l 1
 3499 0 l 1
 1439 0 l 2
 1239 0 1071 84 946 266 c 1
 844 204 l 2
 608 60 415 0 184 0 c 2
 0 0 l 2
 -36 0 -51 56 -51 199 c 0
 -51 341 -36 396 0 396 c 2
 264 396 l 2
 407 396 498 421 692 513 c 2
 873 600 l 1
 873 610 l 1
 821.247191011 621.886792453 765.269662921 642.094339623 685 673 c 0
 587 707 535 722 498 722 c 0
 415 722 371.912181303 680.311614731 334 575 c 2
 325 550 l 1
 55 631 l 1
 62 657 l 2
 146.907586207 972.371034483 284 1103 501 1103 c 0
EndSplineSet
Fore
SplineSet
501 1103 m 0
 581.068965517 1103 674.482758621 1073.61061947 888 980 c 0
 1103 891 1233 847 1363 820 c 1
 1363 519 l 1
 1195 428 l 1
 1195 418 l 1
 1258 401 1370 396 1439 396 c 2
 1451 396 l 1
 1451 0 l 1
 1439 0 l 2
 1239 0 1071 84 946 266 c 1
 844 204 l 2
 608 60 415 0 184 0 c 2
 0 0 l 2
 -36 0 -51 56 -51 199 c 0
 -51 341 -36 396 0 396 c 2
 264 396 l 2
 407 396 498 421 692 513 c 2
 873 600 l 1
 873 610 l 1
 821.247191011 621.886792453 765.269662921 642.094339623 685 673 c 0
 587 707 535 722 498 722 c 0
 415 722 371.912181303 680.311614731 334 575 c 2
 325 550 l 1
 55 631 l 1
 62 657 l 2
 146.907586207 972.371034483 284 1103 501 1103 c 0
EndSplineSet
Colour: ffff
EndChar

StartChar: uniE048
Encoding: 57416 57416 1257
Width: 1320
GlyphClass: 2
Flags: HMW
LayerCount: 2
Back
SplineSet
834 1195 m 1
 1087 599 l 2
 1162 420 1194 396 1317 396 c 2
 3368 396 l 1
 3368 0 l 1
 1317 0 l 2
 1115 0 1002 67 926 240 c 1
 916 240 l 1
 859 84 687 -10 466 -10 c 0
 315 -10 163 41 28 139 c 1
 191 452 l 1
 284 409 381 386 458 386 c 0
 567 386 665 414 734 466 c 1
 485 1027 l 1
 834 1195 l 1
EndSplineSet
Fore
SplineSet
834 1195 m 1
 1087 599 l 2
 1162 420 1194 396 1317 396 c 2
 1320 396 l 1
 1320 0 l 1
 1317 0 l 2
 1115 0 1002 67 926 240 c 1
 916 240 l 1
 859 84 687 -10 466 -10 c 0
 315 -10 163 41 28 139 c 1
 191 452 l 1
 284 409 381 386 458 386 c 0
 567 386 665 414 734 466 c 1
 485 1027 l 1
 834 1195 l 1
EndSplineSet
Colour: ffff
EndChar

StartChar: uniE049
Encoding: 57417 57417 1258
Width: 814
GlyphClass: 2
Flags: HMW
LayerCount: 2
Back
SplineSet
129 725 m 1
 482 846 l 1
 556 614 l 2
 614 433 656 396 812 396 c 2
 2862 396 l 1
 2862 0 l 1
 812 0 l 2
 728 0 653.739130435 36.6666666667 602 100 c 1
 592 97 l 1
 573.111111111 -204 320.213333333 -419 -80 -558 c 1
 -252 -204 l 1
 106 -87 242 23 242 209 c 0
 242 317 197 515 129 725 c 1
EndSplineSet
Fore
SplineSet
129 725 m 1
 482 846 l 1
 556 614 l 2
 614 433 656 396 812 396 c 2
 814 396 l 1
 814 0 l 1
 812 0 l 2
 727.797101449 0 653.739130435 36.6666666667 602 100 c 1
 592 97 l 1
 573.111111111 -204 320.213333333 -419 -80 -558 c 1
 -252 -204 l 1
 106 -87 242 23 242 209 c 0
 242 317 197 515 129 725 c 1
EndSplineSet
Colour: ffff
EndChar

StartChar: uniE04A
Encoding: 57418 57418 1259
Width: 2796
GlyphClass: 2
Flags: HMW
LayerCount: 2
Back
SplineSet
2468 235 m 1
 2425 83 2327 0 2188 0 c 0
 2043 0 1927 67 1888 227 c 1
 1878 227 l 1
 1846 84 1774 0 1665 0 c 0
 1630.99921893 0 1584.37815126 7 1548 26 c 1
 1542 22 l 1
 1465 -285 1194 -471 802 -471 c 0
 293 -471 49 -248 49 212 c 0
 49 353 70 519 115 702 c 1
 469 621 l 1
 424 412 411 320 411 237 c 0
 411 21 528 -75 792 -75 c 0
 1067 -75 1198 9 1198 179 c 0
 1198 285 1160 411 1045 669 c 1
 1394 837 l 1
 1516 509 l 2
 1546.78544663 426.232569715 1571.72222222 396 1634 396 c 0
 1694.16326531 396 1716.20634399 425.957597156 1722 509 c 2
 1737 724 l 1
 2056 704 l 1
 2042 475 l 2
 2038.94344283 425.003457644 2073 396 2133 396 c 0
 2195 396 2226 426 2226 488 c 0
 2226 519 2206 663 2188 774 c 1
 2547 849 l 1
 2572 699 l 2
 2616.79910714 429 2634 396 2795 396 c 2
 4844 396 l 1
 4844 0 l 1
 2795 0 l 2
 2614 0 2526.84591195 70 2478 235 c 1
 2468 235 l 1
EndSplineSet
Fore
SplineSet
2468 235 m 1
 2425 83 2327 0 2188 0 c 0
 2043 0 1927 67 1888 227 c 1
 1878 227 l 1
 1846 84 1774 0 1665 0 c 0
 1630.99921893 0 1584.37815126 7 1548 26 c 1
 1542 22 l 1
 1465 -285 1194 -471 802 -471 c 0
 293 -471 49 -248 49 212 c 0
 49 353 70 519 115 702 c 1
 469 621 l 1
 424 412 411 320 411 237 c 0
 411 21 528 -75 792 -75 c 0
 1067 -75 1198 9 1198 179 c 0
 1198 285 1160 411 1045 669 c 1
 1394 837 l 1
 1516 509 l 2
 1546.78544663 426.232569715 1571.72222222 396 1634 396 c 0
 1694.16326531 396 1716.20634399 425.957597156 1722 509 c 2
 1737 724 l 1
 2056 704 l 1
 2042 475 l 2
 2038.94344283 425.003457644 2073 396 2133 396 c 0
 2195 396 2226 426 2226 488 c 0
 2226 519 2206 663 2188 774 c 1
 2547 849 l 1
 2572 699 l 2
 2617 429 2634 396 2796 396 c 2
 2796 396 l 1
 2796 0 l 1
 2796 0 l 2
 2614 0 2527 70 2478 235 c 1
 2468 235 l 1
EndSplineSet
Colour: ffff
EndChar

StartChar: uniE04B
Encoding: 57419 57419 1260
Width: 1698
GlyphClass: 2
Flags: HMW
LayerCount: 2
Fore
SplineSet
681 396 m 0
 752 396 768 437 775 503 c 2
 793 724 l 1
 1115 704 l 1
 1100 475 l 2
 1096 431 1126 396 1190 396 c 0
 1258 396 1290 434 1290 488 c 0
 1290 528 1272 670 1253 782 c 1
 1616 868 l 1
 1641 742 1661 609 1661 493 c 0
 1661 152 1518 0 1263 0 c 0
 1078 0 990 97 956 227 c 1
 946 227 l 1
 915 76 819 0 659 0 c 0
 491 0 409 78 369 217 c 1
 359 217 l 1
 290 86 186 0 29 0 c 2
 0 0 l 2
 -35 0 -51 60 -51 202 c 0
 -51 340 -36 396 0 396 c 2
 29 396 l 2
 152 396 197 442 205 537 c 2
 226 781 l 1
 600 756 l 1
 578 481 l 2
 574 437 612 396 681 396 c 0
EndSplineSet
EndChar

StartChar: uniE04C
Encoding: 57420 57420 1261
Width: 1865
GlyphClass: 2
Flags: HMW
LayerCount: 2
Back
SplineSet
1536 235 m 1
 1495 89 1413 0 1255 0 c 0
 1076 0 990 98 956 227 c 1
 946 227 l 1
 915 76 819 0 659 0 c 0
 489 0 410 78 369 217 c 1
 359 217 l 1
 290 86 186 0 29 0 c 2
 0 0 l 2
 -35 0 -51 60 -51 202 c 0
 -51 340 -36 396 0 396 c 2
 29 396 l 2
 152 396 197 442 205 537 c 2
 226 781 l 1
 600 756 l 1
 578 481 l 2
 574 437 612 396 681 396 c 0
 752 396 769 437 775 503 c 2
 793 724 l 1
 1115 704 l 1
 1100 475 l 2
 1096 431 1125 396 1190 396 c 0
 1259 396 1294 433 1294 488 c 0
 1294 517 1275 659 1256 774 c 1
 1616 849 l 1
 1638 699 l 2
 1675 438 1706 396 1864 396 c 2
 3913 396 l 1
 3913 0 l 1
 1864 0 l 2
 1664 0 1589 89 1546 235 c 1
 1536 235 l 1
EndSplineSet
Fore
SplineSet
1536 235 m 1
 1495 89 1413 0 1255 0 c 0
 1076 0 990 98 956 227 c 1
 946 227 l 1
 915 76 819 0 659 0 c 0
 489 0 410 78 369 217 c 1
 359 217 l 1
 290 86 186 0 29 0 c 2
 0 0 l 2
 -35 0 -51 60 -51 202 c 0
 -51 340 -36 396 0 396 c 2
 29 396 l 2
 152 396 197 442 205 537 c 2
 226 781 l 1
 600 756 l 1
 578 481 l 2
 574 437 612 396 681 396 c 0
 752 396 769 437 775 503 c 2
 793 724 l 1
 1115 704 l 1
 1100 475 l 2
 1096 431 1125 396 1190 396 c 0
 1259 396 1294 433 1294 488 c 0
 1294 517 1275 659 1256 774 c 1
 1616 849 l 1
 1638 699 l 2
 1675 438 1706 396 1864 396 c 2
 1865 396 l 1
 1865 0 l 1
 1864 0 l 2
 1664 0 1589 89 1546 235 c 1
 1536 235 l 1
EndSplineSet
Colour: ffff
EndChar

StartChar: uniE04D
Encoding: 57421 57421 1262
Width: 2627
GlyphClass: 2
Flags: HMW
LayerCount: 2
Back
SplineSet
2102 594 m 0
 1994 594 1869 517 1798 422 c 1
 1843 406 1903 396 1965 396 c 0
 2120 396 2212 450 2212 509 c 0
 2212 560 2167 594 2102 594 c 0
2163 981 m 0
 2390 981 2555 785 2555 504 c 0
 2555 466 2551 432 2543 396 c 1
 2570 396 2598 396 2626 396 c 2
 4675 396 l 1
 4675 0 l 1
 2626 0 l 2
 2513 0 2436 35 2364 121 c 1
 2263 46 2127 0 1968 0 c 0
 1807 0 1671 40 1560 119 c 1
 1517 -247 1233 -471 803 -471 c 0
 295 -471 49 -249 49 212 c 0
 49 355 70 520 115 702 c 1
 469 621 l 1
 424 413 411 321 411 237 c 0
 411 20 529 -75 792 -75 c 0
 1066 -75 1199 9 1199 183 c 0
 1199 288 1160 412 1046 669 c 1
 1396 838 l 1
 1448 723 1488 612 1516 512 c 1
 1704 811 1930 981 2163 981 c 0
EndSplineSet
Fore
SplineSet
2102 594 m 0
 1994 594 1869 517 1798 422 c 1
 1843 406 1903 396 1965 396 c 0
 2120 396 2212 450 2212 509 c 0
 2212 560 2167 594 2102 594 c 0
2163 981 m 0
 2390 981 2555 785 2555 504 c 0
 2555 466.348623853 2551 431.669724771 2543 396 c 1
 2570 396 2598 396 2626 396 c 2
 2627 396 l 1
 2627 0 l 1
 2626 0 l 2
 2513 0 2436 35 2364 121 c 1
 2263 46 2127 0 1968 0 c 0
 1807 0 1671 40 1560 119 c 1
 1517 -247 1233 -471 803 -471 c 0
 295 -471 49 -249 49 212 c 0
 49 355 70 520 115 702 c 1
 469 621 l 1
 424 413 411 321 411 237 c 0
 411 20 529 -75 792 -75 c 0
 1066 -75 1199 9 1199 183 c 0
 1199 288 1160 412 1046 669 c 1
 1396 838 l 1
 1448 723 1488 612 1516 512 c 1
 1704 811 1930 981 2163 981 c 0
EndSplineSet
Colour: ffff
EndChar

StartChar: uniE04E
Encoding: 57422 57422 1263
Width: 1658
GlyphClass: 2
Flags: HMW
LayerCount: 2
Fore
SplineSet
1167 594 m 0
 1063 594 939 524 865 422 c 1
 912 405 970 396 1030 396 c 0
 1175 396 1277 444 1277 509 c 0
 1277 559 1232 594 1167 594 c 0
445 231 m 1
 379 79 225 0 4 0 c 2
 0 0 l 2
 -36 0 -51 56 -51 199 c 0
 -51 339 -36 396 0 396 c 2
 4 396 l 2
 144 396 197 433 197 541 c 2
 197 787 l 1
 572 787 l 1
 572 551 l 1
 583 549 593 544 601 540 c 1
 823 841 1018 981 1219 981 c 0
 1451 981 1621 778 1621 504 c 0
 1621 213 1360 0 1003 0 c 0
 720 0 550 72 455 231 c 1
 445 231 l 1
EndSplineSet
EndChar

StartChar: uniE04F
Encoding: 57423 57423 1264
Width: 1690
GlyphClass: 2
Flags: HMW
LayerCount: 2
Back
SplineSet
197 787 m 1
 572 787 l 1
 572 551 l 1
 583 549 593 544 601 540 c 1
 823 841 1018 981 1219 981 c 0
 1451 981 1621 778 1621 504 c 0
 1621 466 1616 431 1608 395 c 1
 1637 396 1664 396 1689 396 c 1
 3738 396 l 1
 3738 0 l 1
 1689 0 l 2
 1564 0 1479 43 1419 123 c 1
 1311 45 1168 0 1003 0 c 0
 720 0 550 72 455 231 c 1
 445 231 l 1
 379 79 225 0 4 0 c 2
 0 0 l 2
 -36 0 -51 56 -51 199 c 0
 -51 339 -36 396 0 396 c 2
 4 396 l 2
 144 396 197 433 197 541 c 2
 197 787 l 1
1167 594 m 0
 1063 594 939 524 865 422 c 1
 912 405 970 396 1030 396 c 0
 1175 396 1277 444 1277 509 c 0
 1277 559 1232 594 1167 594 c 0
EndSplineSet
Fore
SplineSet
197 787 m 1
 572 787 l 1
 572 551 l 1
 583 549 593 544 601 540 c 1
 823 841 1018 981 1219 981 c 0
 1451 981 1621 778 1621 504 c 0
 1621 466 1616 431 1608 395 c 1
 1637 396 1664 396 1689 396 c 1
 1690 396 l 1
 1690 0 l 1
 1689 0 l 2
 1564 0 1479 43 1419 123 c 1
 1311 45 1168 0 1003 0 c 0
 720 0 550 72 455 231 c 1
 445 231 l 1
 379 79 225 0 4 0 c 2
 0 0 l 2
 -36 0 -51 56 -51 199 c 0
 -51 339 -36 396 0 396 c 2
 4 396 l 2
 144 396 197 433 197 541 c 2
 197 787 l 1
1167 594 m 0
 1063 594 939 524 865 422 c 1
 912 405 970 396 1030 396 c 0
 1175 396 1277 444 1277 509 c 0
 1277 559 1232 594 1167 594 c 0
EndSplineSet
Colour: ffff
EndChar

StartChar: uniE050
Encoding: 57424 57424 1265
Width: 1596
GlyphClass: 2
Flags: HMW
LayerCount: 2
Back
SplineSet
726 396 m 1
 951 396 l 2
 1092 396 1193 429 1193 504 c 0
 1193 553 1139 594 1075 594 c 0
 983 594 879 542 726 396 c 1
306 396 m 1
 310 402 314 407 319 414 c 1
 319 1468 l 1
 695 1468 l 1
 695 983 l 2
 695 880 671 787 620 686 c 1
 629 678 l 1
 805 878 977 981 1140 981 c 0
 1377 981 1536 795 1536 526 c 0
 1536 484 1532 446 1524 407 c 1
 1552 399 1571 396 1595 396 c 1
 3644 396 l 1
 3644 0 l 1
 1595 0 l 2
 1486 0 1404 44 1346 126 c 1
 1232 43 1067 0 856 0 c 2
 38 0 l 1
 38 396 l 1
 306 396 l 1
EndSplineSet
Fore
SplineSet
726 396 m 1
 951 396 l 2
 1092 396 1193 429 1193 504 c 0
 1193 553 1139 594 1075 594 c 0
 983 594 879 542 726 396 c 1
306 396 m 1
 310 402 314 407 319 414 c 1
 319 1468 l 1
 695 1468 l 1
 695 983 l 2
 695 880 671 787 620 686 c 1
 629 678 l 1
 805 878 977 981 1140 981 c 0
 1377 981 1536 795 1536 526 c 0
 1536 484 1532 446 1524 407 c 1
 1552 399 1571 396 1595 396 c 1
 1596 396 l 1
 1596 0 l 1
 1595 0 l 2
 1486 0 1404 44 1346 126 c 1
 1232 43 1067 0 856 0 c 2
 38 0 l 1
 38 396 l 1
 306 396 l 1
EndSplineSet
Colour: ffff
EndChar

StartChar: uniE051
Encoding: 57425 57425 1266
Width: 1361
GlyphClass: 2
Flags: HMW
LayerCount: 2
Fore
SplineSet
0 0 m 1
 -31 0 -51 38 -51 199 c 0
 -51 360 -31 396 0 396 c 1
 96 396 l 1
 100 402 104 407 109 414 c 1
 109 1468 l 1
 485 1468 l 1
 485 983 l 2
 485 864 451 770 408 686 c 1
 417 678 l 1
 582 866 756 981 929 981 c 0
 1156 981 1325 805 1325 526 c 0
 1325 184 1071 0 646 0 c 2
 0 0 l 1
513 396 m 1
 740 396 l 2
 881 396 982 429 982 504 c 0
 982 553 928 594 864 594 c 0
 772 594 667 543 513 396 c 1
EndSplineSet
EndChar

StartChar: uniE052
Encoding: 57426 57426 1267
Width: 1383
GlyphClass: 2
Flags: HMW
LayerCount: 2
Back
SplineSet
0 0 m 2
 -36 0 -51 59 -51 199 c 0
 -51 338 -36 396 0 396 c 1
 96 396 l 1
 100 402 104 407 109 414 c 1
 109 1468 l 1
 485 1468 l 1
 485 983 l 2
 485 880 459 787 408 686 c 1
 417 678 l 1
 593 878 766 981 929 981 c 0
 1166 981 1325 795 1325 526 c 0
 1325 486 1320 447 1312 407 c 1
 1338 399 1359 396 1382 396 c 1
 3431 396 l 1
 3431 0 l 1
 1382 0 l 2
 1273 0 1192 44 1134 126 c 1
 1020 43 856 0 646 0 c 2
 0 0 l 2
513 396 m 1
 740 396 l 2
 881 396 982 429 982 504 c 0
 982 553 928 594 864 594 c 0
 772 594 667 543 513 396 c 1
EndSplineSet
Fore
SplineSet
0 0 m 2
 -36 0 -51 59 -51 199 c 0
 -51 338 -36 396 0 396 c 1
 96 396 l 1
 100 402 104 407 109 414 c 1
 109 1468 l 1
 485 1468 l 1
 485 983 l 2
 485 880 459 787 408 686 c 1
 417 678 l 1
 593 878 766 981 929 981 c 0
 1166 981 1325 795 1325 526 c 0
 1325 486 1320 447 1312 407 c 1
 1338 399 1359 396 1382 396 c 1
 1383 396 l 1
 1383 0 l 1
 1382 0 l 2
 1273 0 1192 44 1134 126 c 1
 1020 43 856 0 646 0 c 2
 0 0 l 2
513 396 m 1
 740 396 l 2
 881 396 982 429 982 504 c 0
 982 553 928 594 864 594 c 0
 772 594 667 543 513 396 c 1
EndSplineSet
Colour: ffff
EndChar

StartChar: uniE053
Encoding: 57427 57427 1268
Width: 1245
GlyphClass: 2
Flags: HMW
LayerCount: 2
Back
SplineSet
831 664 m 0
 831 701 785 723 707 723 c 0
 658 723 600 713 556 698 c 1
 556 696 l 1
 718 531 l 1
 794 585 831 629 831 664 c 0
1163 703 m 0
 1163 603 1118 515 1028 429 c 1
 1028 419 l 1
 1069 403 1118 396 1169 396 c 2
 3293 396 l 1
 3293 0 l 1
 1224 0 l 2
 1052 0 905.109936575 55.7572254335 739 182 c 1
 543.945558739 98.7841945289 402 -17.3069908815 402 -156 c 0
 402 -270 570 -344 833 -344 c 0
 945 -344 1055 -329 1156 -302 c 1
 1243 -681 l 1
 1106 -724 969 -746 835 -746 c 0
 355 -746 38 -527 38 -196 c 0
 38 40 199 245 470 376 c 1
 470 386 l 1
 141 664 l 1
 141 883 l 1
 290 1024 489 1104 683 1104 c 0
 963 1104 1163 936 1163 703 c 0
EndSplineSet
Fore
SplineSet
831 664 m 0
 831 701 785 723 707 723 c 0
 658 723 600 713 556 698 c 1
 556 696 l 1
 718 531 l 1
 794 585 831 629 831 664 c 0
1163 703 m 0
 1163 603 1118 515 1028 429 c 1
 1028 419 l 1
 1069 403 1118 396 1169 396 c 2
 1245 396 l 1
 1245 0 l 1
 1224 0 l 2
 1051.73784355 0 905.109936575 55.7572254335 739 182 c 1
 543.945558739 98.7841945289 402 -17.3069908815 402 -156 c 0
 402 -270 570 -344 833 -344 c 0
 945 -344 1055 -329 1156 -302 c 1
 1243 -681 l 1
 1106 -724 969 -746 835 -746 c 0
 355 -746 38 -527 38 -196 c 0
 38 40 199 245 470 376 c 1
 470 386 l 1
 141 664 l 1
 141 883 l 1
 290 1024 489 1104 683 1104 c 0
 963 1104 1163 936 1163 703 c 0
EndSplineSet
Colour: ffff
EndChar

StartChar: uniE054
Encoding: 57428 57428 1269
Width: 1094
GlyphClass: 2
Flags: HMW
LayerCount: 2
Fore
SplineSet
419 563 m 0
 419 482 483.761904762 444 619 444 c 0
 664 444 709 447 755 452 c 2
 981 480 l 1
 1020 97 l 1
 555 44 l 2
 300 15 123 0 35 0 c 2
 0 0 l 2
 -36 0 -51 58 -51 199 c 0
 -51 339 -36 396 0 396 c 2
 18 396 l 2
 43 396 84 396 106 396 c 1
 106 416 l 1
 73 466 58 528 58 612 c 0
 58 887 282 1089 588 1089 c 0
 738 1089 878 1037 979 944 c 1
 815 656 l 1
 730 690 663 705 590 705 c 0
 487.022099448 705 419 649 419 563 c 0
EndSplineSet
EndChar

StartChar: uniE055
Encoding: 57429 57429 1270
Width: 1181
GlyphClass: 2
Flags: HMW
LayerCount: 2
Back
SplineSet
653 723 m 0
 604 723 548 714 503 698 c 1
 503 696 l 1
 661 531 l 1
 739 586 777 628 777 664 c 0
 777 701 731 723 653 723 c 0
629 1104 m 0
 910 1104 1110 936 1110 703 c 0
 1110 604.181455272 1061.6045253 510.202978891 970 424 c 1
 970 414 l 1
 1025 399.913043478 1073 396 1135 396 c 2
 3229 396 l 1
 3229 0 l 1
 1091 0 l 2
 925 0 800 50 665 167 c 1
 506 58 316 0 109 0 c 2
 0 0 l 2
 -36 0 -51 58 -51 199 c 0
 -51 339 -36 396 0 396 c 2
 98 396 l 2
 197 396 308 404.708333333 372 415 c 1
 372 425 l 1
 88 664 l 1
 88 883 l 1
 237 1023 435 1104 629 1104 c 0
EndSplineSet
Fore
SplineSet
653 723 m 0
 604 723 548 714 503 698 c 1
 503 696 l 1
 661 531 l 1
 739 586 777 628 777 664 c 0
 777 701 731 723 653 723 c 0
629 1104 m 0
 910 1104 1110 936 1110 703 c 0
 1110 604.181455272 1061.6045253 510.202978891 970 424 c 1
 970 414 l 1
 1025 399.913043478 1073 396 1135 396 c 2
 1181 396 l 1
 1181 0 l 1
 1091 0 l 2
 925 0 800 50 665 167 c 1
 506 58 316 0 109 0 c 2
 0 0 l 2
 -36 0 -51 58 -51 199 c 0
 -51 339 -36 396 0 396 c 2
 98 396 l 2
 197 396 308 404.708333333 372 415 c 1
 372 425 l 1
 88 664 l 1
 88 883 l 1
 237 1023 435 1104 629 1104 c 0
EndSplineSet
Colour: ffff
EndChar

StartChar: uniE056
Encoding: 57430 57430 1271
Width: 1849
GlyphClass: 2
Flags: HMW
LayerCount: 2
Back
SplineSet
1640 670 m 2
 1640 431 1664 396 1848 396 c 1
 3897 396 l 1
 3897 0 l 1
 1848 0 l 1
 1644 0 1508 64 1460 219 c 1
 1450 219 l 1
 1366 56 1160 0 832 0 c 0
 271 0 38 160 38 547 c 0
 38 635 54 759 83 885 c 1
 423 811 l 1
 406 714 394 613 394 572 c 0
 394 435 486 396 813 396 c 0
 1172 396 1265 451 1265 669 c 2
 1265 1459 l 1
 1640 1459 l 1
 1640 670 l 2
EndSplineSet
Fore
SplineSet
1640 670 m 2
 1640 431 1664 396 1848 396 c 1
 1849 396 l 1
 1849 0 l 1
 1848 0 l 1
 1644 0 1508 64 1460 219 c 1
 1450 219 l 1
 1366 56 1160 0 832 0 c 0
 271 0 38 160 38 547 c 0
 38 635 54 759 83 885 c 1
 423 811 l 1
 406 714 394 613 394 572 c 0
 394 435 486 396 813 396 c 0
 1172 396 1265 451 1265 669 c 2
 1265 1459 l 1
 1640 1459 l 1
 1640 670 l 2
EndSplineSet
Colour: ffff
EndChar

StartChar: uniE057
Encoding: 57431 57431 1272
Width: 930
GlyphClass: 2
Flags: HMW
LayerCount: 2
Fore
SplineSet
952 1562 m 1
 1003 1170 l 1
 748 1115 601 1078 457 1030 c 1
 457 1025 l 1
 739 792.940140845 838 654.651408451 838 487 c 0
 838 178 591 0 160 0 c 2
 0 0 l 2
 -36 0 -51 56 -51 199 c 0
 -51 341 -36 396 0 396 c 2
 151 396 l 2
 369 396 462 430 462 509 c 0
 462 577.22875817 353 677.235294118 -7 938 c 1
 20 1251 l 1
 324 1403 615 1500 952 1562 c 1
EndSplineSet
EndChar

StartChar: uniE058
Encoding: 57432 57432 1273
Width: 1141
GlyphClass: 2
Flags: HMW
LayerCount: 2
Back
SplineSet
700 286 m 1
 580 74 443 0 160 0 c 2
 0 0 l 2
 -36 0 -51 55 -51 197 c 0
 -51 340 -36 396 0 396 c 2
 151 396 l 2
 355 396 452 430 452 505 c 0
 452 579.816414687 323 697.652267819 -7 938 c 1
 20 1251 l 1
 324 1403 615 1500 952 1562 c 1
 1003 1170 l 1
 748 1115 601 1078 457 1030 c 1
 457 1025 l 1
 613 895.824742268 675 834.005154639 785 667 c 1
 908 460 993 396 1140 396 c 2
 3189 396 l 1
 3189 0 l 1
 1140 0 l 2
 945 0 813 88 710 286 c 1
 700 286 l 1
EndSplineSet
Fore
SplineSet
700 286 m 1
 580 74 443 0 160 0 c 2
 0 0 l 2
 -36 0 -51 55 -51 197 c 0
 -51 340 -36 396 0 396 c 2
 151 396 l 2
 355 396 452 430 452 505 c 0
 452 579.816414687 323 697.652267819 -7 938 c 1
 20 1251 l 1
 324 1403 615 1500 952 1562 c 1
 1003 1170 l 1
 748 1115 601 1078 457 1030 c 1
 457 1025 l 1
 613 895.824742268 675 834.005154639 785 667 c 1
 908 460 993 396 1140 396 c 2
 1141 396 l 1
 1141 0 l 1
 1140 0 l 2
 945 0 813 88 710 286 c 1
 700 286 l 1
EndSplineSet
Colour: ffff
EndChar

StartChar: uniE059
Encoding: 57433 57433 1274
Width: 1614
GlyphClass: 2
Flags: HMW
LayerCount: 2
Back
SplineSet
3662 396 m 1
 3662 0 l 1
 1601 0 l 2
 1504 0 1434 40 1398 115 c 1
 1387 113 l 1
 1387 88 l 2
 1387 -257.496815287 1088 -500 662 -500 c 0
 257 -500 38 -279 38 128 c 0
 38 218 53 324 97 544 c 1
 435 461 l 1
 406 322 393 228 393 157 c 0
 393 -26 482 -104 690 -104 c 0
 908 -104 1010 -6 1010 203 c 2
 1010 1468 l 1
 1387 1468 l 1
 1387 558 l 2
 1387 427 1425 396 1584 396 c 2
 3662 396 l 1
EndSplineSet
Fore
SplineSet
1614 396 m 1
 1614 0 l 1
 1601 0 l 2
 1504 0 1436 38 1398 115 c 1
 1387 113 l 1
 1387 88 l 2
 1387 -257.496815287 1088 -500 662 -500 c 0
 257 -500 38 -279 38 128 c 0
 38 218 53 324 97 544 c 1
 435 461 l 1
 406 322 393 228 393 157 c 0
 393 -26 482 -104 690 -104 c 0
 908 -104 1010 -6 1010 203 c 2
 1010 1468 l 1
 1387 1468 l 1
 1387 558 l 2
 1387 427 1425 396 1584 396 c 2
 1614 396 l 1
EndSplineSet
Colour: ffff
EndChar

StartChar: uniE05A
Encoding: 57434 57434 1275
Width: 664
GlyphClass: 2
Flags: HMW
LayerCount: 2
Fore
SplineSet
0 396 m 0
 162 396 181 403 181 527 c 2
 181 1468 l 1
 558 1468 l 1
 558 527 l 2
 558 190 364 0 0 0 c 0
 -31 0 -52 39 -52 199 c 0
 -52 359 -31 396 0 396 c 0
EndSplineSet
EndChar

StartChar: uniE05B
Encoding: 57435 57435 1276
Width: 744
GlyphClass: 2
Flags: HMW
LayerCount: 2
Back
SplineSet
365 226 m 1
 314 105 188 0 0 0 c 0
 -31 0 -51 39 -51 199 c 0
 -51 359 -31 396 0 396 c 0
 161 396 181 402 181 526 c 2
 181 1468 l 1
 557 1468 l 1
 557 543 l 2
 557 424 603 396 743 396 c 2
 2792 396 l 1
 2792 0 l 1
 743 0 l 2
 544 0 426 107 375 226 c 1
 365 226 l 1
EndSplineSet
Fore
SplineSet
365 226 m 1
 314 105 188 0 0 0 c 0
 -31 0 -51 39 -51 199 c 0
 -51 359 -31 396 0 396 c 0
 161 396 181 402 181 526 c 2
 181 1468 l 1
 557 1468 l 1
 557 543 l 2
 557 424 603 396 743 396 c 2
 744 396 l 1
 744 0 l 1
 743 0 l 2
 544 0 426 107 375 226 c 1
 365 226 l 1
EndSplineSet
Colour: ffff
EndChar

StartChar: uniE05C
Encoding: 57436 57436 1277
Width: 1517
GlyphClass: 2
Flags: HMW
LayerCount: 2
Back
SplineSet
841 581 m 0
 774 581 738 514 718 420 c 1
 746 412 779 404 810 398 c 0
 846 390 872 386 889 386 c 0
 922 386 939 406 939 456 c 0
 939 523 905 581 841 581 c 0
848 969 m 0
 1079 969 1162 805 1236 646 c 0
 1298 512 1369 396 1516 396 c 1
 3565 396 l 1
 3565 0 l 1
 1516 0 l 1
 1369 0 1295 56 1232 200 c 1
 1222 200 l 1
 1163 91 1092 -11 934 -11 c 0
 851 -11 753 5 624 33 c 0
 547 51 500 58 476 58 c 0
 441 58 414 34 414 -12 c 2
 414 -613 l 1
 38 -613 l 1
 38 62 l 2
 38 306 179 480 384 480 c 1
 440 775 610 969 848 969 c 0
EndSplineSet
Fore
SplineSet
841 581 m 0
 774 581 738 514 718 420 c 1
 746 412 779 404 810 398 c 0
 846 390 872 386 889 386 c 0
 922 386 939 406 939 456 c 0
 939 523 905 581 841 581 c 0
848 969 m 0
 1079 969 1162 805 1236 646 c 0
 1298 512 1369 396 1516 396 c 1
 1517 396 l 1
 1517 0 l 1
 1516 0 l 1
 1369 0 1295 56 1232 200 c 1
 1222 200 l 1
 1163 91 1092 -11 934 -11 c 0
 851 -11 753 5 624 33 c 0
 547 51 500 58 476 58 c 0
 441 58 414 34 414 -12 c 2
 414 -613 l 1
 38 -613 l 1
 38 62 l 2
 38 306 179 480 384 480 c 1
 440 775 610 969 848 969 c 0
EndSplineSet
Colour: ffff
EndChar

StartChar: uniE05D
Encoding: 57437 57437 1278
Width: 1106
GlyphClass: 2
Flags: HMW
LayerCount: 2
Fore
SplineSet
0 396 m 0
 113 396 154 443 252 634 c 0
 378 876 477 968 652 968 c 0
 894 968 1070 748 1070 458 c 0
 1070 163 922 -10 669 -10 c 0
 512 -10 389 60 329 178 c 1
 238 48 157 0 0 0 c 1
 -36 0 -51 56 -51 199 c 0
 -51 339 -36 396 0 396 c 0
519 438 m 1
 581 403 629 385 670 385 c 0
 712 385 741 417 741 463 c 0
 741 525 701 580 648 580 c 0
 596 580 564 539 529 461 c 1
 519 438 l 1
EndSplineSet
EndChar

StartChar: uniE05E
Encoding: 57438 57438 1279
Width: 1319
GlyphClass: 2
Flags: HMW
LayerCount: 2
Back
SplineSet
519 438 m 1
 581 403 629 385 670 385 c 0
 712 385 741 417 741 463 c 0
 741 525 701 580 648 580 c 0
 596 580 564 539 529 461 c 1
 519 438 l 1
0 396 m 0
 113 396 154 443 252 634 c 0
 378 876 477 968 652 968 c 0
 820 968 937 865 1037 652 c 0
 1123 473 1197 396 1318 396 c 1
 3367 396 l 1
 3367 0 l 1
 1318 0 l 1
 1154 0 1050 82 1007 232 c 1
 997 231 l 1
 942 77 822 -10 669 -10 c 0
 512 -10 389 60 329 178 c 1
 238 48 157 0 0 0 c 1
 -36 0 -51 56 -51 199 c 0
 -51 339 -36 396 0 396 c 0
EndSplineSet
Fore
SplineSet
519 438 m 1
 581 403 629 385 670 385 c 0
 712 385 741 417 741 463 c 0
 741 525 701 580 648 580 c 0
 596 580 564 539 529 461 c 1
 519 438 l 1
0 396 m 0
 113 396 154 443 252 634 c 0
 378 876 477 968 652 968 c 0
 820 968 937 865 1037 652 c 0
 1123 473 1197 396 1318 396 c 1
 1319 396 l 1
 1319 0 l 1
 1318 0 l 1
 1154 0 1050 82 1007 232 c 1
 997 231 l 1
 942 77 822 -10 669 -10 c 0
 512 -10 389 60 329 178 c 1
 238 48 157 0 0 0 c 1
 -36 0 -51 56 -51 199 c 0
 -51 339 -36 396 0 396 c 0
EndSplineSet
Colour: ffff
EndChar

StartChar: uniE05F
Encoding: 57439 57439 1280
Width: 1211
GlyphClass: 2
Flags: HMW
LayerCount: 2
Back
SplineSet
630 1040 m 1
 620 1216 l 1
 995 1239 l 1
 1033 593 l 2
 1041 454 1091 396 1210 396 c 2
 3259 396 l 1
 3259 0 l 1
 1210 0 l 2
 1016 0 876 65 782 198 c 1
 716 166 628 146 557 146 c 0
 283 146 108 282 108 496 c 0
 108 773 291 963 630 1040 c 1
657 682 m 1
 522 677 430 633 430 570 c 0
 430 526 484 501 579 501 c 0
 621 501 647 503 672 507 c 1
 667 541 666 552 665 569 c 2
 657 682 l 1
EndSplineSet
Fore
SplineSet
630 1040 m 1
 620 1216 l 1
 995 1239 l 1
 1033 593 l 2
 1042 453 1092 396 1210 396 c 2
 1211 396 l 1
 1211 0 l 1
 1210 0 l 2
 1016 0 876 65 782 198 c 1
 716 166 628 146 557 146 c 0
 283 146 108 282 108 496 c 0
 108 773 290 963 630 1040 c 1
657 682 m 1
 522 677 430 633 430 570 c 0
 430 526 484 501 579 501 c 0
 621 501 647 503 672 507 c 1
 667 541 666 552 665 569 c 2
 657 682 l 1
EndSplineSet
Colour: ffff
EndChar

StartChar: uniE060
Encoding: 57440 57440 1281
Width: 1456
GlyphClass: 2
Flags: HMW
LayerCount: 2
Fore
SplineSet
0 396 m 2
 99 396 l 2
 130.58974359 396 153.294871795 396 176 396 c 1
 136.689655172 476.23943662 119 546.572769953 119 607 c 0
 119 707.154207557 159 809 257 858 c 1
 261 868 l 1
 113 934 l 1
 268 1275 l 1
 895 1006 l 2
 1265.20995139 847.169893265 1409 691.851419032 1409 427 c 0
 1409 163 1231 -11 963 -11 c 0
 803 -11 665 35 520 140 c 1
 413 52 264 -1.81241740366e-14 116 0 c 2
 0 0 l 2
 -36 0 -51 56 -51 199 c 0
 -51 339 -36 396 0 396 c 2
537 454 m 1
 619 497 659 550 659 619 c 0
 659 683.72815534 609 732 546 732 c 0
 483 732 433 674.691056911 433 599 c 0
 433 558 470 503 537 454 c 1
864 410 m 1
 911 395 950 386 992 386 c 0
 1065 386 1107 408 1107 448 c 0
 1107 508.851351351 1049 556.891891892 920 606 c 1
 920 525.913978495 900 465.849462366 864 410 c 1
EndSplineSet
EndChar

StartChar: uniE061
Encoding: 57441 57441 1282
Width: 1107
GlyphClass: 2
Flags: HMW
LayerCount: 2
Back
SplineSet
509 1038 m 0
 735 1038 890 879 890 641 c 0
 890 418 706 191 406 65 c 1
 449 -33 485 -91 538 -140 c 1
 543 -140 l 1
 811 314 896 396 1098 396 c 2
 3155 396 l 1
 3155 0 l 1
 1098 0 l 2
 952 0 872 -97 680 -510 c 1
 424 -510 l 1
 259 -361 162 -198 105 0 c 1
 0 0 l 2
 -36 0 -51 57 -51 199 c 0
 -51 339 -36 396 0 396 c 2
 74 396 l 1
 74 854 276 1038 509 1038 c 0
372 417 m 1
 501 439 591 509 591 587 c 0
 591 638 560 672 511 672 c 0
 437 672 374 617 372 417 c 1
EndSplineSet
Fore
SplineSet
509 1038 m 0
 735 1038 890 879 890 641 c 0
 890 418 706 191 406 65 c 1
 449 -33 485 -91 538 -140 c 1
 543 -140 l 1
 811 314 896 396 1098 396 c 2
 1107 396 l 1
 1107 0 l 1
 1098 0 l 2
 952 0 872 -97 680 -510 c 1
 424 -510 l 1
 259 -361 162 -198 105 0 c 1
 0 0 l 2
 -36 0 -51 57 -51 199 c 0
 -51 339 -36 396 0 396 c 2
 74 396 l 1
 75 854 276 1038 509 1038 c 0
372 417 m 1
 501 439 591 509 591 587 c 0
 591 638 560 672 511 672 c 0
 438 672 374 617 372 417 c 1
EndSplineSet
Colour: ffff
EndChar

StartChar: uniE062
Encoding: 57442 57442 1283
Width: 960
GlyphClass: 2
Flags: HMW
LayerCount: 2
Back
SplineSet
576 388 m 1
 575 489 539 565 458 565 c 0
 398 565 360 515 360 454 c 0
 360 405 393 382 446 382 c 1
 487 382 532 382 576 388 c 1
563 -4 m 1
 554 13 l 1
 512 3 463 0 425 0 c 1
 187 0 58 142 58 392 c 0
 58 690 193 965 469 965 c 0
 741 965 881 725 920 396 c 1
 3008 396 l 1
 3008 0 l 1
 905 0 l 1
 834 -252 608 -429 220 -559 c 1
 48 -205 l 1
 256 -154 476 -71 563 -4 c 1
EndSplineSet
Fore
SplineSet
576 388 m 1
 575 489 539 565 458 565 c 0
 398 565 360 515 360 454 c 0
 360 405 393 382 446 382 c 1
 487 382 532 382 576 388 c 1
563 -4 m 1
 554 13 l 1
 512 3 463 0 425 0 c 1
 187 0 58 142 58 392 c 0
 58 690 193 965 469 965 c 0
 741 965 881 725 920 396 c 1
 960 396 l 1
 960 0 l 1
 905 0 l 1
 834 -252 608 -429 220 -559 c 1
 48 -205 l 1
 256 -154 476 -71 563 -4 c 1
EndSplineSet
Colour: ffff
EndChar

StartChar: uniE063
Encoding: 57443 57443 1284
Width: 1298
GlyphClass: 2
Flags: HMW
LayerCount: 2
Fore
SplineSet
752 576 m 1
 542 419 l 1
 542 410 l 1
 581 397 649 386 710 386 c 0
 809 386 888 410 888 438 c 0
 888 458.088607595 839 507.873417722 752 576 c 1
770 998 m 1
 816 1048.05286344 845 1143.8061674 845 1245 c 2
 845 1468 l 1
 1222 1468 l 1
 1222 1245 l 2
 1222 1043.95833333 1156 891.875 1010 745 c 1
 1155 619.093333333 1222 511.173333333 1222 390 c 0
 1222 142 998 -11 634 -11 c 0
 490 -11 354 18 157 95 c 1
 157 480 l 1
 551 759 l 1
 77 1201 l 1
 341 1478 l 1
 770 998 l 1
EndSplineSet
EndChar

StartChar: uniE064
Encoding: 57444 57444 1285
Width: 1413
GlyphClass: 2
Flags: HMW
LayerCount: 2
Back
SplineSet
75 1394 m 1
 430 1489 l 1
 501 1274.22727273 539 1092.86363636 603 649 c 1
 233 600 l 1
 187 935.117505995 135 1197.88009592 75 1394 c 1
861 1468 m 1
 1237 1468 l 1
 1237 542 l 2
 1237 430 1300 396 1412 396 c 2
 3461 396 l 1
 3461 0 l 1
 1412 0 l 2
 1180 0 1034 92 964 281 c 2
 962 283 l 1
 793 88 538 0 58 0 c 1
 58 396 l 1
 493 396 706 460 861 616 c 1
 861 1468 l 1
EndSplineSet
Fore
SplineSet
75 1394 m 1
 430 1489 l 1
 501 1274.22727273 539 1092.86363636 603 649 c 1
 233 600 l 1
 187 935.117505995 135 1197.88009592 75 1394 c 1
861 1468 m 1
 1237 1468 l 1
 1237 542 l 2
 1237 430 1299 396 1412 396 c 2
 1413 396 l 1
 1413 0 l 1
 1412 0 l 2
 1180 0 1034 92 964 281 c 2
 962 283 l 1
 793 88 538 0 58 0 c 1
 58 396 l 1
 493 396 706 460 861 616 c 1
 861 1468 l 1
EndSplineSet
Colour: ffff
EndChar

StartChar: uniE065
Encoding: 57445 57445 1286
Width: 1975
GlyphClass: 2
Flags: HMW
LayerCount: 2
Back
SplineSet
1836 806 m 1
 1814 680 1802 591 1802 547 c 0
 1802 450 1864 396 1974 396 c 2
 4023 396 l 1
 4023 0 l 1
 1974 0 l 2
 1779 0 1609 66 1521 262 c 1
 1511 262 l 1
 1358 60 1118 0 793 0 c 0
 292 0 38 195 38 588 c 0
 38 695 58 833 98 984 c 1
 424 897 l 1
 400 798 385 694 385 643 c 0
 385 461 512 396 848 396 c 0
 1240 396 1414 520 1495 863 c 1
 1836 806 l 1
EndSplineSet
Fore
SplineSet
1836 806 m 1
 1814 680 1802 591 1802 547 c 0
 1802 449 1864 396 1974 396 c 2
 1975 396 l 1
 1975 0 l 1
 1974 0 l 2
 1779 0 1609 66 1521 262 c 1
 1511 262 l 1
 1358 60 1118 0 793 0 c 0
 291 0 38 195 38 588 c 0
 38 695 58 832 98 984 c 1
 424 897 l 1
 400 798 385 694 385 643 c 0
 385 461 512 396 848 396 c 0
 1240 396 1414 520 1495 863 c 1
 1836 806 l 1
EndSplineSet
Colour: ffff
EndChar

StartChar: uniE066
Encoding: 57446 57446 1287
Width: 962
GlyphClass: 2
Flags: HMW
LayerCount: 2
Fore
SplineSet
532 837 m 1
 517 958 478 1020 418 1020 c 0
 357 1020 320 971 320 892 c 0
 320 847 349 827 415 827 c 0
 449 827 485 830 532 837 c 1
0 396 m 2
 316 396 l 2
 538 396 592 420 592 518 c 1
 515 499 447 489 386 489 c 0
 138 489 23 597 23 832 c 0
 23 1187 180 1407 434 1407 c 0
 729 1407 918 1092 918 600 c 0
 918 186 732 0 320 0 c 2
 0 0 l 2
 -36 0 -51 58 -51 199 c 0
 -51 339 -36 396 0 396 c 2
EndSplineSet
EndChar

StartChar: uniE067
Encoding: 57447 57447 1288
Width: 1958
GlyphClass: 2
Flags: HMW
LayerCount: 2
Back
SplineSet
1444 143 m 1
 1300.25 54.7659574468 1104.94827586 0 869 0 c 0
 300 0 38 154 38 522 c 0
 38 645 76 817 133 991 c 1
 461 886 l 1
 430 785 398 651 398 594 c 0
 398 452 522.121244287 405.172177231 869 396 c 0
 944.637168142 394 1016.34513274 394 1091 394 c 1
 1096 403 l 1
 1023 468.229571984 986 556.190661479 986 657 c 0
 986 930 1195 1127 1451 1127 c 0
 1704 1127 1916 929 1916 662 c 0
 1916 561.770992366 1879.33636364 469.480916031 1807 402 c 1
 1814 394 l 1
 1841.98837209 396 1866 396 1897 396 c 2
 4006 396 l 1
 4006 0 l 1
 1877 0 l 2
 1680 0 1550 56 1444 143 c 1
1449 474 m 1
 1513 515 1551 569 1551 635 c 0
 1551 681 1511 730 1451 730 c 0
 1390 730 1351 684 1351 635 c 0
 1351 578 1392 518 1449 474 c 1
EndSplineSet
Fore
SplineSet
1444 143 m 1
 1300.25 54.7659574468 1104.94827586 0 869 0 c 0
 300 0 38 154 38 522 c 0
 38 645 76 817 133 991 c 1
 461 886 l 1
 430 785 398 651 398 594 c 0
 398 452 522.121244287 405.172177231 869 396 c 0
 944.637168142 394 1016.34513274 394 1091 394 c 1
 1096 403 l 1
 1023 468.229571984 986 556.190661479 986 657 c 0
 986 930 1195 1127 1451 1127 c 0
 1704 1127 1916 929 1916 662 c 0
 1916 561.770992366 1879.33636364 469.480916031 1807 402 c 1
 1814 394 l 1
 1841.98837209 396 1866.11627907 396 1897 396 c 2
 1958 396 l 1
 1958 0 l 1
 1877 0 l 2
 1680 0 1550 56 1444 143 c 1
1449 474 m 1
 1513 515 1551 569 1551 635 c 0
 1551 681 1511 730 1451 730 c 0
 1390 730 1351 684 1351 635 c 0
 1351 578 1392 518 1449 474 c 1
EndSplineSet
Colour: ffff
EndChar

StartChar: uniE068
Encoding: 57448 57448 1289
Width: 1068
GlyphClass: 2
Flags: HMW
LayerCount: 2
Back
SplineSet
68 657 m 0
 68 930 277 1127 533 1127 c 0
 786 1127 998 929 998 662 c 0
 998 561.770992366 961.336363636 469.480916031 889 402 c 1
 896 394 l 1
 923.988372093 396 948 396 979 396 c 2
 3116 396 l 1
 3116 0 l 1
 959 0 l 2
 762 0 632 56 526 143 c 1
 423 56 296 0 108 0 c 2
 0 0 l 2
 -36 0 -52 59 -52 199 c 0
 -52 338 -36 396 0 396 c 2
 60 396 l 1
 99.3595505618 396 136.179775281 396 173 394 c 1
 178 403 l 1
 105 468.229571984 68 556.190661479 68 657 c 0
531 474 m 1
 595 515 633 569 633 635 c 0
 633 681 593 730 533 730 c 0
 472 730 433 684 433 635 c 0
 433 578 474 518 531 474 c 1
EndSplineSet
Fore
SplineSet
68 657 m 0
 68 930 277 1127 533 1127 c 0
 786 1127 998 929 998 662 c 0
 998 561.770992366 961.336363636 469.480916031 889 402 c 1
 896 394 l 1
 923.988372093 396 948.11627907 396 979 396 c 2
 1068 396 l 1
 1068 0 l 1
 959 0 l 2
 762 0 632 56 526 143 c 1
 423 56 296 0 108 0 c 2
 0 0 l 2
 -36 0 -52 59 -52 199 c 0
 -52 338 -36 396 0 396 c 2
 60 396 l 1
 99.3595505618 396 136.179775281 396 173 394 c 1
 178 403 l 1
 105 468.229571984 68 556.190661479 68 657 c 0
531 474 m 1
 595 515 633 569 633 635 c 0
 633 681 593 730 533 730 c 0
 472 730 433 684 433 635 c 0
 433 578 474 518 531 474 c 1
EndSplineSet
Colour: ffff
EndChar

StartChar: uniE069
Encoding: 57449 57449 1290
Width: 1580
GlyphClass: 2
Flags: HMW
LayerCount: 2
Back
SplineSet
1078 565 m 0
 1018 565 979 515 979 454 c 0
 979 405 1012 382 1065 382 c 0
 1111 382 1155 383 1195 388 c 1
 1194 489 1159 565 1078 565 c 0
1088 965 m 0
 1343 965 1499 748 1540 396 c 1
 3628 396 l 1
 3628 0 l 1
 1528 0 l 1
 1452 -343 1177 -541 777 -541 c 0
 295 -541 42 -324 42 92 c 0
 42 208 60 363 103 617 c 1
 467 546 l 1
 432 354 417 230 417 128 c 0
 417 -52 545 -144 789 -144 c 0
 974 -144 1117 -95 1182 -4 c 1
 1173 13 l 1
 1136 5 1087 0 1044 0 c 0
 810 0 677 138 677 392 c 0
 677 730 841 965 1088 965 c 0
EndSplineSet
Fore
SplineSet
1078 565 m 0
 1018 565 979 515 979 454 c 0
 979 405 1012 382 1065 382 c 0
 1111 382 1155 383 1195 388 c 1
 1194 489 1159 565 1078 565 c 0
1088 965 m 0
 1343 965 1499 748 1540 396 c 1
 1580 396 l 1
 1580 0 l 1
 1528 0 l 1
 1452 -343 1177 -541 777 -541 c 0
 295 -541 42 -324 42 92 c 0
 42 208 60 363 103 617 c 1
 467 546 l 1
 432 354 417 230 417 128 c 0
 417 -52 545 -144 789 -144 c 0
 974 -144 1117 -95 1182 -4 c 1
 1173 13 l 1
 1136 5 1087 0 1044 0 c 0
 810 0 677 138 677 392 c 0
 677 730 841 965 1088 965 c 0
EndSplineSet
Colour: ffff
EndChar

StartChar: uniE06E
Encoding: 57454 57454 1291
Width: 0
GlyphClass: 2
Flags: HMW
LayerCount: 2
Fore
SplineSet
-72 1240 m 1
 -2 1240 l 2
 101 1240 149 1252 149 1288 c 0
 149 1310 129 1328 98 1328 c 0
 53 1328 0 1300 -72 1240 c 1
-210 1240 m 1
 -210 1622 l 1
 -58 1622 l 1
 -58 1393 l 1
 -48 1393 l 1
 34 1463 83 1484 142 1484 c 0
 224 1484 283 1402 283 1324 c 0
 283 1159 174 1077 -2 1077 c 2
 -308 1077 l 1
 -308 1240 l 1
 -210 1240 l 1
EndSplineSet
EndChar

StartChar: uniE06F
Encoding: 57455 57455 1292
Width: 0
GlyphClass: 2
Flags: HMW
LayerCount: 2
Fore
SplineSet
94 1373 m 1
 116.584863254 1365.14439539 136.50057706 1362 163.754882812 1362 c 0
 228.669107255 1362 265 1379.83754012 265 1411.75195312 c 0
 265 1436.06905272 243.908579193 1452 211.752929688 1452 c 0
 170.635278629 1452 131.822608183 1425.95165146 94 1373 c 1
-8 1427 m 1
 86.5795199334 1561.51309502 156.431820101 1612 247.176757812 1612 c 0
 349.118183008 1612 405 1548.28573516 405 1433.4921875 c 0
 405 1275.80496387 299.554053474 1160 156.630859375 1160 c 0
 107.257208813 1160 64.3017619945 1173.82016096 6.5595703125 1208.23242188 c 0
 -35.1482016775 1233.08832147 -62.091889463 1243 -87.94140625 1243 c 0
 -129.009654432 1243 -157.010345386 1217.9821307 -201 1142 c 1
 -341 1233 l 1
 -278.005375068 1380.98737286 -202.007768312 1454 -110.962890625 1454 c 0
 -79.1608072917 1454 -45.1880297918 1445.09147395 -8 1427 c 1
EndSplineSet
EndChar

StartChar: uniE070
Encoding: 57456 57456 1293
Width: 0
GlyphClass: 2
Flags: HMW
LayerCount: 2
Fore
SplineSet
230 1355 m 1
 230 1175 139 1098 0 1098 c 0
 -141 1098 -230 1175 -230 1355 c 1
 -65 1355 l 1
 -65 1276 -41 1264 0 1264 c 0
 39 1264 65 1280 65 1355 c 1
 230 1355 l 1
EndSplineSet
EndChar

StartChar: uniE071
Encoding: 57457 57457 1294
Width: 0
GlyphClass: 2
Flags: HMW
LayerCount: 2
Fore
SplineSet
230 1106 m 1
 -230 1106 l 1
 -230 1272 l 1
 230 1272 l 1
 230 1106 l 1
EndSplineSet
EndChar

StartChar: uniE072
Encoding: 57458 57458 1295
Width: 0
GlyphClass: 2
Flags: HMW
LayerCount: 2
Fore
SplineSet
-62 1489 m 0
 -83 1489 -101 1474 -101 1454 c 0
 -101 1419 -88 1395 -63 1378 c 1
 -11 1401 3 1425 3 1442 c 0
 3 1460 -36 1489 -62 1489 c 0
-89 1652 m 0
 34 1652 148 1555 148 1441 c 0
 148 1378 127 1316 71 1284 c 1
 142 1252 209 1229 249 1220 c 1
 205 1057 l 1
 -65 1127 -254 1302 -254 1465 c 0
 -254 1582 -188 1652 -89 1652 c 0
EndSplineSet
EndChar

StartChar: uniE073
Encoding: 57459 57459 1296
Width: 0
GlyphClass: 2
Flags: HMW
LayerCount: 2
Fore
SplineSet
-172 1077 m 1
 -240 1227 l 1
 172 1422 l 1
 239 1272 l 1
 -172 1077 l 1
-203 1420 m 1
 -111 1512 l 1
 -19 1420 l 1
 -111 1329 l 1
 -203 1420 l 1
-7 1063 m 1
 85 1155 l 1
 177 1063 l 1
 85 972 l 1
 -7 1063 l 1
EndSplineSet
EndChar

StartChar: uniE075
Encoding: 57461 57461 1297
Width: 2230
GlyphClass: 2
Flags: HMW
LayerCount: 2
Fore
SplineSet
1259 1616 m 1
 1463 1284 l 1
 1165 1121 1014 1034 890 950 c 1
 1582 950 l 2
 2008 950 2193 831 2193 558 c 0
 2193 223 1906 0 1467 0 c 2
 38 0 l 1
 38 396 l 1
 1578 396 l 2
 1694 396 1798 442 1798 493 c 0
 1798 528 1759 554 1710 554 c 2
 669 554 l 1
 430 903 l 1
 516 1131 763 1344 1259 1616 c 1
EndSplineSet
EndChar

StartChar: uniE076
Encoding: 57462 57462 1298
Width: 2081
GlyphClass: 2
Flags: HMW
LayerCount: 2
Fore
SplineSet
905 559 m 1
 607 382 l 1
 470 345 263 278 152 235 c 1
 41 531 l 1
 309 625 467 662 596 662 c 0
 696 662 790 630 905 559 c 1
EndSplineSet
Refer: 1247 57406 N 1 0 0 1 443 0 2
EndChar

StartChar: uniE077
Encoding: 57463 57463 1299
Width: 1780
GlyphClass: 2
Flags: HMW
LayerCount: 2
Fore
SplineSet
1291 796 m 1
 1252 972 1226 1035 1191 1035 c 0
 1174 1035 1157 1019 1145 991 c 0
 1024 718 851 573 608 517 c 0
 491 490 408 458 408 432 c 0
 408 408 435 396 573 396 c 2
 1744 396 l 1
 1744 0 l 1
 516 0 l 2
 216 0 38 144 38 389 c 0
 38 635 199 802 537 894 c 0
 665 929 742 999 821 1158 c 0
 926 1373 1039 1466 1194 1466 c 0
 1424 1466 1531 1320 1623 877 c 1
 1291 796 l 1
EndSplineSet
EndChar

StartChar: uniE078
Encoding: 57464 57464 1300
Width: 0
GlyphClass: 2
Flags: HMW
LayerCount: 2
Fore
SplineSet
253 1329 m 0
 217 1329 180 1307 162 1283 c 1
 176 1276 198 1273 216 1273 c 0
 255 1273 284 1289 284 1305 c 0
 284 1320 272 1329 253 1329 c 0
270 1461 m 0
 346 1461 400 1389 400 1304 c 0
 400 1217 328 1140 215 1140 c 0
 133 1140 66 1170 29 1224 c 1
 19 1224 l 1
 5 1175 -56 1140 -99 1140 c 0
 -171 1140 -218 1179 -225 1224 c 1
 -235 1224 l 1
 -242 1180 -290 1140 -350 1140 c 2
 -351 1140 l 2
 -466 1140 -479 1109 -479 1096 c 0
 -479 1090 -477 1078 -457 1078 c 2
 -1 1078 l 1
 -1 948 l 1
 -453 948 l 2
 -535 948 -607 981 -607 1074 c 0
 -607 1194 -508 1273 -350 1273 c 2
 -350 1273 l 2
 -297 1273 -292 1276 -292 1309 c 2
 -292 1547 l 1
 -166 1547 l 1
 -166 1315 l 2
 -166 1285 -154 1273 -117 1273 c 0
 -61 1273 -59 1286 -59 1323 c 2
 -59 1390 l 1
 66 1390 l 1
 67 1325 l 2
 67 1321 72 1320 77 1322 c 1
 148 1418 206 1461 270 1461 c 0
EndSplineSet
EndChar

StartChar: uniE079
Encoding: 57465 57465 1301
Width: 0
GlyphClass: 2
Flags: HMW
LayerCount: 2
Fore
SplineSet
61 1468 m 0
 45 1468 32 1456 32 1432 c 0
 32 1421 41 1414 63 1414 c 0
 74 1414 86 1415 94 1416 c 1
 89 1462 76 1468 61 1468 c 0
160 1683 m 1
 101 1624 l 1
 42 1683 l 1
 101 1742 l 1
 160 1683 l 1
75 1683 m 1
 16 1624 l 1
 -44 1683 l 1
 16 1742 l 1
 75 1683 l 1
67 1596 m 0
 157 1596 223 1506 223 1337 c 0
 223 1204 178 1140 30 1140 c 2
 -44 1140 l 2
 -109 1140 -153 1179 -160 1223 c 1
 -170 1223 l 1
 -176 1178 -226 1140 -286 1140 c 2
 -288 1140 l 2
 -403 1140 -416 1107 -416 1094 c 0
 -416 1088 -412 1078 -392 1078 c 2
 62 1078 l 1
 62 948 l 1
 -390 948 l 2
 -472 948 -542 981 -542 1074 c 0
 -542 1194 -446 1274 -288 1274 c 2
 -286 1274 l 2
 -233 1274 -227 1276 -227 1309 c 2
 -227 1547 l 1
 -104 1547 l 1
 -104 1314 l 2
 -104 1284 -79 1274 -44 1274 c 2
 20 1274 l 2
 98 1274 122 1283 116 1313 c 1
 90 1304 67 1304 48 1304 c 0
 -33 1304 -65 1335 -65 1411 c 0
 -65 1531 -12 1596 67 1596 c 0
EndSplineSet
EndChar

StartChar: uniE07A
Encoding: 57466 57466 1302
Width: 0
GlyphClass: 2
Flags: HMW
LayerCount: 2
Fore
SplineSet
45 1274 m 1
 60 1266 79 1260 95 1260 c 0
 111 1260 117 1266 117 1280 c 0
 117 1298 107 1320 88 1320 c 0
 69 1320 57 1305 47 1278 c 2
 45 1274 l 1
-171 1262 m 2
 -129 1262 -114 1278 -74 1353 c 0
 -18 1459 27 1490 91 1490 c 0
 185 1490 262 1407 262 1281 c 0
 262 1157 198 1085 95 1085 c 0
 28 1085 -16 1114 -37 1158 c 1
 -74 1106 -106 1089 -171 1089 c 2
 -218 1089 l 1
 -218 1262 l 1
 -171 1262 l 2
EndSplineSet
EndChar

StartChar: uniE07B
Encoding: 57467 57467 1303
Width: 0
GlyphClass: 2
Flags: HMW
LayerCount: 2
Fore
SplineSet
-188 1319 m 1
 -295 1663 l 1
 -110 1720 l 1
 -4 1367 l 1
 -188 1319 l 1
265 1711 m 1
 265 1504 l 2
 265 1171 210 1055 -217 1055 c 2
 -268 1055 l 1
 -268 1248 l 1
 -194 1248 l 2
 54 1248 71 1279 71 1482 c 2
 71 1711 l 1
 265 1711 l 1
EndSplineSet
EndChar

StartChar: uniE07C
Encoding: 57468 57468 1304
Width: 0
GlyphClass: 2
Flags: HMW
LayerCount: 2
Fore
SplineSet
-102 1583 m 0
 -71 1583 -32.2459896059 1573.44992721 50 1537 c 0
 138 1498 203 1470 256 1459 c 1
 236 1295 l 1
 36 1267.45177665 -144 1200.11167513 -144 1094 c 0
 -144 1032 -75 994 39 994 c 0
 102 994 172 1005 240 1027 c 1
 291 888 l 1
 204 852 114 833 29 833 c 0
 -163 833 -290 929 -290 1075 c 0
 -290 1204.72390572 -175 1335.46127946 48 1376 c 1
 48 1386 l 1
 27 1391 4.77359070079 1398.39477281 -28 1411 c 0
 -67 1426 -88 1430 -103 1430 c 0
 -136 1430 -152.759124088 1413.91240876 -168 1372 c 2
 -172 1361 l 1
 -280 1394 l 1
 -277 1405 l 2
 -242.730769231 1530.65384615 -189 1583 -102 1583 c 0
37 1202 m 1
 118 1121 l 1
 37 1043 l 1
 -42 1121 l 1
 37 1202 l 1
EndSplineSet
EndChar

StartChar: uniE07D
Encoding: 57469 57469 1305
Width: 0
GlyphClass: 2
Flags: HMW
LayerCount: 2
Fore
SplineSet
-106 1292 m 1
 -4 1189 l 1
 -106 1087 l 1
 -208 1189 l 1
 -106 1292 l 1
106 1292 m 1
 208 1189 l 1
 106 1087 l 1
 3 1189 l 1
 106 1292 l 1
0 1467 m 1
 103 1365 l 1
 0 1262 l 1
 -102 1365 l 1
 0 1467 l 1
EndSplineSet
EndChar

StartChar: uniE07E
Encoding: 57470 57470 1306
Width: 0
GlyphClass: 2
Flags: HMW
LayerCount: 2
Fore
SplineSet
236 1152 m 1
 218.574468085 1080 192.436170213 1050 145 1050 c 0
 118.428571429 1050 99.7301587302 1058.64 83 1077 c 1
 74 1073 l 1
 66.0745341615 926 -55.7795031056 835 -245 835 c 0
 -454 835 -554 930 -554 1128 c 0
 -554 1183 -547 1239 -528 1340 c 1
 -380 1309 l 1
 -395 1227 -399 1193 -399 1145 c 0
 -399 1044 -347 996 -236 996 c 0
 -124 996 -60 1044 -60 1127 c 0
 -60 1167 -78 1246 -109 1346 c 1
 38 1392 l 1
 77 1261 l 2
 88.5609677765 1222.16700567 99 1210 124 1210 c 0
 155 1210 169.550259067 1226.02901554 172 1264 c 2
 178 1357 l 1
 306 1348 l 1
 299 1259 l 2
 296.323839398 1224.97452949 313 1210 344 1210 c 0
 371 1210 387 1227 387 1256 c 0
 387 1274 379 1338 372 1379 c 1
 520 1412 l 1
 532 1352 539 1298 539 1256 c 0
 539 1115 488 1050 377 1050 c 0
 302.142857143 1050 261.759398496 1081 246 1152 c 1
 236 1152 l 1
EndSplineSet
EndChar

StartChar: uniE07F
Encoding: 57471 57471 1307
Width: 0
GlyphClass: 2
Flags: HMW
LayerCount: 2
Fore
SplineSet
-136 1413 m 0
 -136 1489 -76 1548 0 1548 c 0
 76 1548 136 1489 136 1413 c 0
 136 1337 76 1277 0 1277 c 0
 -76 1277 -136 1337 -136 1413 c 0
EndSplineSet
EndChar

StartChar: uniE080
Encoding: 57472 57472 1308
Width: 0
GlyphClass: 2
Flags: HMW
LayerCount: 2
Fore
SplineSet
-142 1271 m 1
 -142 1554 l 1
 142 1554 l 1
 142 1271 l 1
 -142 1271 l 1
EndSplineSet
EndChar

StartChar: uniE081
Encoding: 57473 57473 1309
Width: 0
GlyphClass: 2
Flags: HMW
LayerCount: 2
Fore
SplineSet
-56 1519 m 0
 1 1519 100 1482 272 1392 c 1
 274 1275 l 1
 144 1146 1 1089 -247 1066 c 1
 -259 1235 l 1
 -94 1243.21052632 -11 1255.98245614 70 1287 c 1
 70 1297 l 1
 21.6090995634 1322.59306981 -25.6150273979 1340 -48 1340 c 0
 -79 1340 -93 1327 -109 1288 c 1
 -240 1319 l 1
 -198 1459 -143 1519 -56 1519 c 0
EndSplineSet
EndChar

StartChar: uniE082
Encoding: 57474 57474 1310
Width: 0
GlyphClass: 2
Flags: HMW
LayerCount: 2
Fore
SplineSet
125 1270 m 0
 125 1314 108 1337 78 1337 c 0
 51 1337 30 1313 20 1263 c 1
 42 1256 76 1247 98 1247 c 0
 109 1247 125 1257 125 1270 c 0
-79 1115 m 0
 -91 1115 -109 1109 -109 1092 c 2
 -109 901 l 1
 -260 901 l 1
 -260 1112 l 2
 -260 1215 -204 1286 -114 1286 c 1
 -88 1420 -14 1496 82 1496 c 0
 187 1496 260 1407 260 1266 c 0
 260 1151 206 1085 112 1085 c 0
 80 1085 41 1091 -29 1107 c 0
 -56 1113 -70 1115 -79 1115 c 0
EndSplineSet
EndChar

StartChar: uniE083
Encoding: 57475 57475 1311
Width: 0
GlyphClass: 2
Flags: HMW
LayerCount: 2
Fore
SplineSet
54 1445 m 0
 79 1445 105 1462 133 1502 c 1
 250 1427 l 1
 178 1308 136 1269 81 1269 c 0
 53 1269 28 1278 5 1288 c 0
 -15 1296 -33 1303 -51 1303 c 0
 -77 1303 -99 1289 -126 1245 c 1
 -250 1320 l 1
 -181 1436 -128 1481 -70 1481 c 0
 -43 1481 -19 1472 1 1462 c 0
 21 1452 35 1445 54 1445 c 0
EndSplineSet
EndChar

StartChar: uniE084
Encoding: 57476 57476 1312
Width: 0
GlyphClass: 2
Flags: HMW
LayerCount: 2
Fore
SplineSet
39 1088 m 1
 21.6964285714 1084.4 0.321428571429 1082 -18 1082 c 0
 -120 1082 -171 1137 -171 1242 c 0
 -171 1367 -114 1488 0 1488 c 0
 131 1488 191 1348 191 1167 c 0
 191 1016.43952802 102 917.634218289 -104 848 c 1
 -177 992 l 1
 -86.5400851485 1013.2348874 10.974325016 1050.45940148 46 1081 c 1
 39 1088 l 1
-52 1273 m 0
 -52 1252 -40 1243 -9 1243 c 0
 10 1243 29 1244 50 1247 c 1
 38 1310 23 1330 -7 1330 c 0
 -34 1330 -52 1305 -52 1273 c 0
EndSplineSet
EndChar

StartChar: uniE085
Encoding: 57477 57477 1313
Width: 1022
GlyphClass: 2
Flags: HMW
LayerCount: 2
Fore
SplineSet
892 1250 m 1
 892 1077 l 1
 258 1077 l 2
 129 1077 53 1140 53 1246 c 0
 53 1352 123 1423 266 1462 c 0
 316 1474 349 1506 384 1576 c 0
 431 1669 481 1710 550 1710 c 0
 654 1710 701 1647 739 1456 c 1
 589 1420 l 1
 569 1496 558 1522 549 1522 c 0
 545 1522 539 1516 535 1506 c 0
 487 1391 407.094963012 1318.57665845 301 1295 c 0
 238 1281 222 1272 222 1263 c 0
 222 1253 237 1250 306 1250 c 2
 892 1250 l 1
EndSplineSet
EndChar

StartChar: uniE086
Encoding: 57478 57478 1314
Width: 0
GlyphClass: 2
Flags: HMW
LayerCount: 2
Fore
SplineSet
154 1462 m 1
 300 1504 l 1
 334 1374 344 1290 344 1234 c 0
 344 1053 224 946 -1 946 c 0
 -216 946 -324 1046 -324 1229 c 0
 -324 1275 -319 1342 -302 1457 c 1
 -152 1428 l 1
 -168 1331 -173 1281 -173 1242 c 0
 -173 1158 -116 1106 6 1106 c 0
 129 1106 194 1156 194 1238 c 0
 194 1266 186 1322 154 1462 c 1
2 1447 m 1
 90 1358 l 1
 2 1267 l 1
 -90 1358 l 1
 2 1447 l 1
EndSplineSet
EndChar

StartChar: uniE087
Encoding: 57479 57479 1315
Width: 0
GlyphClass: 2
Flags: HMW
LayerCount: 2
Fore
SplineSet
-49 1368 m 1
 0 1319 l 1
 49 1370 l 1
 0 1417 l 1
 -49 1368 l 1
-238 1368 m 1
 0 1605 l 1
 238 1370 l 1
 0 1131 l 1
 -238 1368 l 1
EndSplineSet
EndChar

StartChar: uniE088
Encoding: 57480 57480 1316
Width: 723
GlyphClass: 2
Flags: HMW
LayerCount: 2
Fore
SplineSet
119 378 m 1
 330 378 l 1
 330 0 l 1
 119 0 l 1
 119 378 l 1
394 378 m 1
 604 378 l 1
 604 0 l 1
 394 0 l 1
 394 378 l 1
EndSplineSet
EndChar

StartChar: uniE089
Encoding: 57481 57481 1317
Width: 794
GlyphClass: 2
Flags: HMW
LayerCount: 2
Fore
SplineSet
774 151 m 1
 774 0 l 1
 22 0 l 1
 22 151 l 1
 774 151 l 1
EndSplineSet
EndChar

StartChar: uniE08A
Encoding: 57482 57482 1318
Width: 589
GlyphClass: 2
Flags: HMW
LayerCount: 2
Fore
SplineSet
223 520 m 1
 276 392 l 2
 284 374 297 365 313 365 c 0
 333 365 347 379 350 407 c 2
 360 512 l 1
 520 497 l 1
 501 281 452 209 344 209 c 0
 340 209 337 209 330 210 c 1
 322 203 l 1
 332 106 334 54 334 0 c 1
 160 0 l 1
 160 160 133 285 67 442 c 1
 223 520 l 1
EndSplineSet
EndChar

StartChar: uniE08B
Encoding: 57483 57483 1319
Width: 701
GlyphClass: 2
Flags: HMW
LayerCount: 2
Fore
SplineSet
228 520 m 1
 280 370 l 2
 285 355 292 351 302 351 c 0
 313 351 322 353 323 370 c 2
 329 486 l 1
 454 477 l 1
 449 422 446 383 446 372 c 0
 446 361 458 351 477 351 c 0
 497 351 511 356 511 366 c 0
 511 386 506 438 499 481 c 1
 645 508 l 1
 655 464 659 406 659 374 c 0
 659 266 591 192 494 192 c 0
 455 192 412 209 387 235 c 1
 377 235 l 1
 367 216 348 204 330 204 c 0
 329 204 328 204 327 203 c 1
 322 194 l 1
 331 156 334 112 334 0 c 1
 160 0 l 1
 160 163 132 303 70 444 c 1
 228 520 l 1
EndSplineSet
EndChar

StartChar: uniE08C
Encoding: 57484 57484 1320
Width: 602
GlyphClass: 2
Flags: HMW
LayerCount: 2
Fore
SplineSet
254 521 m 0
 299 521 347 500 377 461 c 1
 376 463 l 1
 449 521 l 1
 555 379 l 1
 402 250 l 1
 354 250 l 1
 300 338 l 2
 292 351 282 357 271 357 c 0
 257 357 244 347 244 334 c 0
 244 327 245 324 247 321 c 2
 362 142 l 1
 385 106 392 54 392 0 c 1
 235 0 l 1
 235 27 231 46 222 61 c 2
 110 249 l 1
 92 280 80 314 80 346 c 0
 80 440 161 521 254 521 c 0
EndSplineSet
EndChar

StartChar: uniE08D
Encoding: 57485 57485 1321
Width: 1284
GlyphClass: 2
Flags: HMW
LayerCount: 2
Fore
SplineSet
858 214 m 1
 850 386 810 546 741 719 c 1
 1113 861 l 1
 1186 650 1240 417 1240 247 c 0
 1240 130 1216 17 1180 -82 c 1
 1258 -148 1344 -228 1429 -313 c 1
 1198 -540 l 1
 1136 -474 1073 -409 1010 -345 c 1
 878 -467 720 -546 523 -546 c 0
 242 -546 38 -392 38 -130 c 0
 38 139 255 328 515 328 c 0
 645 328 760 275 858 214 c 1
746 -77 m 1
 673 -6 589 41 495 41 c 0
 404 41 342 -7 342 -57 c 0
 342 -109 411 -149 520 -149 c 0
 617 -149 686 -122 746 -77 c 1
EndSplineSet
EndChar

StartChar: uniE08E
Encoding: 57486 57486 1322
Width: 1761
GlyphClass: 2
Flags: HMW
LayerCount: 2
Back
SplineSet
127 -360 m 1
 76 -220 38 -94 38 62 c 0
 38 285 192 457 384 457 c 0
 441 457 495 445 579 421 c 0
 642 403 700 390 776 390 c 0
 807 390 836 392 865 394 c 1
 870 403 l 1
 797 468.229571984 760 556.190661479 760 657 c 0
 760 930 969 1127 1225 1127 c 0
 1478 1127 1690 929 1690 662 c 0
 1690 561.770992366 1653.33636364 469.480916031 1581 402 c 1
 1588 394 l 1
 1615.98837209 396 1640 396 1671 396 c 2
 3809 396 l 1
 3809 0 l 1
 1651 0 l 2
 1454 0 1324 56 1218 143 c 1
 1115 56 988 0 800 0 c 0
 699 0 609.900530034 13.6998233221 525 42 c 0
 486 55 469 58 454 58 c 0
 434 58 418 45 418 25 c 0
 418 -57 448 -148 484 -230 c 1
 127 -360 l 1
1223 474 m 1
 1287 515 1325 569 1325 635 c 0
 1325 681 1285 730 1225 730 c 0
 1164 730 1125 684 1125 635 c 0
 1125 578 1166 518 1223 474 c 1
EndSplineSet
Fore
SplineSet
127 -360 m 1
 76 -220 38 -94 38 62 c 0
 38 285 192 457 384 457 c 0
 441 457 495 445 579 421 c 0
 642 403 700 390 776 390 c 0
 807 390 836 392 865 394 c 1
 870 403 l 1
 797 468.229571984 760 556.190661479 760 657 c 0
 760 930 969 1127 1225 1127 c 0
 1478 1127 1690 929 1690 662 c 0
 1690 561.770992366 1653.33636364 469.480916031 1581 402 c 1
 1588 394 l 1
 1615.98837209 396 1640.11627907 396 1671 396 c 2
 1761 396 l 1
 1761 0 l 1
 1651 0 l 2
 1454 0 1324 56 1218 143 c 1
 1115 56 988 0 800 0 c 0
 699 0 609.900530034 13.6998233221 525 42 c 0
 486 55 469 58 454 58 c 0
 434 58 418 45 418 25 c 0
 418 -57 448 -148 484 -230 c 1
 127 -360 l 1
1223 474 m 1
 1287 515 1325 569 1325 635 c 0
 1325 681 1285 730 1225 730 c 0
 1164 730 1125 684 1125 635 c 0
 1125 578 1166 518 1223 474 c 1
EndSplineSet
Colour: ffff
EndChar

StartChar: uniE08F
Encoding: 57487 57487 1323
Width: 1178
GlyphClass: 2
Flags: HMW
LayerCount: 2
Fore
SplineSet
553 401 m 1
 552 501 517 575 436 575 c 0
 376 575 339 523 339 462 c 0
 339 413 371 390 424 390 c 0
 467 390 510 393 553 401 c 1
484 3 m 1
 459 1 432 -1 410 -1 c 0
 168 -1 38 132 38 383 c 0
 38 681 173 965 449 965 c 0
 720 965 863 723 900 395 c 1
 959 403 1015 415 1073 428 c 1
 1143 90 l 1
 1060 70 979 55 897 47 c 1
 876 -187 816 -431 733 -635 c 1
 361 -503 l 1
 430 -294 463 -161 484 3 c 1
EndSplineSet
EndChar

StartChar: uniE090
Encoding: 57488 57488 1324
Width: 1300
GlyphClass: 2
Flags: HMW
LayerCount: 2
Back
SplineSet
3348 396 m 1
 3348 0 l 1
 1299 0 l 1
 1100 0 903 79 722 232 c 0
 685 262 650 295 615 331 c 0
 587 361 573 370 553 370 c 0
 524 370 508 348 488 275 c 0
 477 230 464 169 450 99 c 0
 436 23 421 -63 408 -152 c 1
 38 -92 l 1
 51 -1 65 84 81 160 c 0
 102 266 128 358 157 437 c 0
 246 675 368 788 528 788 c 0
 601 788 669 765 747 714 c 0
 794 684 845 644 901 592 c 0
 1059 445 1173 396 1299 396 c 1
 3348 396 l 1
EndSplineSet
Fore
SplineSet
1300 396 m 1
 1300 0 l 1
 1299 0 l 1
 1100 0 903 79 722 232 c 0
 685 262 650 295 615 331 c 0
 587 361 573 370 553 370 c 0
 524 370 508 348 488 275 c 0
 477 230 464 169 450 99 c 0
 436 23 421 -63 408 -152 c 1
 38 -92 l 1
 51 -1 65 84 81 160 c 0
 102 266 128 358 157 437 c 0
 246 675 368 788 528 788 c 0
 601 788 669 765 747 714 c 0
 794 684 845 644 901 592 c 0
 1059 445 1173 396 1299 396 c 1
 1300 396 l 1
EndSplineSet
Colour: ffff
EndChar

StartChar: uniE091
Encoding: 57489 57489 1325
Width: 1106
GlyphClass: 2
Flags: HMW
LayerCount: 2
Back
SplineSet
0 396 m 1
 172 396 266 498 364 800 c 1
 690 701 l 1
 624 515 590 351 590 223 c 0
 590 129 611 26 654 -107 c 1
 697 68 763 202 852 288 c 0
 923 358 1011 396 1097 396 c 2
 3154 396 l 1
 3154 0 l 1
 1097 0 l 2
 1056 0 1014 -13 984 -36 c 0
 912 -93 865 -219 830 -457 c 1
 612 -566 l 1
 433 -415 343 -209 303 137 c 1
 295 142 l 1
 210 45 114 0 0 0 c 1
 -36 0 -51 54 -51 197 c 0
 -51 339 -36 396 0 396 c 1
EndSplineSet
Fore
SplineSet
0 396 m 1
 172 396 266 498 364 800 c 1
 690 701 l 1
 624 515 590 351 590 223 c 0
 590 129 611 26 654 -107 c 1
 697 68 763 202 852 288 c 0
 923 358 1011 396 1097 396 c 2
 1106 396 l 1
 1106 0 l 1
 1097 0 l 2
 1056 0 1014 -13 984 -36 c 0
 912 -93 865 -219 830 -457 c 1
 612 -566 l 1
 433 -414 343 -209 303 137 c 1
 295 142 l 1
 210 45 114 0 0 0 c 1
 -36 0 -51 54 -51 197 c 0
 -51 339 -36 396 0 396 c 1
EndSplineSet
Colour: ffff
EndChar

StartChar: uniE092
Encoding: 57490 57490 1326
Width: 1106
GlyphClass: 2
Flags: HMW
LayerCount: 2
Back
SplineSet
586 -194 m 0
 631 -194 660 -178 660 -137 c 0
 660 -72 596 0 431 0 c 2
 399 0 l 1
 403 -128 479 -194 586 -194 c 0
586 1052 m 0
 824 1052 928 897 928 720 c 0
 928 613 890 496 768 406 c 1
 768 396 l 1
 3154 396 l 1
 3154 0 l 1
 812 0 l 1
 812 -10 l 1
 928 -99 958 -180 958 -250 c 0
 958 -456 827 -577 608 -577 c 0
 339 -577 180 -383 134 0 c 1
 0 0 l 2
 -37 0 -51 55 -51 196 c 0
 -51 338 -37 396 0 396 c 2
 125 396 l 1
 152 834 307 1052 586 1052 c 0
398 396 m 1
 432 396 l 2
 590 396 650 493 650 585 c 0
 650 643 612 667 574 667 c 0
 478 667 399 574 398 396 c 1
EndSplineSet
Fore
SplineSet
586 -194 m 0
 631 -194 660 -178 660 -137 c 0
 660 -72 596 0 431 0 c 2
 399 0 l 1
 403 -128 479 -194 586 -194 c 0
586 1052 m 0
 824 1052 928 897 928 720 c 0
 928 613 890 496 768 406 c 1
 768 396 l 1
 1106 396 l 1
 1106 0 l 1
 812 0 l 1
 812 -10 l 1
 928 -99 958 -180 958 -250 c 0
 958 -456 827 -577 608 -577 c 0
 339 -577 180 -383 134 0 c 1
 0 0 l 2
 -37 0 -51 55 -51 196 c 0
 -51 338 -37 396 0 396 c 2
 125 396 l 1
 152 834 307 1052 586 1052 c 0
398 396 m 1
 432 396 l 2
 590 396 650 493 650 585 c 0
 650 643 612 667 574 667 c 0
 478 667 399 574 398 396 c 1
EndSplineSet
Colour: ffff
EndChar

StartChar: uniE093
Encoding: 57491 57491 1327
Width: 1510
GlyphClass: 2
Flags: HMW
LayerCount: 2
Fore
SplineSet
506 0 m 2
 248 0 38 109 38 389 c 0
 38 766 388 1000 876 1000 c 2
 1173 1000 l 1
 1173 605 l 1
 875 605 l 2
 567 605 417 541 417 445 c 0
 417 421 444 396 501 396 c 2
 1473 396 l 1
 1473 0 l 1
 506 0 l 2
EndSplineSet
EndChar

